G75*
%MOIN*%
%OFA0B0*%
%FSLAX25Y25*%
%IPPOS*%
%LPD*%
%AMOC8*
5,1,8,0,0,1.08239X$1,22.5*
%
%ADD10C,0.07000*%
%ADD11OC8,0.07000*%
%ADD12R,0.06556X0.06556*%
%ADD13C,0.06556*%
%ADD14C,0.00500*%
%ADD15OC8,0.07400*%
%ADD16R,0.00038X0.00912*%
%ADD17R,0.00038X0.00608*%
%ADD18R,0.00038X0.01558*%
%ADD19R,0.00038X0.01026*%
%ADD20R,0.00038X0.01976*%
%ADD21R,0.00038X0.01292*%
%ADD22R,0.00038X0.00646*%
%ADD23R,0.00038X0.00684*%
%ADD24R,0.00038X0.02280*%
%ADD25R,0.00038X0.01520*%
%ADD26R,0.00038X0.01102*%
%ADD27R,0.00038X0.01140*%
%ADD28R,0.00038X0.02546*%
%ADD29R,0.00038X0.01710*%
%ADD30R,0.00038X0.01368*%
%ADD31R,0.00038X0.01482*%
%ADD32R,0.00038X0.02774*%
%ADD33R,0.00038X0.01862*%
%ADD34R,0.00038X0.01596*%
%ADD35R,0.00038X0.02508*%
%ADD36R,0.00038X0.02052*%
%ADD37R,0.00038X0.02964*%
%ADD38R,0.00038X0.02014*%
%ADD39R,0.00038X0.02204*%
%ADD40R,0.00038X0.01786*%
%ADD41R,0.00038X0.02242*%
%ADD42R,0.00038X0.02394*%
%ADD43R,0.00038X0.01938*%
%ADD44R,0.00038X0.03154*%
%ADD45R,0.00038X0.02166*%
%ADD46R,0.00038X0.02128*%
%ADD47R,0.00038X0.02470*%
%ADD48R,0.00038X0.03344*%
%ADD49R,0.00038X0.02318*%
%ADD50R,0.00038X0.02090*%
%ADD51R,0.00038X0.03458*%
%ADD52R,0.00038X0.02242*%
%ADD53R,0.00038X0.02432*%
%ADD54R,0.00038X0.02470*%
%ADD55R,0.00038X0.03610*%
%ADD56R,0.00038X0.02356*%
%ADD57R,0.00038X0.03724*%
%ADD58R,0.00038X0.02622*%
%ADD59R,0.00038X0.02698*%
%ADD60R,0.00038X0.03876*%
%ADD61R,0.00038X0.02698*%
%ADD62R,0.00038X0.02204*%
%ADD63R,0.00038X0.03952*%
%ADD64R,0.00038X0.02660*%
%ADD65R,0.00038X0.02926*%
%ADD66R,0.00038X0.04066*%
%ADD67R,0.00038X0.02888*%
%ADD68R,0.00038X0.02736*%
%ADD69R,0.00038X0.03040*%
%ADD70R,0.00038X0.04180*%
%ADD71R,0.00038X0.03116*%
%ADD72R,0.00038X0.04256*%
%ADD73R,0.00038X0.03040*%
%ADD74R,0.00038X0.03230*%
%ADD75R,0.00038X0.04332*%
%ADD76R,0.00038X0.03306*%
%ADD77R,0.00038X0.04408*%
%ADD78R,0.00038X0.03192*%
%ADD79R,0.00038X0.03382*%
%ADD80R,0.00038X0.04484*%
%ADD81R,0.00038X0.04560*%
%ADD82R,0.00038X0.03268*%
%ADD83R,0.00038X0.03572*%
%ADD84R,0.00038X0.04636*%
%ADD85R,0.00038X0.03648*%
%ADD86R,0.00038X0.04712*%
%ADD87R,0.00038X0.03420*%
%ADD88R,0.00038X0.03686*%
%ADD89R,0.00038X0.04788*%
%ADD90R,0.00038X0.03306*%
%ADD91R,0.00038X0.03762*%
%ADD92R,0.00038X0.04864*%
%ADD93R,0.00038X0.03496*%
%ADD94R,0.00038X0.03838*%
%ADD95R,0.00038X0.04902*%
%ADD96R,0.00038X0.03914*%
%ADD97R,0.00038X0.04940*%
%ADD98R,0.00038X0.06384*%
%ADD99R,0.00038X0.05016*%
%ADD100R,0.00038X0.03534*%
%ADD101R,0.00038X0.06422*%
%ADD102R,0.00038X0.05054*%
%ADD103R,0.00038X0.05092*%
%ADD104R,0.00038X0.06460*%
%ADD105R,0.00038X0.05168*%
%ADD106R,0.00038X0.06004*%
%ADD107R,0.00038X0.06498*%
%ADD108R,0.00038X0.05244*%
%ADD109R,0.00038X0.06042*%
%ADD110R,0.00038X0.05282*%
%ADD111R,0.00038X0.06498*%
%ADD112R,0.00038X0.05320*%
%ADD113R,0.00038X0.05358*%
%ADD114R,0.00038X0.06080*%
%ADD115R,0.00038X0.06536*%
%ADD116R,0.00038X0.05396*%
%ADD117R,0.00038X0.02584*%
%ADD118R,0.00038X0.05434*%
%ADD119R,0.00038X0.06574*%
%ADD120R,0.00038X0.05472*%
%ADD121R,0.00038X0.06118*%
%ADD122R,0.00038X0.05548*%
%ADD123R,0.00038X0.06612*%
%ADD124R,0.00038X0.06156*%
%ADD125R,0.00038X0.05586*%
%ADD126R,0.00038X0.05624*%
%ADD127R,0.00038X0.06650*%
%ADD128R,0.00038X0.05700*%
%ADD129R,0.00038X0.06612*%
%ADD130R,0.00038X0.06194*%
%ADD131R,0.00038X0.02964*%
%ADD132R,0.00038X0.03268*%
%ADD133R,0.00038X0.02812*%
%ADD134R,0.00038X0.03154*%
%ADD135R,0.00038X0.02812*%
%ADD136R,0.00038X0.03002*%
%ADD137R,0.00038X0.03078*%
%ADD138R,0.00038X0.02584*%
%ADD139R,0.00038X0.02850*%
%ADD140R,0.00038X0.02356*%
%ADD141R,0.00038X0.01824*%
%ADD142R,0.00038X0.05928*%
%ADD143R,0.00038X0.05890*%
%ADD144R,0.00038X0.05814*%
%ADD145R,0.00038X0.05776*%
%ADD146R,0.00038X0.05738*%
%ADD147R,0.00038X0.01862*%
%ADD148R,0.00038X0.05510*%
%ADD149R,0.00038X0.01900*%
%ADD150R,0.00038X0.05206*%
%ADD151R,0.00038X0.05130*%
%ADD152R,0.00038X0.05054*%
%ADD153R,0.00038X0.04978*%
%ADD154R,0.00038X0.04826*%
%ADD155R,0.00038X0.04750*%
%ADD156R,0.00038X0.04446*%
%ADD157R,0.00038X0.04142*%
%ADD158R,0.00038X0.04028*%
%ADD159R,0.00038X0.03534*%
%ADD160R,0.00038X0.01976*%
%ADD161R,0.00038X0.00114*%
%ADD162R,0.00038X0.00380*%
%ADD163R,0.00038X0.02926*%
%ADD164R,0.00038X0.05662*%
%ADD165R,0.00038X0.05966*%
%ADD166R,0.00038X0.05776*%
%ADD167R,0.00038X0.01748*%
%ADD168R,0.00038X0.05852*%
%ADD169R,0.00038X0.01672*%
%ADD170R,0.00038X0.01634*%
%ADD171R,0.00038X0.05434*%
%ADD172R,0.00038X0.02014*%
%ADD173R,0.00038X0.01444*%
%ADD174R,0.00038X0.01406*%
%ADD175R,0.00038X0.01330*%
%ADD176R,0.00038X0.04674*%
%ADD177R,0.00038X0.01216*%
%ADD178R,0.00038X0.01178*%
%ADD179R,0.00038X0.01140*%
%ADD180R,0.00038X0.04294*%
%ADD181R,0.00038X0.01064*%
%ADD182R,0.00038X0.04218*%
%ADD183R,0.00038X0.01026*%
%ADD184R,0.00038X0.00950*%
%ADD185R,0.00038X0.00836*%
%ADD186R,0.00038X0.00760*%
%ADD187R,0.00038X0.00570*%
%ADD188R,0.00038X0.00456*%
%ADD189R,0.00038X0.00342*%
%ADD190R,0.00038X0.00152*%
%ADD191R,0.00038X0.04256*%
%ADD192R,0.00038X0.01748*%
%ADD193R,0.00038X0.04142*%
%ADD194R,0.00038X0.04104*%
%ADD195R,0.00038X0.00988*%
%ADD196R,0.00038X0.04028*%
%ADD197R,0.00038X0.03990*%
%ADD198R,0.00038X0.04370*%
%ADD199R,0.00038X0.04484*%
%ADD200R,0.00038X0.04598*%
%ADD201R,0.00038X0.03800*%
%ADD202R,0.00038X0.05662*%
%ADD203R,0.00038X0.05890*%
%ADD204R,0.00038X0.00532*%
%ADD205R,0.00038X0.06042*%
%ADD206R,0.00038X0.06156*%
%ADD207R,0.00038X0.03648*%
%ADD208R,0.00038X0.03078*%
%ADD209R,0.00038X0.01254*%
%ADD210R,0.00038X0.00570*%
%ADD211R,0.00038X0.07068*%
%ADD212R,0.00038X0.00912*%
%ADD213R,0.00038X0.01520*%
%ADD214R,0.00038X0.03420*%
%ADD215R,0.00038X0.04522*%
%ADD216R,0.00038X0.04712*%
%ADD217R,0.00038X0.05092*%
%ADD218R,0.00038X0.05320*%
%ADD219R,0.00038X0.05548*%
%ADD220R,0.00038X0.03876*%
%ADD221R,0.00038X0.04370*%
%ADD222R,0.00038X0.03990*%
%ADD223R,0.00038X0.02090*%
%ADD224R,0.00038X0.04826*%
%ADD225R,0.00038X0.04598*%
%ADD226R,0.15800X0.15800*%
%ADD227C,0.15800*%
D10*
X0102950Y0061050D02*
X0109150Y0061050D01*
X0109150Y0071050D02*
X0102950Y0071050D01*
X0102950Y0081050D02*
X0109150Y0081050D01*
X0109150Y0091050D02*
X0102950Y0091050D01*
X0102950Y0101050D02*
X0109150Y0101050D01*
X0109150Y0111050D02*
X0102950Y0111050D01*
X0102950Y0121050D02*
X0109150Y0121050D01*
X0132950Y0121050D02*
X0139150Y0121050D01*
X0139150Y0111050D02*
X0132950Y0111050D01*
X0132950Y0101050D02*
X0139150Y0101050D01*
X0139150Y0091050D02*
X0132950Y0091050D01*
X0132950Y0081050D02*
X0139150Y0081050D01*
X0139150Y0071050D02*
X0132950Y0071050D01*
X0132950Y0061050D02*
X0139150Y0061050D01*
D11*
X0051050Y0056050D03*
X0051050Y0076050D03*
X0051050Y0106050D03*
X0051050Y0126050D03*
X0051050Y0156050D03*
X0051050Y0026050D03*
D12*
X0076050Y0036129D03*
X0076050Y0086129D03*
X0076050Y0136129D03*
D13*
X0076050Y0145971D03*
X0076050Y0095971D03*
X0076050Y0045971D03*
D14*
X0012226Y0027133D02*
X0011634Y0027441D01*
X0011114Y0027858D01*
X0010685Y0028368D01*
X0010364Y0028952D01*
X0010163Y0029588D01*
X0010090Y0030250D01*
X0010152Y0030942D01*
X0010348Y0031608D01*
X0010670Y0032223D01*
X0011106Y0032763D01*
X0011638Y0033208D01*
X0012248Y0033540D01*
X0012910Y0033747D01*
X0013600Y0033820D01*
X0014281Y0033739D01*
X0014932Y0033526D01*
X0015529Y0033190D01*
X0016050Y0032744D01*
X0016473Y0032205D01*
X0016783Y0031593D01*
X0016968Y0030933D01*
X0017020Y0030250D01*
X0016942Y0029583D01*
X0016735Y0028944D01*
X0016407Y0028358D01*
X0015971Y0027847D01*
X0015444Y0027431D01*
X0014846Y0027125D01*
X0014199Y0026943D01*
X0013530Y0026890D01*
X0012866Y0026947D01*
X0012226Y0027133D01*
X0012625Y0027017D02*
X0014463Y0027017D01*
X0015552Y0027516D02*
X0011541Y0027516D01*
X0010982Y0028014D02*
X0016114Y0028014D01*
X0016494Y0028513D02*
X0010606Y0028513D01*
X0010345Y0029011D02*
X0016757Y0029011D01*
X0016918Y0029510D02*
X0010188Y0029510D01*
X0010117Y0030008D02*
X0016992Y0030008D01*
X0017000Y0030507D02*
X0010113Y0030507D01*
X0010171Y0031005D02*
X0016948Y0031005D01*
X0016808Y0031504D02*
X0010317Y0031504D01*
X0010555Y0032002D02*
X0016575Y0032002D01*
X0016240Y0032501D02*
X0010894Y0032501D01*
X0011389Y0032999D02*
X0015751Y0032999D01*
X0014981Y0033498D02*
X0012171Y0033498D01*
X0012849Y0037670D02*
X0012213Y0037858D01*
X0011625Y0038166D01*
X0011109Y0038584D01*
X0010684Y0039094D01*
X0010367Y0039677D01*
X0010170Y0040310D01*
X0010100Y0040970D01*
X0010165Y0041658D01*
X0010363Y0042320D01*
X0010686Y0042931D01*
X0011122Y0043467D01*
X0011654Y0043908D01*
X0012262Y0044236D01*
X0012923Y0044440D01*
X0013610Y0044510D01*
X0014279Y0044433D01*
X0014921Y0044228D01*
X0015510Y0043901D01*
X0016023Y0043465D01*
X0016442Y0042938D01*
X0016750Y0042339D01*
X0016935Y0041691D01*
X0016991Y0041020D01*
X0016918Y0040348D01*
X0016715Y0039704D01*
X0016391Y0039111D01*
X0015957Y0038594D01*
X0015430Y0038170D01*
X0014831Y0037858D01*
X0014183Y0037669D01*
X0013510Y0037610D01*
X0012849Y0037670D01*
X0011972Y0037984D02*
X0015073Y0037984D01*
X0015819Y0038483D02*
X0011234Y0038483D01*
X0010778Y0038982D02*
X0016282Y0038982D01*
X0016593Y0039480D02*
X0010474Y0039480D01*
X0010273Y0039979D02*
X0016801Y0039979D01*
X0016932Y0040477D02*
X0010153Y0040477D01*
X0010101Y0040976D02*
X0016986Y0040976D01*
X0016953Y0041474D02*
X0010148Y0041474D01*
X0010259Y0041973D02*
X0016855Y0041973D01*
X0016682Y0042471D02*
X0010443Y0042471D01*
X0010717Y0042970D02*
X0016417Y0042970D01*
X0016020Y0043468D02*
X0011123Y0043468D01*
X0011763Y0043967D02*
X0015391Y0043967D01*
X0014003Y0044465D02*
X0013171Y0044465D01*
X0013480Y0048300D02*
X0012820Y0048363D01*
X0012186Y0048553D01*
X0011600Y0048864D01*
X0011087Y0049283D01*
X0010665Y0049794D01*
X0010351Y0050377D01*
X0010157Y0051011D01*
X0010091Y0051670D01*
X0010151Y0052351D01*
X0010342Y0053006D01*
X0010658Y0053612D01*
X0011086Y0054144D01*
X0011610Y0054583D01*
X0012209Y0054911D01*
X0012861Y0055116D01*
X0013540Y0055190D01*
X0014219Y0055116D01*
X0014871Y0054912D01*
X0015470Y0054583D01*
X0015994Y0054145D01*
X0016422Y0053612D01*
X0016738Y0053007D01*
X0016930Y0052351D01*
X0016990Y0051670D01*
X0016911Y0051000D01*
X0016702Y0050359D01*
X0016372Y0049770D01*
X0015933Y0049258D01*
X0015403Y0048840D01*
X0014802Y0048534D01*
X0014153Y0048352D01*
X0013480Y0048300D01*
X0012518Y0048453D02*
X0014513Y0048453D01*
X0015545Y0048952D02*
X0011492Y0048952D01*
X0010948Y0049450D02*
X0016098Y0049450D01*
X0016472Y0049949D02*
X0010582Y0049949D01*
X0010330Y0050447D02*
X0016731Y0050447D01*
X0016893Y0050946D02*
X0010177Y0050946D01*
X0010113Y0051444D02*
X0016963Y0051444D01*
X0016966Y0051943D02*
X0010115Y0051943D01*
X0010177Y0052441D02*
X0016904Y0052441D01*
X0016758Y0052940D02*
X0010323Y0052940D01*
X0010568Y0053438D02*
X0016513Y0053438D01*
X0016161Y0053937D02*
X0010919Y0053937D01*
X0011433Y0054435D02*
X0015647Y0054435D01*
X0014800Y0054934D02*
X0012281Y0054934D01*
X0013530Y0076890D02*
X0012866Y0076947D01*
X0012226Y0077133D01*
X0011634Y0077441D01*
X0011114Y0077858D01*
X0010685Y0078368D01*
X0010364Y0078952D01*
X0010163Y0079588D01*
X0010090Y0080250D01*
X0010152Y0080942D01*
X0010348Y0081608D01*
X0010670Y0082223D01*
X0011106Y0082763D01*
X0011638Y0083208D01*
X0012248Y0083540D01*
X0012910Y0083747D01*
X0013600Y0083820D01*
X0014281Y0083739D01*
X0014932Y0083526D01*
X0015529Y0083190D01*
X0016050Y0082744D01*
X0016473Y0082205D01*
X0016783Y0081593D01*
X0016968Y0080933D01*
X0017020Y0080250D01*
X0016942Y0079583D01*
X0016735Y0078944D01*
X0016407Y0078358D01*
X0015971Y0077847D01*
X0015444Y0077431D01*
X0014846Y0077125D01*
X0014199Y0076943D01*
X0013530Y0076890D01*
X0011776Y0077367D02*
X0015319Y0077367D01*
X0015987Y0077865D02*
X0011107Y0077865D01*
X0010689Y0078364D02*
X0016411Y0078364D01*
X0016689Y0078862D02*
X0010413Y0078862D01*
X0010235Y0079361D02*
X0016870Y0079361D01*
X0016974Y0079859D02*
X0010133Y0079859D01*
X0010100Y0080358D02*
X0017012Y0080358D01*
X0016974Y0080856D02*
X0010145Y0080856D01*
X0010274Y0081355D02*
X0016850Y0081355D01*
X0016651Y0081853D02*
X0010477Y0081853D01*
X0010774Y0082352D02*
X0016357Y0082352D01*
X0015925Y0082851D02*
X0011211Y0082851D01*
X0011898Y0083349D02*
X0015246Y0083349D01*
X0014183Y0087669D02*
X0013510Y0087610D01*
X0012849Y0087670D01*
X0012213Y0087858D01*
X0011625Y0088166D01*
X0011109Y0088584D01*
X0010684Y0089094D01*
X0010367Y0089677D01*
X0010170Y0090310D01*
X0010100Y0090970D01*
X0010165Y0091658D01*
X0010363Y0092320D01*
X0010686Y0092931D01*
X0011122Y0093467D01*
X0011654Y0093908D01*
X0012262Y0094236D01*
X0012923Y0094440D01*
X0013610Y0094510D01*
X0014279Y0094433D01*
X0014921Y0094228D01*
X0015510Y0093901D01*
X0016023Y0093465D01*
X0016442Y0092938D01*
X0016750Y0092339D01*
X0016935Y0091691D01*
X0016991Y0091020D01*
X0016918Y0090348D01*
X0016715Y0089704D01*
X0016391Y0089111D01*
X0015957Y0088594D01*
X0015430Y0088170D01*
X0014831Y0087858D01*
X0014183Y0087669D01*
X0014754Y0087836D02*
X0012288Y0087836D01*
X0011418Y0088334D02*
X0015634Y0088334D01*
X0016157Y0088833D02*
X0010902Y0088833D01*
X0010555Y0089331D02*
X0016511Y0089331D01*
X0016755Y0089830D02*
X0010320Y0089830D01*
X0010168Y0090328D02*
X0016911Y0090328D01*
X0016970Y0090827D02*
X0010116Y0090827D01*
X0010134Y0091325D02*
X0016965Y0091325D01*
X0016897Y0091824D02*
X0010215Y0091824D01*
X0010364Y0092322D02*
X0016755Y0092322D01*
X0016502Y0092821D02*
X0010627Y0092821D01*
X0011002Y0093319D02*
X0016139Y0093319D01*
X0015607Y0093818D02*
X0011545Y0093818D01*
X0012522Y0094316D02*
X0014645Y0094316D01*
X0014153Y0098352D02*
X0013480Y0098300D01*
X0012820Y0098363D01*
X0012186Y0098553D01*
X0011600Y0098864D01*
X0011087Y0099283D01*
X0010665Y0099794D01*
X0010351Y0100377D01*
X0010157Y0101011D01*
X0010091Y0101670D01*
X0010151Y0102351D01*
X0010342Y0103006D01*
X0010658Y0103612D01*
X0011086Y0104144D01*
X0011610Y0104583D01*
X0012209Y0104911D01*
X0012861Y0105116D01*
X0013540Y0105190D01*
X0014219Y0105116D01*
X0014871Y0104912D01*
X0015470Y0104583D01*
X0015994Y0104145D01*
X0016422Y0103612D01*
X0016738Y0103007D01*
X0016930Y0102351D01*
X0016990Y0101670D01*
X0016911Y0101000D01*
X0016702Y0100359D01*
X0016372Y0099770D01*
X0015933Y0099258D01*
X0015403Y0098840D01*
X0014802Y0098534D01*
X0014153Y0098352D01*
X0013541Y0098304D02*
X0013430Y0098304D01*
X0011715Y0098803D02*
X0015330Y0098803D01*
X0015971Y0099301D02*
X0011071Y0099301D01*
X0010662Y0099800D02*
X0016388Y0099800D01*
X0016668Y0100298D02*
X0010394Y0100298D01*
X0010223Y0100797D02*
X0016844Y0100797D01*
X0016946Y0101295D02*
X0010128Y0101295D01*
X0010101Y0101794D02*
X0016979Y0101794D01*
X0016935Y0102292D02*
X0010145Y0102292D01*
X0010279Y0102791D02*
X0016801Y0102791D01*
X0016591Y0103289D02*
X0010490Y0103289D01*
X0010800Y0103788D02*
X0016281Y0103788D01*
X0015825Y0104287D02*
X0011256Y0104287D01*
X0011978Y0104785D02*
X0015102Y0104785D01*
X0013530Y0126890D02*
X0012866Y0126947D01*
X0012226Y0127133D01*
X0011634Y0127441D01*
X0011114Y0127858D01*
X0010685Y0128368D01*
X0010364Y0128952D01*
X0010163Y0129588D01*
X0010090Y0130250D01*
X0010152Y0130942D01*
X0010348Y0131608D01*
X0010670Y0132223D01*
X0011106Y0132763D01*
X0011638Y0133208D01*
X0012248Y0133540D01*
X0012910Y0133747D01*
X0013600Y0133820D01*
X0014281Y0133739D01*
X0014932Y0133526D01*
X0015529Y0133190D01*
X0016050Y0132744D01*
X0016473Y0132205D01*
X0016783Y0131593D01*
X0016968Y0130933D01*
X0017020Y0130250D01*
X0016942Y0129583D01*
X0016735Y0128944D01*
X0016407Y0128358D01*
X0015971Y0127847D01*
X0015444Y0127431D01*
X0014846Y0127125D01*
X0014199Y0126943D01*
X0013530Y0126890D01*
X0012063Y0127218D02*
X0015028Y0127218D01*
X0015806Y0127717D02*
X0011290Y0127717D01*
X0010814Y0128215D02*
X0016285Y0128215D01*
X0016606Y0128714D02*
X0010495Y0128714D01*
X0010282Y0129212D02*
X0016822Y0129212D01*
X0016957Y0129711D02*
X0010150Y0129711D01*
X0010095Y0130209D02*
X0017015Y0130209D01*
X0016985Y0130708D02*
X0010131Y0130708D01*
X0010230Y0131206D02*
X0016891Y0131206D01*
X0016726Y0131705D02*
X0010399Y0131705D01*
X0010660Y0132203D02*
X0016474Y0132203D01*
X0016083Y0132702D02*
X0011056Y0132702D01*
X0011629Y0133200D02*
X0015511Y0133200D01*
X0014403Y0133699D02*
X0012756Y0133699D01*
X0012849Y0137670D02*
X0012213Y0137858D01*
X0011625Y0138166D01*
X0011109Y0138584D01*
X0010684Y0139094D01*
X0010367Y0139677D01*
X0010170Y0140310D01*
X0010100Y0140970D01*
X0010165Y0141658D01*
X0010363Y0142320D01*
X0010686Y0142931D01*
X0011122Y0143467D01*
X0011654Y0143908D01*
X0012262Y0144236D01*
X0012923Y0144440D01*
X0013610Y0144510D01*
X0014279Y0144433D01*
X0014921Y0144228D01*
X0015510Y0143901D01*
X0016023Y0143465D01*
X0016442Y0142938D01*
X0016750Y0142339D01*
X0016935Y0141691D01*
X0016991Y0141020D01*
X0016918Y0140348D01*
X0016715Y0139704D01*
X0016391Y0139111D01*
X0015957Y0138594D01*
X0015430Y0138170D01*
X0014831Y0137858D01*
X0014183Y0137669D01*
X0013510Y0137610D01*
X0012849Y0137670D01*
X0012792Y0137687D02*
X0014244Y0137687D01*
X0015449Y0138185D02*
X0011602Y0138185D01*
X0011026Y0138684D02*
X0016032Y0138684D01*
X0016429Y0139182D02*
X0010636Y0139182D01*
X0010366Y0139681D02*
X0016702Y0139681D01*
X0016865Y0140179D02*
X0010211Y0140179D01*
X0010131Y0140678D02*
X0016953Y0140678D01*
X0016978Y0141176D02*
X0010120Y0141176D01*
X0010170Y0141675D02*
X0016937Y0141675D01*
X0016797Y0142173D02*
X0010319Y0142173D01*
X0010549Y0142672D02*
X0016579Y0142672D01*
X0016257Y0143170D02*
X0010880Y0143170D01*
X0011366Y0143669D02*
X0015783Y0143669D01*
X0015029Y0144167D02*
X0012135Y0144167D01*
X0012820Y0148363D02*
X0012186Y0148553D01*
X0011600Y0148864D01*
X0011087Y0149283D01*
X0010665Y0149794D01*
X0010351Y0150377D01*
X0010157Y0151011D01*
X0010091Y0151670D01*
X0010151Y0152351D01*
X0010342Y0153006D01*
X0010658Y0153612D01*
X0011086Y0154144D01*
X0011610Y0154583D01*
X0012209Y0154911D01*
X0012861Y0155116D01*
X0013540Y0155190D01*
X0014219Y0155116D01*
X0014871Y0154912D01*
X0015470Y0154583D01*
X0015994Y0154145D01*
X0016422Y0153612D01*
X0016738Y0153007D01*
X0016930Y0152351D01*
X0016990Y0151670D01*
X0016911Y0151000D01*
X0016702Y0150359D01*
X0016372Y0149770D01*
X0015933Y0149258D01*
X0015403Y0148840D01*
X0014802Y0148534D01*
X0014153Y0148352D01*
X0013480Y0148300D01*
X0012820Y0148363D01*
X0011995Y0148654D02*
X0015037Y0148654D01*
X0015800Y0149153D02*
X0011246Y0149153D01*
X0010783Y0149651D02*
X0016270Y0149651D01*
X0016585Y0150150D02*
X0010474Y0150150D01*
X0010268Y0150648D02*
X0016796Y0150648D01*
X0016928Y0151147D02*
X0010143Y0151147D01*
X0010093Y0151645D02*
X0016987Y0151645D01*
X0016948Y0152144D02*
X0010132Y0152144D01*
X0010236Y0152642D02*
X0016845Y0152642D01*
X0016668Y0153141D02*
X0010412Y0153141D01*
X0010680Y0153639D02*
X0016401Y0153639D01*
X0016000Y0154138D02*
X0011081Y0154138D01*
X0011706Y0154636D02*
X0015374Y0154636D01*
X0014051Y0155135D02*
X0013030Y0155135D01*
D15*
X0031050Y0141050D03*
X0041050Y0131050D03*
X0041050Y0151050D03*
X0041050Y0101050D03*
X0031050Y0091050D03*
X0041050Y0081050D03*
X0041050Y0051050D03*
X0031050Y0041050D03*
X0041050Y0031050D03*
D16*
X0117082Y0115013D03*
X0100666Y0139599D03*
X0116740Y0146553D03*
X0125746Y0146553D03*
D17*
X0125746Y0140967D03*
D18*
X0125708Y0146572D03*
X0100628Y0129320D03*
X0091698Y0129320D03*
X0117614Y0115336D03*
X0117652Y0115336D03*
D19*
X0125708Y0140986D03*
D20*
X0125670Y0146553D03*
X0119552Y0154039D03*
X0119514Y0154039D03*
X0119362Y0154001D03*
X0119324Y0154001D03*
X0119286Y0154001D03*
X0119248Y0154001D03*
X0118982Y0153925D03*
X0118944Y0153925D03*
X0118906Y0153925D03*
X0118868Y0153925D03*
X0118830Y0153925D03*
X0118792Y0153887D03*
X0118754Y0153887D03*
X0118716Y0153887D03*
X0118678Y0153887D03*
X0118640Y0153887D03*
X0118412Y0153811D03*
X0118374Y0153811D03*
X0118336Y0153811D03*
X0118298Y0153811D03*
X0118260Y0153773D03*
X0118222Y0153773D03*
X0118184Y0153773D03*
X0118146Y0153773D03*
X0118108Y0153773D03*
X0117880Y0153697D03*
X0117842Y0153697D03*
X0117804Y0153697D03*
X0117766Y0153697D03*
X0117728Y0153697D03*
X0117690Y0153659D03*
X0117652Y0153659D03*
X0117614Y0153659D03*
X0117576Y0153659D03*
X0117500Y0153621D03*
X0117462Y0153621D03*
X0117424Y0153621D03*
X0117386Y0153621D03*
X0117310Y0153583D03*
X0117272Y0153583D03*
X0117234Y0153583D03*
X0117196Y0153583D03*
X0116968Y0153507D03*
X0116930Y0153507D03*
X0116892Y0153507D03*
X0116854Y0153507D03*
X0117538Y0157003D03*
X0117348Y0157041D03*
X0117728Y0156965D03*
X0116816Y0157155D03*
X0119210Y0156661D03*
X0119248Y0156661D03*
X0119400Y0156623D03*
X0119438Y0156623D03*
X0119476Y0156623D03*
X0119514Y0156623D03*
X0119552Y0156623D03*
X0119856Y0156547D03*
X0119894Y0156547D03*
X0116816Y0146553D03*
X0104466Y0149365D03*
X0094472Y0154039D03*
X0094434Y0154039D03*
X0094282Y0154001D03*
X0094244Y0154001D03*
X0094206Y0154001D03*
X0094168Y0154001D03*
X0093902Y0153925D03*
X0093864Y0153925D03*
X0093826Y0153925D03*
X0093788Y0153925D03*
X0093750Y0153925D03*
X0093712Y0153887D03*
X0093674Y0153887D03*
X0093636Y0153887D03*
X0093598Y0153887D03*
X0093560Y0153887D03*
X0093332Y0153811D03*
X0093294Y0153811D03*
X0093256Y0153811D03*
X0093218Y0153811D03*
X0093180Y0153773D03*
X0093142Y0153773D03*
X0093104Y0153773D03*
X0093066Y0153773D03*
X0093028Y0153773D03*
X0092800Y0153697D03*
X0092762Y0153697D03*
X0092724Y0153697D03*
X0092686Y0153697D03*
X0092648Y0153697D03*
X0092610Y0153659D03*
X0092572Y0153659D03*
X0092534Y0153659D03*
X0092496Y0153659D03*
X0092420Y0153621D03*
X0092382Y0153621D03*
X0092344Y0153621D03*
X0092306Y0153621D03*
X0092230Y0153583D03*
X0092192Y0153583D03*
X0092154Y0153583D03*
X0092116Y0153583D03*
X0091888Y0153507D03*
X0091850Y0153507D03*
X0091812Y0153507D03*
X0091774Y0153507D03*
X0092458Y0157003D03*
X0092268Y0157041D03*
X0092648Y0156965D03*
X0091736Y0157155D03*
X0094130Y0156661D03*
X0094168Y0156661D03*
X0094320Y0156623D03*
X0094358Y0156623D03*
X0094396Y0156623D03*
X0094434Y0156623D03*
X0094472Y0156623D03*
X0094776Y0156547D03*
X0094814Y0156547D03*
X0104466Y0138459D03*
X0091736Y0129301D03*
D21*
X0117348Y0115203D03*
X0125670Y0140967D03*
D22*
X0125670Y0134374D03*
X0116778Y0140910D03*
X0104276Y0138440D03*
X0100590Y0147636D03*
X0104276Y0149346D03*
D23*
X0125670Y0123981D03*
X0116968Y0114899D03*
D24*
X0125442Y0123943D03*
X0117082Y0140967D03*
X0116854Y0146553D03*
X0116854Y0151341D03*
X0116816Y0151341D03*
X0116892Y0151341D03*
X0116930Y0151341D03*
X0116968Y0151341D03*
X0117006Y0151341D03*
X0117044Y0151341D03*
X0117082Y0151341D03*
X0117120Y0151341D03*
X0117158Y0151341D03*
X0117196Y0151341D03*
X0117234Y0151341D03*
X0117272Y0151341D03*
X0117310Y0151341D03*
X0117348Y0151341D03*
X0117386Y0151341D03*
X0117424Y0151341D03*
X0124910Y0155331D03*
X0124948Y0155331D03*
X0124986Y0155331D03*
X0125024Y0155331D03*
X0125062Y0155331D03*
X0117424Y0159321D03*
X0117386Y0159321D03*
X0117348Y0159321D03*
X0117310Y0159321D03*
X0117272Y0159321D03*
X0117234Y0159321D03*
X0117196Y0159321D03*
X0117158Y0159321D03*
X0117120Y0159321D03*
X0117082Y0159321D03*
X0117044Y0159321D03*
X0117006Y0159321D03*
X0116968Y0159321D03*
X0116930Y0159321D03*
X0116892Y0159321D03*
X0116854Y0159321D03*
X0116816Y0159321D03*
X0125632Y0146553D03*
X0099982Y0155331D03*
X0099944Y0155331D03*
X0099906Y0155331D03*
X0099868Y0155331D03*
X0099830Y0155331D03*
X0092344Y0159321D03*
X0092306Y0159321D03*
X0092268Y0159321D03*
X0092230Y0159321D03*
X0092192Y0159321D03*
X0092154Y0159321D03*
X0092116Y0159321D03*
X0092078Y0159321D03*
X0092040Y0159321D03*
X0092002Y0159321D03*
X0091964Y0159321D03*
X0091926Y0159321D03*
X0091888Y0159321D03*
X0091850Y0159321D03*
X0091812Y0159321D03*
X0091774Y0159321D03*
X0091736Y0159321D03*
X0091736Y0151341D03*
X0091774Y0151341D03*
X0091812Y0151341D03*
X0091850Y0151341D03*
X0091888Y0151341D03*
X0091926Y0151341D03*
X0091964Y0151341D03*
X0092002Y0151341D03*
X0092040Y0151341D03*
X0092078Y0151341D03*
X0092116Y0151341D03*
X0092154Y0151341D03*
X0092192Y0151341D03*
X0092230Y0151341D03*
X0092268Y0151341D03*
X0092306Y0151341D03*
X0092344Y0151341D03*
X0094168Y0141347D03*
X0094206Y0141347D03*
X0093408Y0141233D03*
X0098576Y0141385D03*
X0098652Y0141347D03*
X0098804Y0137775D03*
X0098766Y0137737D03*
X0097854Y0137661D03*
X0097816Y0137661D03*
X0100552Y0129301D03*
X0094396Y0127439D03*
X0091774Y0129301D03*
D25*
X0116778Y0146553D03*
X0125632Y0140967D03*
X0117576Y0115317D03*
D26*
X0125632Y0134374D03*
X0104314Y0138440D03*
X0100552Y0147636D03*
X0104314Y0149346D03*
D27*
X0125632Y0123981D03*
D28*
X0125366Y0123924D03*
X0123580Y0124912D03*
X0122060Y0124646D03*
X0122022Y0124608D03*
X0118716Y0124608D03*
X0118678Y0124570D03*
X0118716Y0120846D03*
X0118754Y0120808D03*
X0119514Y0120770D03*
X0119552Y0120770D03*
X0122820Y0120770D03*
X0122858Y0120770D03*
X0122896Y0120770D03*
X0122934Y0120770D03*
X0122972Y0120770D03*
X0123010Y0120770D03*
X0123048Y0120770D03*
X0120046Y0117426D03*
X0120008Y0117426D03*
X0119970Y0117426D03*
X0123200Y0131334D03*
X0123238Y0131334D03*
X0125290Y0134298D03*
X0123580Y0134982D03*
X0123390Y0138098D03*
X0123352Y0138098D03*
X0125366Y0140986D03*
X0123466Y0141784D03*
X0123428Y0141784D03*
X0123390Y0141822D03*
X0123352Y0141822D03*
X0123884Y0144938D03*
X0125594Y0146572D03*
X0123884Y0148168D03*
X0118602Y0148168D03*
X0118602Y0144938D03*
X0119134Y0141746D03*
X0119134Y0138098D03*
X0119172Y0138098D03*
X0114156Y0134564D03*
X0114194Y0131106D03*
X0110356Y0130878D03*
X0110318Y0130878D03*
X0106670Y0130878D03*
X0106632Y0130878D03*
X0106594Y0130878D03*
X0106442Y0134526D03*
X0106328Y0137832D03*
X0106670Y0141480D03*
X0106708Y0141480D03*
X0100210Y0147560D03*
X0098500Y0148244D03*
X0098158Y0144596D03*
X0098120Y0144596D03*
X0098956Y0141138D03*
X0097588Y0137794D03*
X0093218Y0138022D03*
X0094510Y0141214D03*
X0093522Y0130916D03*
X0091812Y0129320D03*
X0093484Y0127724D03*
X0093522Y0127686D03*
X0098842Y0127686D03*
X0100514Y0129320D03*
X0098842Y0130916D03*
X0110470Y0134564D03*
X0110508Y0134564D03*
X0106328Y0148738D03*
X0106670Y0152386D03*
X0106708Y0152386D03*
D29*
X0125594Y0140986D03*
X0125556Y0123962D03*
X0117842Y0115412D03*
X0117804Y0115412D03*
D30*
X0117424Y0115241D03*
X0125594Y0134355D03*
X0104352Y0138459D03*
X0100514Y0147617D03*
X0104352Y0149365D03*
D31*
X0091698Y0139504D03*
X0117538Y0115298D03*
X0125594Y0123962D03*
D32*
X0125290Y0123924D03*
X0123580Y0120884D03*
X0121794Y0124380D03*
X0118526Y0120960D03*
X0119628Y0117312D03*
X0123580Y0131448D03*
X0125176Y0134298D03*
X0123732Y0134868D03*
X0123656Y0138212D03*
X0125252Y0140986D03*
X0125556Y0146572D03*
X0118868Y0141594D03*
X0118906Y0138212D03*
X0114270Y0134412D03*
X0115714Y0132930D03*
X0110736Y0134412D03*
X0110660Y0130992D03*
X0106328Y0130992D03*
X0104770Y0133766D03*
X0100476Y0129320D03*
X0097436Y0137946D03*
X0098500Y0144710D03*
X0100096Y0147560D03*
X0098652Y0148130D03*
X0106176Y0148852D03*
X0106328Y0152272D03*
X0106328Y0141366D03*
X0104732Y0138516D03*
X0106176Y0137946D03*
D33*
X0096296Y0154362D03*
X0096258Y0154362D03*
X0096220Y0154362D03*
X0096182Y0154362D03*
X0095916Y0154286D03*
X0095878Y0154286D03*
X0095840Y0154286D03*
X0095802Y0154286D03*
X0095764Y0154286D03*
X0095650Y0154248D03*
X0095612Y0154248D03*
X0096182Y0156300D03*
X0096220Y0156300D03*
X0096258Y0156300D03*
X0096296Y0156300D03*
X0095878Y0156376D03*
X0095840Y0156376D03*
X0095802Y0156376D03*
X0095764Y0156376D03*
X0095612Y0156414D03*
X0120692Y0156414D03*
X0120844Y0156376D03*
X0120882Y0156376D03*
X0120920Y0156376D03*
X0120958Y0156376D03*
X0121262Y0156300D03*
X0121300Y0156300D03*
X0121338Y0156300D03*
X0121376Y0156300D03*
X0121376Y0154362D03*
X0121338Y0154362D03*
X0121300Y0154362D03*
X0121262Y0154362D03*
X0120996Y0154286D03*
X0120958Y0154286D03*
X0120920Y0154286D03*
X0120882Y0154286D03*
X0120844Y0154286D03*
X0120730Y0154248D03*
X0120692Y0154248D03*
X0125556Y0140986D03*
D34*
X0125556Y0134355D03*
X0116892Y0140967D03*
X0104390Y0138459D03*
X0104390Y0133785D03*
X0100476Y0147617D03*
X0117690Y0115355D03*
D35*
X0120084Y0117445D03*
X0120122Y0117445D03*
X0120160Y0117445D03*
X0120198Y0117445D03*
X0119476Y0120751D03*
X0119438Y0120751D03*
X0119400Y0120751D03*
X0118830Y0120789D03*
X0118792Y0120789D03*
X0121452Y0120751D03*
X0121490Y0120751D03*
X0121528Y0120751D03*
X0121566Y0120751D03*
X0121604Y0120751D03*
X0121642Y0120751D03*
X0121680Y0120751D03*
X0121718Y0120751D03*
X0121756Y0120751D03*
X0121794Y0120751D03*
X0121832Y0120751D03*
X0121870Y0120751D03*
X0121908Y0120751D03*
X0121946Y0120751D03*
X0121984Y0120751D03*
X0122022Y0120751D03*
X0122060Y0120751D03*
X0122098Y0120751D03*
X0122136Y0120751D03*
X0122174Y0120751D03*
X0122212Y0120751D03*
X0122250Y0120751D03*
X0122288Y0120751D03*
X0122326Y0120751D03*
X0122364Y0120751D03*
X0122402Y0120751D03*
X0122440Y0120751D03*
X0122478Y0120751D03*
X0122516Y0120751D03*
X0122554Y0120751D03*
X0122592Y0120751D03*
X0122630Y0120751D03*
X0122668Y0120751D03*
X0122706Y0120751D03*
X0122744Y0120751D03*
X0122782Y0120751D03*
X0125518Y0120447D03*
X0123542Y0124931D03*
X0123504Y0124931D03*
X0122136Y0124703D03*
X0122098Y0124665D03*
X0118754Y0124627D03*
X0114156Y0131087D03*
X0112256Y0133747D03*
X0110432Y0134583D03*
X0110394Y0134583D03*
X0110318Y0134621D03*
X0110280Y0134621D03*
X0110242Y0134621D03*
X0106556Y0134583D03*
X0106518Y0134583D03*
X0106480Y0134545D03*
X0104656Y0133747D03*
X0106708Y0130859D03*
X0106746Y0130859D03*
X0106784Y0130859D03*
X0106822Y0130859D03*
X0110166Y0130859D03*
X0110204Y0130859D03*
X0110242Y0130859D03*
X0110280Y0130859D03*
X0114118Y0134583D03*
X0119210Y0138079D03*
X0119248Y0138079D03*
X0117158Y0140967D03*
X0119172Y0141765D03*
X0119210Y0141765D03*
X0119248Y0141765D03*
X0119324Y0141803D03*
X0119362Y0141803D03*
X0118640Y0144919D03*
X0116892Y0146553D03*
X0118640Y0148187D03*
X0123808Y0148225D03*
X0123846Y0148187D03*
X0124834Y0151455D03*
X0124872Y0151455D03*
X0124910Y0151455D03*
X0124948Y0151455D03*
X0124986Y0151455D03*
X0125024Y0151455D03*
X0125062Y0151455D03*
X0125100Y0151455D03*
X0125138Y0151455D03*
X0125176Y0151455D03*
X0125214Y0151455D03*
X0125252Y0151455D03*
X0125290Y0151455D03*
X0125328Y0151455D03*
X0125366Y0151455D03*
X0125404Y0151455D03*
X0125442Y0151455D03*
X0125480Y0151455D03*
X0125518Y0151455D03*
X0124492Y0155331D03*
X0124454Y0155331D03*
X0124416Y0155331D03*
X0124378Y0155331D03*
X0124834Y0159207D03*
X0124872Y0159207D03*
X0124910Y0159207D03*
X0124948Y0159207D03*
X0124986Y0159207D03*
X0125024Y0159207D03*
X0125062Y0159207D03*
X0125100Y0159207D03*
X0125138Y0159207D03*
X0125176Y0159207D03*
X0125214Y0159207D03*
X0125252Y0159207D03*
X0125290Y0159207D03*
X0125328Y0159207D03*
X0125366Y0159207D03*
X0125404Y0159207D03*
X0125442Y0159207D03*
X0125480Y0159207D03*
X0125518Y0159207D03*
X0123314Y0141841D03*
X0123276Y0141841D03*
X0123238Y0141841D03*
X0123200Y0141841D03*
X0123162Y0141841D03*
X0123200Y0138079D03*
X0123238Y0138079D03*
X0123276Y0138079D03*
X0123314Y0138079D03*
X0123428Y0135039D03*
X0123542Y0135001D03*
X0123162Y0131315D03*
X0123124Y0131315D03*
X0123086Y0131315D03*
X0106480Y0137775D03*
X0106404Y0137813D03*
X0106366Y0137813D03*
X0104618Y0138497D03*
X0106746Y0141499D03*
X0106784Y0141499D03*
X0106822Y0141499D03*
X0100514Y0139561D03*
X0098956Y0137927D03*
X0097626Y0137775D03*
X0094472Y0141233D03*
X0093256Y0141081D03*
X0098006Y0144577D03*
X0098044Y0144577D03*
X0098082Y0144577D03*
X0098462Y0148263D03*
X0098348Y0148301D03*
X0099754Y0151455D03*
X0099792Y0151455D03*
X0099830Y0151455D03*
X0099868Y0151455D03*
X0099906Y0151455D03*
X0099944Y0151455D03*
X0099982Y0151455D03*
X0100020Y0151455D03*
X0100058Y0151455D03*
X0100096Y0151455D03*
X0100134Y0151455D03*
X0100172Y0151455D03*
X0100210Y0151455D03*
X0100248Y0151455D03*
X0100286Y0151455D03*
X0100324Y0151455D03*
X0100362Y0151455D03*
X0100400Y0151455D03*
X0100438Y0151455D03*
X0099412Y0155331D03*
X0099374Y0155331D03*
X0099336Y0155331D03*
X0099298Y0155331D03*
X0099754Y0159207D03*
X0099792Y0159207D03*
X0099830Y0159207D03*
X0099868Y0159207D03*
X0099906Y0159207D03*
X0099944Y0159207D03*
X0099982Y0159207D03*
X0100020Y0159207D03*
X0100058Y0159207D03*
X0100096Y0159207D03*
X0100134Y0159207D03*
X0100172Y0159207D03*
X0100210Y0159207D03*
X0100248Y0159207D03*
X0100286Y0159207D03*
X0100324Y0159207D03*
X0100362Y0159207D03*
X0100400Y0159207D03*
X0100438Y0159207D03*
X0106746Y0152405D03*
X0106784Y0152405D03*
X0106822Y0152405D03*
X0106404Y0148719D03*
X0106366Y0148719D03*
X0106480Y0148681D03*
X0098804Y0130935D03*
X0098804Y0127667D03*
X0098766Y0127629D03*
D36*
X0104504Y0133785D03*
X0117006Y0140967D03*
X0125480Y0155331D03*
X0125518Y0155331D03*
X0100438Y0155331D03*
X0100400Y0155331D03*
D37*
X0098310Y0155331D03*
X0098272Y0155331D03*
X0098234Y0155331D03*
X0098196Y0155331D03*
X0098158Y0155331D03*
X0106214Y0152177D03*
X0104846Y0149403D03*
X0100020Y0147541D03*
X0098614Y0144805D03*
X0094814Y0140929D03*
X0100438Y0139561D03*
X0106214Y0141271D03*
X0116968Y0146553D03*
X0117386Y0140967D03*
X0125176Y0140967D03*
X0125100Y0134279D03*
X0123694Y0131543D03*
X0123770Y0120979D03*
X0119932Y0120979D03*
X0119514Y0117217D03*
X0106252Y0131087D03*
X0100438Y0129301D03*
X0091888Y0129301D03*
X0123238Y0155331D03*
X0123276Y0155331D03*
X0123314Y0155331D03*
X0123352Y0155331D03*
X0123390Y0155331D03*
X0125518Y0146553D03*
D38*
X0125518Y0140986D03*
X0118450Y0153830D03*
X0119020Y0156680D03*
X0119058Y0156680D03*
X0119096Y0156680D03*
X0119134Y0156680D03*
X0119172Y0156680D03*
X0119286Y0156642D03*
X0119324Y0156642D03*
X0119362Y0156642D03*
X0118982Y0156718D03*
X0118944Y0156718D03*
X0118906Y0156718D03*
X0118868Y0156718D03*
X0118830Y0156718D03*
X0118792Y0156756D03*
X0118754Y0156756D03*
X0118716Y0156756D03*
X0118678Y0156756D03*
X0118640Y0156756D03*
X0118602Y0156794D03*
X0118564Y0156794D03*
X0118526Y0156794D03*
X0118488Y0156794D03*
X0118450Y0156832D03*
X0118412Y0156832D03*
X0118374Y0156832D03*
X0118336Y0156832D03*
X0118298Y0156832D03*
X0118260Y0156870D03*
X0118222Y0156870D03*
X0118184Y0156870D03*
X0118146Y0156870D03*
X0118108Y0156870D03*
X0118070Y0156908D03*
X0118032Y0156908D03*
X0117994Y0156908D03*
X0117956Y0156908D03*
X0117918Y0156908D03*
X0117880Y0156946D03*
X0117842Y0156946D03*
X0117804Y0156946D03*
X0117766Y0156946D03*
X0117690Y0156984D03*
X0117652Y0156984D03*
X0117614Y0156984D03*
X0117576Y0156984D03*
X0117310Y0157060D03*
X0117272Y0157060D03*
X0117234Y0157060D03*
X0117196Y0157060D03*
X0117158Y0157098D03*
X0117120Y0157098D03*
X0117082Y0157098D03*
X0117044Y0157098D03*
X0116968Y0157136D03*
X0116930Y0157136D03*
X0116892Y0157136D03*
X0116854Y0157136D03*
X0094282Y0156642D03*
X0094244Y0156642D03*
X0094206Y0156642D03*
X0094092Y0156680D03*
X0094054Y0156680D03*
X0094016Y0156680D03*
X0093978Y0156680D03*
X0093940Y0156680D03*
X0093902Y0156718D03*
X0093864Y0156718D03*
X0093826Y0156718D03*
X0093788Y0156718D03*
X0093750Y0156718D03*
X0093712Y0156756D03*
X0093674Y0156756D03*
X0093636Y0156756D03*
X0093598Y0156756D03*
X0093560Y0156756D03*
X0093522Y0156794D03*
X0093484Y0156794D03*
X0093446Y0156794D03*
X0093408Y0156794D03*
X0093370Y0156832D03*
X0093332Y0156832D03*
X0093294Y0156832D03*
X0093256Y0156832D03*
X0093218Y0156832D03*
X0093180Y0156870D03*
X0093142Y0156870D03*
X0093104Y0156870D03*
X0093066Y0156870D03*
X0093028Y0156870D03*
X0092990Y0156908D03*
X0092952Y0156908D03*
X0092914Y0156908D03*
X0092876Y0156908D03*
X0092838Y0156908D03*
X0092800Y0156946D03*
X0092762Y0156946D03*
X0092724Y0156946D03*
X0092686Y0156946D03*
X0092610Y0156984D03*
X0092572Y0156984D03*
X0092534Y0156984D03*
X0092496Y0156984D03*
X0092230Y0157060D03*
X0092192Y0157060D03*
X0092154Y0157060D03*
X0092116Y0157060D03*
X0092078Y0157098D03*
X0092040Y0157098D03*
X0092002Y0157098D03*
X0091964Y0157098D03*
X0091888Y0157136D03*
X0091850Y0157136D03*
X0091812Y0157136D03*
X0091774Y0157136D03*
X0093370Y0153830D03*
D39*
X0093864Y0141385D03*
X0093902Y0141385D03*
X0093940Y0141385D03*
X0093978Y0141385D03*
X0094016Y0141385D03*
X0093712Y0141347D03*
X0093674Y0141347D03*
X0093636Y0141347D03*
X0093598Y0141309D03*
X0093560Y0141309D03*
X0091774Y0139523D03*
X0093484Y0137775D03*
X0097968Y0137623D03*
X0098006Y0137623D03*
X0098044Y0137623D03*
X0098576Y0137661D03*
X0098424Y0141423D03*
X0098386Y0141423D03*
X0098348Y0141423D03*
X0098310Y0141461D03*
X0098272Y0141461D03*
X0098234Y0141461D03*
X0098196Y0141461D03*
X0117044Y0140967D03*
X0124606Y0137927D03*
X0124644Y0137927D03*
X0124682Y0137927D03*
X0124720Y0137927D03*
X0124758Y0137927D03*
X0124796Y0137927D03*
X0124834Y0137927D03*
X0124872Y0137927D03*
X0124910Y0137927D03*
X0124948Y0137927D03*
X0124986Y0137927D03*
X0125024Y0137927D03*
X0125062Y0137927D03*
X0125100Y0137927D03*
X0125138Y0137927D03*
X0125176Y0137927D03*
X0125214Y0137927D03*
X0125252Y0137927D03*
X0125290Y0137927D03*
X0125328Y0137927D03*
X0125366Y0137927D03*
X0125404Y0137927D03*
X0125442Y0137927D03*
X0125480Y0137927D03*
X0125518Y0137927D03*
X0116816Y0122689D03*
X0116968Y0117597D03*
X0117006Y0117597D03*
X0117044Y0117597D03*
X0117082Y0117597D03*
X0117120Y0117597D03*
X0117158Y0117597D03*
X0117196Y0117597D03*
X0117234Y0117597D03*
X0117272Y0117597D03*
X0117310Y0117597D03*
X0117348Y0117597D03*
X0117386Y0117597D03*
X0117424Y0117597D03*
X0117462Y0117597D03*
X0117500Y0117597D03*
X0117538Y0117597D03*
X0117576Y0117597D03*
X0117614Y0117597D03*
X0117652Y0117597D03*
X0117690Y0117597D03*
X0117728Y0117597D03*
X0117766Y0117597D03*
X0117804Y0117597D03*
X0117842Y0117597D03*
X0117880Y0117597D03*
X0117918Y0117597D03*
X0117956Y0117597D03*
X0117994Y0117597D03*
X0118032Y0117597D03*
X0118070Y0117597D03*
X0118108Y0117597D03*
D40*
X0117918Y0115450D03*
X0112484Y0133766D03*
X0104428Y0133766D03*
X0100438Y0147598D03*
X0125518Y0134336D03*
D41*
X0125518Y0131182D03*
X0125480Y0131182D03*
X0125442Y0131182D03*
X0125404Y0131182D03*
X0125366Y0131182D03*
X0125328Y0131182D03*
X0125290Y0131182D03*
X0125252Y0131182D03*
X0125214Y0131182D03*
X0125176Y0131182D03*
X0125138Y0131182D03*
X0125100Y0131182D03*
X0125062Y0131182D03*
X0125024Y0131182D03*
X0124986Y0131182D03*
X0124948Y0131182D03*
X0124910Y0131182D03*
X0124872Y0131182D03*
X0124834Y0131182D03*
X0124796Y0131182D03*
X0124758Y0131182D03*
X0124720Y0131182D03*
X0124682Y0131182D03*
X0124644Y0131182D03*
X0124606Y0131182D03*
X0124568Y0131182D03*
X0124530Y0131182D03*
X0104542Y0138478D03*
X0104542Y0141632D03*
X0104504Y0141632D03*
X0104466Y0141632D03*
X0104428Y0141632D03*
X0104580Y0141632D03*
X0104618Y0141632D03*
X0104656Y0141632D03*
X0104694Y0141632D03*
X0104732Y0141632D03*
X0104770Y0141632D03*
X0104808Y0141632D03*
X0104846Y0141632D03*
X0104884Y0141632D03*
X0104922Y0141632D03*
X0104960Y0141632D03*
X0104998Y0141632D03*
X0105036Y0141632D03*
X0105074Y0141632D03*
X0105112Y0141632D03*
X0105150Y0141632D03*
X0105188Y0141632D03*
X0105226Y0141632D03*
X0105264Y0141632D03*
X0105302Y0141632D03*
X0105340Y0141632D03*
X0105378Y0141632D03*
X0100552Y0139580D03*
X0098728Y0137718D03*
X0097930Y0137642D03*
X0097892Y0137642D03*
X0093446Y0137794D03*
X0093370Y0137832D03*
X0093446Y0141252D03*
X0094054Y0141366D03*
X0094092Y0141366D03*
X0094130Y0141366D03*
X0098614Y0141366D03*
X0099450Y0144444D03*
X0099488Y0144444D03*
X0099526Y0144444D03*
X0099564Y0144444D03*
X0099602Y0144444D03*
X0099640Y0144444D03*
X0099678Y0144444D03*
X0099716Y0144444D03*
X0099754Y0144444D03*
X0099792Y0144444D03*
X0099830Y0144444D03*
X0099868Y0144444D03*
X0099906Y0144444D03*
X0099944Y0144444D03*
X0099982Y0144444D03*
X0100020Y0144444D03*
X0100058Y0144444D03*
X0100096Y0144444D03*
X0100134Y0144444D03*
X0100172Y0144444D03*
X0100210Y0144444D03*
X0100248Y0144444D03*
X0100286Y0144444D03*
X0100324Y0144444D03*
X0100362Y0144444D03*
X0100400Y0144444D03*
X0100438Y0144444D03*
X0100324Y0147598D03*
X0104542Y0149384D03*
D42*
X0107050Y0148624D03*
X0107088Y0148624D03*
X0107126Y0148624D03*
X0107164Y0148624D03*
X0107202Y0148624D03*
X0107240Y0148624D03*
X0107278Y0148624D03*
X0107316Y0148624D03*
X0107354Y0148624D03*
X0107392Y0148624D03*
X0107430Y0148624D03*
X0107468Y0148624D03*
X0107506Y0148624D03*
X0107544Y0148624D03*
X0107582Y0148624D03*
X0107620Y0148624D03*
X0107658Y0148624D03*
X0107696Y0148624D03*
X0107734Y0148624D03*
X0107772Y0148624D03*
X0107810Y0148624D03*
X0107848Y0148624D03*
X0107886Y0148624D03*
X0107924Y0148624D03*
X0107962Y0148624D03*
X0108000Y0148624D03*
X0108038Y0148624D03*
X0108076Y0148624D03*
X0108114Y0148624D03*
X0108152Y0148624D03*
X0108190Y0148624D03*
X0108228Y0148624D03*
X0108266Y0148624D03*
X0108304Y0148624D03*
X0108342Y0148624D03*
X0108380Y0148624D03*
X0108418Y0148624D03*
X0108456Y0148624D03*
X0108494Y0148624D03*
X0108532Y0148624D03*
X0108570Y0148624D03*
X0108608Y0148624D03*
X0108646Y0148624D03*
X0108684Y0148624D03*
X0108722Y0148624D03*
X0108760Y0148624D03*
X0108798Y0148624D03*
X0108836Y0148624D03*
X0108874Y0148624D03*
X0108912Y0148624D03*
X0108950Y0148624D03*
X0108988Y0148624D03*
X0109026Y0148624D03*
X0109064Y0148624D03*
X0109102Y0148624D03*
X0109140Y0148624D03*
X0109178Y0148624D03*
X0109216Y0148624D03*
X0109254Y0148624D03*
X0109292Y0148624D03*
X0109330Y0148624D03*
X0109368Y0148624D03*
X0109406Y0148624D03*
X0109444Y0148624D03*
X0109482Y0148624D03*
X0109520Y0148624D03*
X0109558Y0148624D03*
X0109596Y0148624D03*
X0109634Y0148624D03*
X0109672Y0148624D03*
X0109710Y0148624D03*
X0109748Y0148624D03*
X0109786Y0148624D03*
X0109824Y0148624D03*
X0109862Y0148624D03*
X0109900Y0148624D03*
X0109938Y0148624D03*
X0109976Y0148624D03*
X0110014Y0148624D03*
X0110052Y0148624D03*
X0110090Y0148624D03*
X0110128Y0148624D03*
X0110166Y0148624D03*
X0110204Y0148624D03*
X0110242Y0148624D03*
X0110280Y0148624D03*
X0110318Y0148624D03*
X0110356Y0148624D03*
X0110394Y0148624D03*
X0110432Y0148624D03*
X0110470Y0148624D03*
X0110508Y0148624D03*
X0110546Y0148624D03*
X0110584Y0148624D03*
X0110622Y0148624D03*
X0110660Y0148624D03*
X0110698Y0148624D03*
X0110736Y0148624D03*
X0110774Y0148624D03*
X0110812Y0148624D03*
X0110850Y0148624D03*
X0110888Y0148624D03*
X0110926Y0148624D03*
X0110964Y0148624D03*
X0111002Y0148624D03*
X0111040Y0148624D03*
X0111078Y0148624D03*
X0111116Y0148624D03*
X0111154Y0148624D03*
X0111192Y0148624D03*
X0111230Y0148624D03*
X0111268Y0148624D03*
X0111306Y0148624D03*
X0111344Y0148624D03*
X0111382Y0148624D03*
X0111420Y0148624D03*
X0111458Y0148624D03*
X0111496Y0148624D03*
X0111534Y0148624D03*
X0111572Y0148624D03*
X0111610Y0148624D03*
X0111648Y0148624D03*
X0111686Y0148624D03*
X0111724Y0148624D03*
X0111762Y0148624D03*
X0111800Y0148624D03*
X0111838Y0148624D03*
X0111876Y0148624D03*
X0111914Y0148624D03*
X0111952Y0148624D03*
X0111990Y0148624D03*
X0112028Y0148624D03*
X0112066Y0148624D03*
X0112104Y0148624D03*
X0112142Y0148624D03*
X0112180Y0148624D03*
X0112218Y0148624D03*
X0112256Y0148624D03*
X0112294Y0148624D03*
X0112332Y0148624D03*
X0112370Y0148624D03*
X0112408Y0148624D03*
X0112446Y0148624D03*
X0112484Y0148624D03*
X0112522Y0148624D03*
X0112560Y0148624D03*
X0112598Y0148624D03*
X0112636Y0148624D03*
X0112674Y0148624D03*
X0112712Y0148624D03*
X0112750Y0148624D03*
X0112788Y0148624D03*
X0112826Y0148624D03*
X0112864Y0148624D03*
X0112902Y0148624D03*
X0112940Y0148624D03*
X0112978Y0148624D03*
X0112978Y0145166D03*
X0112940Y0145166D03*
X0112902Y0145166D03*
X0112864Y0145166D03*
X0112826Y0145166D03*
X0112788Y0145166D03*
X0112750Y0145166D03*
X0112712Y0145166D03*
X0112674Y0145166D03*
X0112636Y0145166D03*
X0112598Y0145166D03*
X0112560Y0145166D03*
X0112522Y0145166D03*
X0112484Y0145166D03*
X0112446Y0145166D03*
X0112408Y0145166D03*
X0112370Y0145166D03*
X0112332Y0145166D03*
X0112294Y0145166D03*
X0112256Y0145166D03*
X0112218Y0145166D03*
X0112180Y0145166D03*
X0112142Y0145166D03*
X0112104Y0145166D03*
X0112066Y0145166D03*
X0112028Y0145166D03*
X0111990Y0145166D03*
X0111952Y0145166D03*
X0111914Y0145166D03*
X0111876Y0145166D03*
X0111838Y0145166D03*
X0111800Y0145166D03*
X0111762Y0145166D03*
X0111724Y0145166D03*
X0111686Y0145166D03*
X0111648Y0145166D03*
X0111610Y0145166D03*
X0111572Y0145166D03*
X0111534Y0145166D03*
X0111496Y0145166D03*
X0111458Y0145166D03*
X0111420Y0145166D03*
X0111382Y0145166D03*
X0111344Y0145166D03*
X0111306Y0145166D03*
X0111268Y0145166D03*
X0111230Y0145166D03*
X0111192Y0145166D03*
X0111154Y0145166D03*
X0111116Y0145166D03*
X0111078Y0145166D03*
X0111040Y0145166D03*
X0111002Y0145166D03*
X0110964Y0145166D03*
X0110926Y0145166D03*
X0110888Y0145166D03*
X0110850Y0145166D03*
X0110812Y0145166D03*
X0110774Y0145166D03*
X0110736Y0145166D03*
X0110698Y0145166D03*
X0110660Y0145166D03*
X0110622Y0145166D03*
X0110584Y0145166D03*
X0110546Y0145166D03*
X0110508Y0145166D03*
X0110470Y0145166D03*
X0110432Y0145166D03*
X0110394Y0145166D03*
X0110356Y0145166D03*
X0110318Y0145166D03*
X0110280Y0145166D03*
X0110242Y0145166D03*
X0110204Y0145166D03*
X0110166Y0145166D03*
X0110128Y0145166D03*
X0110090Y0145166D03*
X0110052Y0145166D03*
X0110014Y0145166D03*
X0109976Y0145166D03*
X0109938Y0145166D03*
X0109900Y0145166D03*
X0109862Y0145166D03*
X0109824Y0145166D03*
X0109786Y0145166D03*
X0109748Y0145166D03*
X0109710Y0145166D03*
X0109672Y0145166D03*
X0109634Y0145166D03*
X0109596Y0145166D03*
X0109558Y0145166D03*
X0109520Y0145166D03*
X0109482Y0145166D03*
X0109444Y0145166D03*
X0109406Y0145166D03*
X0109368Y0145166D03*
X0109330Y0145166D03*
X0109292Y0145166D03*
X0109254Y0145166D03*
X0109216Y0145166D03*
X0109178Y0145166D03*
X0109140Y0145166D03*
X0109102Y0145166D03*
X0109064Y0145166D03*
X0109026Y0145166D03*
X0108988Y0145166D03*
X0108950Y0145166D03*
X0108912Y0145166D03*
X0108874Y0145166D03*
X0108836Y0145166D03*
X0108798Y0145166D03*
X0108760Y0145166D03*
X0108722Y0145166D03*
X0108684Y0145166D03*
X0108646Y0145166D03*
X0108608Y0145166D03*
X0108570Y0145166D03*
X0108532Y0145166D03*
X0108494Y0145166D03*
X0108456Y0145166D03*
X0108418Y0145166D03*
X0108380Y0145166D03*
X0108342Y0145166D03*
X0108304Y0145166D03*
X0108266Y0145166D03*
X0108228Y0145166D03*
X0108190Y0145166D03*
X0108152Y0145166D03*
X0108114Y0145166D03*
X0108076Y0145166D03*
X0108038Y0145166D03*
X0108000Y0145166D03*
X0107962Y0145166D03*
X0107924Y0145166D03*
X0107886Y0145166D03*
X0107848Y0145166D03*
X0107810Y0145166D03*
X0107772Y0145166D03*
X0107734Y0145166D03*
X0107696Y0145166D03*
X0107658Y0145166D03*
X0107620Y0145166D03*
X0107582Y0145166D03*
X0107544Y0145166D03*
X0107506Y0145166D03*
X0107468Y0145166D03*
X0107430Y0145166D03*
X0107392Y0145166D03*
X0107354Y0145166D03*
X0107316Y0145166D03*
X0107278Y0145166D03*
X0107240Y0145166D03*
X0107202Y0145166D03*
X0107164Y0145166D03*
X0107126Y0145166D03*
X0107088Y0145166D03*
X0107050Y0145166D03*
X0107012Y0145166D03*
X0106974Y0145166D03*
X0106936Y0145166D03*
X0106898Y0145166D03*
X0106860Y0145166D03*
X0106822Y0145166D03*
X0106784Y0145166D03*
X0106746Y0145166D03*
X0106708Y0145166D03*
X0106670Y0145166D03*
X0106632Y0145166D03*
X0106594Y0145166D03*
X0106556Y0145166D03*
X0106518Y0145166D03*
X0106480Y0145166D03*
X0106442Y0145166D03*
X0106404Y0145166D03*
X0106366Y0145166D03*
X0106328Y0145166D03*
X0106290Y0145166D03*
X0106252Y0145166D03*
X0106214Y0145166D03*
X0106176Y0145166D03*
X0106138Y0145166D03*
X0106100Y0145166D03*
X0106062Y0145166D03*
X0106024Y0145166D03*
X0105986Y0145166D03*
X0105948Y0145166D03*
X0105910Y0145166D03*
X0105872Y0145166D03*
X0105834Y0145166D03*
X0105796Y0145166D03*
X0105758Y0145166D03*
X0105720Y0145166D03*
X0105682Y0145166D03*
X0105644Y0145166D03*
X0105606Y0145166D03*
X0105568Y0145166D03*
X0105530Y0145166D03*
X0105492Y0145166D03*
X0105454Y0145166D03*
X0105416Y0145166D03*
X0105378Y0145166D03*
X0105340Y0145166D03*
X0105302Y0145166D03*
X0105264Y0145166D03*
X0105226Y0145166D03*
X0105188Y0145166D03*
X0105150Y0145166D03*
X0105112Y0145166D03*
X0105074Y0145166D03*
X0105036Y0145166D03*
X0104998Y0145166D03*
X0104960Y0145166D03*
X0104922Y0145166D03*
X0104884Y0145166D03*
X0104846Y0145166D03*
X0104808Y0145166D03*
X0104770Y0145166D03*
X0104732Y0145166D03*
X0104694Y0145166D03*
X0104656Y0145166D03*
X0104618Y0145166D03*
X0104580Y0145166D03*
X0104542Y0145166D03*
X0104504Y0145166D03*
X0104466Y0145166D03*
X0104428Y0145166D03*
X0103554Y0145166D03*
X0103516Y0145166D03*
X0103478Y0145166D03*
X0103440Y0145166D03*
X0103402Y0145166D03*
X0103364Y0145166D03*
X0103326Y0145166D03*
X0103288Y0145166D03*
X0103250Y0145166D03*
X0103212Y0145166D03*
X0103174Y0145166D03*
X0103136Y0145166D03*
X0103098Y0145166D03*
X0103060Y0145166D03*
X0103022Y0145166D03*
X0102984Y0145166D03*
X0102946Y0145166D03*
X0102908Y0145166D03*
X0102870Y0145166D03*
X0102832Y0145166D03*
X0102794Y0145166D03*
X0102756Y0145166D03*
X0102718Y0145166D03*
X0102680Y0145166D03*
X0102642Y0145166D03*
X0102604Y0145166D03*
X0102566Y0145166D03*
X0102528Y0145166D03*
X0102490Y0145166D03*
X0102452Y0145166D03*
X0102414Y0145166D03*
X0102376Y0145166D03*
X0102338Y0145166D03*
X0102300Y0145166D03*
X0102262Y0145166D03*
X0102224Y0145166D03*
X0102186Y0145166D03*
X0102148Y0145166D03*
X0102110Y0145166D03*
X0102072Y0145166D03*
X0102034Y0145166D03*
X0101996Y0145166D03*
X0101958Y0145166D03*
X0101920Y0145166D03*
X0101882Y0145166D03*
X0101844Y0145166D03*
X0101806Y0145166D03*
X0101768Y0145166D03*
X0101730Y0145166D03*
X0101692Y0145166D03*
X0101654Y0145166D03*
X0101616Y0145166D03*
X0101578Y0145166D03*
X0101540Y0145166D03*
X0101502Y0145166D03*
X0097550Y0144520D03*
X0097512Y0144520D03*
X0097474Y0144520D03*
X0097436Y0144520D03*
X0097398Y0144520D03*
X0097360Y0144520D03*
X0097322Y0144520D03*
X0097284Y0144520D03*
X0097246Y0144520D03*
X0097208Y0144520D03*
X0097170Y0144520D03*
X0097132Y0144520D03*
X0097094Y0144520D03*
X0097056Y0144520D03*
X0097018Y0144520D03*
X0096980Y0144520D03*
X0096942Y0144520D03*
X0096904Y0144520D03*
X0096866Y0144520D03*
X0096828Y0144520D03*
X0096790Y0144520D03*
X0096752Y0144520D03*
X0096714Y0144520D03*
X0096676Y0144520D03*
X0096638Y0144520D03*
X0096600Y0144520D03*
X0096562Y0144520D03*
X0096524Y0144520D03*
X0096486Y0144520D03*
X0096448Y0144520D03*
X0096410Y0144520D03*
X0096372Y0144520D03*
X0096334Y0144520D03*
X0096296Y0144520D03*
X0096258Y0144520D03*
X0096220Y0144520D03*
X0096182Y0144520D03*
X0096144Y0144520D03*
X0096106Y0144520D03*
X0096068Y0144520D03*
X0096030Y0144520D03*
X0095992Y0144520D03*
X0095954Y0144520D03*
X0095916Y0144520D03*
X0095878Y0144520D03*
X0095840Y0144520D03*
X0095802Y0144520D03*
X0095764Y0144520D03*
X0095726Y0144520D03*
X0095688Y0144520D03*
X0095650Y0144520D03*
X0095612Y0144520D03*
X0095574Y0144520D03*
X0095536Y0144520D03*
X0095498Y0144520D03*
X0095460Y0144520D03*
X0095422Y0144520D03*
X0095384Y0144520D03*
X0095346Y0144520D03*
X0095308Y0144520D03*
X0095270Y0144520D03*
X0095232Y0144520D03*
X0095194Y0144520D03*
X0095156Y0144520D03*
X0095118Y0144520D03*
X0095080Y0144520D03*
X0095042Y0144520D03*
X0095004Y0144520D03*
X0094966Y0144520D03*
X0094928Y0144520D03*
X0094890Y0144520D03*
X0094852Y0144520D03*
X0094814Y0144520D03*
X0094776Y0144520D03*
X0094738Y0144520D03*
X0094700Y0144520D03*
X0094662Y0144520D03*
X0094624Y0144520D03*
X0094586Y0144520D03*
X0094548Y0144520D03*
X0094510Y0144520D03*
X0094472Y0144520D03*
X0094434Y0144520D03*
X0094396Y0144520D03*
X0094358Y0144520D03*
X0094320Y0144520D03*
X0094282Y0144520D03*
X0094244Y0144520D03*
X0094206Y0144520D03*
X0094168Y0144520D03*
X0094130Y0144520D03*
X0094092Y0144520D03*
X0094054Y0144520D03*
X0094016Y0144520D03*
X0093978Y0144520D03*
X0093940Y0144520D03*
X0093902Y0144520D03*
X0093864Y0144520D03*
X0093826Y0144520D03*
X0093788Y0144520D03*
X0093750Y0144520D03*
X0093712Y0144520D03*
X0093674Y0144520D03*
X0093636Y0144520D03*
X0093598Y0144520D03*
X0093560Y0144520D03*
X0093522Y0144520D03*
X0093484Y0144520D03*
X0093446Y0144520D03*
X0093408Y0144520D03*
X0093370Y0144520D03*
X0093332Y0144520D03*
X0093294Y0144520D03*
X0093256Y0144520D03*
X0093218Y0144520D03*
X0093180Y0144520D03*
X0093142Y0144520D03*
X0093104Y0144520D03*
X0093066Y0144520D03*
X0093028Y0144520D03*
X0092990Y0144520D03*
X0092952Y0144520D03*
X0092914Y0144520D03*
X0092876Y0144520D03*
X0092838Y0144520D03*
X0092800Y0144520D03*
X0092762Y0144520D03*
X0092724Y0144520D03*
X0092686Y0144520D03*
X0092648Y0144520D03*
X0092610Y0144520D03*
X0092572Y0144520D03*
X0092534Y0144520D03*
X0092496Y0144520D03*
X0092458Y0144520D03*
X0092420Y0144520D03*
X0092382Y0144520D03*
X0092344Y0144520D03*
X0092306Y0144520D03*
X0092268Y0144520D03*
X0092230Y0144520D03*
X0092192Y0144520D03*
X0092154Y0144520D03*
X0092116Y0144520D03*
X0092078Y0144520D03*
X0092040Y0144520D03*
X0092002Y0144520D03*
X0091964Y0144520D03*
X0091926Y0144520D03*
X0091888Y0144520D03*
X0093332Y0141176D03*
X0094358Y0141290D03*
X0093256Y0137946D03*
X0093256Y0134640D03*
X0093218Y0134640D03*
X0093180Y0134640D03*
X0093142Y0134640D03*
X0093104Y0134640D03*
X0093066Y0134640D03*
X0093028Y0134640D03*
X0092990Y0134640D03*
X0092952Y0134640D03*
X0092914Y0134640D03*
X0092876Y0134640D03*
X0092838Y0134640D03*
X0092800Y0134640D03*
X0092762Y0134640D03*
X0092724Y0134640D03*
X0092686Y0134640D03*
X0092648Y0134640D03*
X0092610Y0134640D03*
X0092572Y0134640D03*
X0092534Y0134640D03*
X0092496Y0134640D03*
X0092458Y0134640D03*
X0092420Y0134640D03*
X0092382Y0134640D03*
X0092344Y0134640D03*
X0092306Y0134640D03*
X0092268Y0134640D03*
X0092230Y0134640D03*
X0092192Y0134640D03*
X0092154Y0134640D03*
X0092116Y0134640D03*
X0092078Y0134640D03*
X0092040Y0134640D03*
X0092002Y0134640D03*
X0091964Y0134640D03*
X0091926Y0134640D03*
X0091888Y0134640D03*
X0091014Y0134640D03*
X0090976Y0134640D03*
X0090938Y0134640D03*
X0090900Y0134640D03*
X0090862Y0134640D03*
X0090824Y0134640D03*
X0090786Y0134640D03*
X0090748Y0134640D03*
X0090710Y0134640D03*
X0090672Y0134640D03*
X0090634Y0134640D03*
X0090596Y0134640D03*
X0090558Y0134640D03*
X0090520Y0134640D03*
X0090482Y0134640D03*
X0090444Y0134640D03*
X0090406Y0134640D03*
X0090368Y0134640D03*
X0090330Y0134640D03*
X0090292Y0134640D03*
X0090254Y0134640D03*
X0090216Y0134640D03*
X0090178Y0134640D03*
X0090140Y0134640D03*
X0090102Y0134640D03*
X0090064Y0134640D03*
X0090026Y0134640D03*
X0089988Y0134640D03*
X0089950Y0134640D03*
X0089912Y0134640D03*
X0089874Y0134640D03*
X0089836Y0134640D03*
X0089798Y0134640D03*
X0089760Y0134640D03*
X0089722Y0134640D03*
X0089684Y0134640D03*
X0089646Y0134640D03*
X0089608Y0134640D03*
X0089570Y0134640D03*
X0089532Y0134640D03*
X0089494Y0134640D03*
X0089456Y0134640D03*
X0089418Y0134640D03*
X0089380Y0134640D03*
X0089342Y0134640D03*
X0089304Y0134640D03*
X0089266Y0134640D03*
X0089228Y0134640D03*
X0089190Y0134640D03*
X0089152Y0134640D03*
X0089114Y0134640D03*
X0089076Y0134640D03*
X0089038Y0134640D03*
X0089000Y0134640D03*
X0088962Y0134640D03*
X0093294Y0134640D03*
X0093332Y0134640D03*
X0093370Y0134640D03*
X0093408Y0134640D03*
X0093446Y0134640D03*
X0093484Y0134640D03*
X0093522Y0134640D03*
X0093560Y0134640D03*
X0093598Y0134640D03*
X0093636Y0134640D03*
X0093674Y0134640D03*
X0093712Y0134640D03*
X0093750Y0134640D03*
X0093788Y0134640D03*
X0093826Y0134640D03*
X0093864Y0134640D03*
X0093902Y0134640D03*
X0093940Y0134640D03*
X0093978Y0134640D03*
X0094016Y0134640D03*
X0094054Y0134640D03*
X0094092Y0134640D03*
X0094130Y0134640D03*
X0094168Y0134640D03*
X0094206Y0134640D03*
X0094244Y0134640D03*
X0094282Y0134640D03*
X0094320Y0134640D03*
X0094358Y0134640D03*
X0094396Y0134640D03*
X0094434Y0134640D03*
X0094472Y0134640D03*
X0094510Y0134640D03*
X0094548Y0134640D03*
X0094586Y0134640D03*
X0094624Y0134640D03*
X0094662Y0134640D03*
X0094700Y0134640D03*
X0094738Y0134640D03*
X0094776Y0134640D03*
X0094814Y0134640D03*
X0094852Y0134640D03*
X0094890Y0134640D03*
X0094928Y0134640D03*
X0094966Y0134640D03*
X0095004Y0134640D03*
X0095042Y0134640D03*
X0095080Y0134640D03*
X0095118Y0134640D03*
X0095156Y0134640D03*
X0095194Y0134640D03*
X0095232Y0134640D03*
X0095270Y0134640D03*
X0095308Y0134640D03*
X0095346Y0134640D03*
X0095384Y0134640D03*
X0095422Y0134640D03*
X0095460Y0134640D03*
X0095498Y0134640D03*
X0095536Y0134640D03*
X0095574Y0134640D03*
X0095612Y0134640D03*
X0095650Y0134640D03*
X0095688Y0134640D03*
X0095726Y0134640D03*
X0095764Y0134640D03*
X0095802Y0134640D03*
X0095840Y0134640D03*
X0095878Y0134640D03*
X0095916Y0134640D03*
X0095954Y0134640D03*
X0095992Y0134640D03*
X0096030Y0134640D03*
X0096068Y0134640D03*
X0096106Y0134640D03*
X0096144Y0134640D03*
X0096182Y0134640D03*
X0096220Y0134640D03*
X0096258Y0134640D03*
X0096296Y0134640D03*
X0096334Y0134640D03*
X0096372Y0134640D03*
X0096410Y0134640D03*
X0096448Y0134640D03*
X0096486Y0134640D03*
X0096524Y0134640D03*
X0096562Y0134640D03*
X0096600Y0134640D03*
X0096638Y0134640D03*
X0096676Y0134640D03*
X0096714Y0134640D03*
X0096752Y0134640D03*
X0096790Y0134640D03*
X0096828Y0134640D03*
X0096866Y0134640D03*
X0096904Y0134640D03*
X0096942Y0134640D03*
X0096980Y0134640D03*
X0097018Y0134640D03*
X0097056Y0134640D03*
X0097094Y0134640D03*
X0097132Y0134640D03*
X0097170Y0134640D03*
X0097208Y0134640D03*
X0097246Y0134640D03*
X0097284Y0134640D03*
X0097322Y0134640D03*
X0097360Y0134640D03*
X0097398Y0134640D03*
X0097436Y0134640D03*
X0097474Y0134640D03*
X0097512Y0134640D03*
X0097550Y0134640D03*
X0097588Y0134640D03*
X0097626Y0134640D03*
X0097664Y0134640D03*
X0097702Y0134640D03*
X0097740Y0134640D03*
X0097778Y0134640D03*
X0097816Y0134640D03*
X0097854Y0134640D03*
X0097892Y0134640D03*
X0097930Y0134640D03*
X0097968Y0134640D03*
X0098006Y0134640D03*
X0098044Y0134640D03*
X0098082Y0134640D03*
X0098120Y0134640D03*
X0098158Y0134640D03*
X0098196Y0134640D03*
X0098234Y0134640D03*
X0098272Y0134640D03*
X0098310Y0134640D03*
X0098348Y0134640D03*
X0098386Y0134640D03*
X0098424Y0134640D03*
X0098462Y0134640D03*
X0098500Y0134640D03*
X0098538Y0134640D03*
X0098576Y0134640D03*
X0098614Y0134640D03*
X0098652Y0134640D03*
X0098690Y0134640D03*
X0098728Y0134640D03*
X0098766Y0134640D03*
X0098804Y0134640D03*
X0098842Y0134640D03*
X0098880Y0134640D03*
X0098918Y0134640D03*
X0098956Y0134640D03*
X0098994Y0134640D03*
X0099032Y0134640D03*
X0099070Y0134640D03*
X0099108Y0134640D03*
X0099146Y0134640D03*
X0099184Y0134640D03*
X0099222Y0134640D03*
X0099260Y0134640D03*
X0099298Y0134640D03*
X0099336Y0134640D03*
X0099374Y0134640D03*
X0099412Y0134640D03*
X0099450Y0134640D03*
X0099488Y0134640D03*
X0099526Y0134640D03*
X0099564Y0134640D03*
X0099602Y0134640D03*
X0099640Y0134640D03*
X0099678Y0134640D03*
X0099716Y0134640D03*
X0099754Y0134640D03*
X0099792Y0134640D03*
X0099830Y0134640D03*
X0099868Y0134640D03*
X0099906Y0134640D03*
X0099944Y0134640D03*
X0099982Y0134640D03*
X0100020Y0134640D03*
X0100058Y0134640D03*
X0100096Y0134640D03*
X0100134Y0134640D03*
X0100172Y0134640D03*
X0100210Y0134640D03*
X0100248Y0134640D03*
X0100286Y0134640D03*
X0100324Y0134640D03*
X0100362Y0134640D03*
X0100400Y0134640D03*
X0100438Y0134640D03*
X0098880Y0137832D03*
X0098918Y0137870D03*
X0097702Y0137718D03*
X0098842Y0141252D03*
X0097816Y0148358D03*
X0097778Y0148358D03*
X0097740Y0148358D03*
X0097702Y0148358D03*
X0097664Y0148358D03*
X0097626Y0148358D03*
X0097588Y0148358D03*
X0097550Y0148358D03*
X0097512Y0148358D03*
X0097474Y0148358D03*
X0097436Y0148358D03*
X0097398Y0148358D03*
X0097360Y0148358D03*
X0097322Y0148358D03*
X0097284Y0148358D03*
X0097246Y0148358D03*
X0097208Y0148358D03*
X0097170Y0148358D03*
X0097132Y0148358D03*
X0097094Y0148358D03*
X0097056Y0148358D03*
X0097018Y0148358D03*
X0096980Y0148358D03*
X0096942Y0148358D03*
X0096904Y0148358D03*
X0096866Y0148358D03*
X0096828Y0148358D03*
X0096790Y0148358D03*
X0096752Y0148358D03*
X0096714Y0148358D03*
X0096676Y0148358D03*
X0096638Y0148358D03*
X0096600Y0148358D03*
X0096562Y0148358D03*
X0096524Y0148358D03*
X0096486Y0148358D03*
X0096448Y0148358D03*
X0096410Y0148358D03*
X0096372Y0148358D03*
X0096334Y0148358D03*
X0096296Y0148358D03*
X0096258Y0148358D03*
X0096220Y0148358D03*
X0096182Y0148358D03*
X0096144Y0148358D03*
X0096106Y0148358D03*
X0096068Y0148358D03*
X0096030Y0148358D03*
X0095992Y0148358D03*
X0095954Y0148358D03*
X0095916Y0148358D03*
X0095878Y0148358D03*
X0095840Y0148358D03*
X0095802Y0148358D03*
X0095764Y0148358D03*
X0095726Y0148358D03*
X0095688Y0148358D03*
X0095650Y0148358D03*
X0095612Y0148358D03*
X0095574Y0148358D03*
X0095536Y0148358D03*
X0095498Y0148358D03*
X0095460Y0148358D03*
X0095422Y0148358D03*
X0095384Y0148358D03*
X0095346Y0148358D03*
X0095308Y0148358D03*
X0095270Y0148358D03*
X0095232Y0148358D03*
X0095194Y0148358D03*
X0095156Y0148358D03*
X0095118Y0148358D03*
X0095080Y0148358D03*
X0095042Y0148358D03*
X0095004Y0148358D03*
X0094966Y0148358D03*
X0094928Y0148358D03*
X0094890Y0148358D03*
X0094852Y0148358D03*
X0094814Y0148358D03*
X0094776Y0148358D03*
X0094738Y0148358D03*
X0094700Y0148358D03*
X0094662Y0148358D03*
X0094624Y0148358D03*
X0094586Y0148358D03*
X0094548Y0148358D03*
X0094510Y0148358D03*
X0094472Y0148358D03*
X0094434Y0148358D03*
X0094396Y0148358D03*
X0094358Y0148358D03*
X0094320Y0148358D03*
X0094282Y0148358D03*
X0094244Y0148358D03*
X0094206Y0148358D03*
X0094168Y0148358D03*
X0094130Y0148358D03*
X0094092Y0148358D03*
X0094054Y0148358D03*
X0094016Y0148358D03*
X0093978Y0148358D03*
X0093940Y0148358D03*
X0093902Y0148358D03*
X0093864Y0148358D03*
X0093826Y0148358D03*
X0093788Y0148358D03*
X0093750Y0148358D03*
X0093712Y0148358D03*
X0093674Y0148358D03*
X0093636Y0148358D03*
X0093598Y0148358D03*
X0093560Y0148358D03*
X0093522Y0148358D03*
X0093484Y0148358D03*
X0093446Y0148358D03*
X0093408Y0148358D03*
X0093370Y0148358D03*
X0093332Y0148358D03*
X0093294Y0148358D03*
X0093256Y0148358D03*
X0093218Y0148358D03*
X0093180Y0148358D03*
X0093142Y0148358D03*
X0093104Y0148358D03*
X0093066Y0148358D03*
X0093028Y0148358D03*
X0092990Y0148358D03*
X0092952Y0148358D03*
X0092914Y0148358D03*
X0092876Y0148358D03*
X0092838Y0148358D03*
X0092800Y0148358D03*
X0092762Y0148358D03*
X0092724Y0148358D03*
X0092686Y0148358D03*
X0092648Y0148358D03*
X0092610Y0148358D03*
X0092572Y0148358D03*
X0092534Y0148358D03*
X0092496Y0148358D03*
X0092458Y0148358D03*
X0092420Y0148358D03*
X0092382Y0148358D03*
X0092344Y0148358D03*
X0092306Y0148358D03*
X0092268Y0148358D03*
X0092230Y0148358D03*
X0092192Y0148358D03*
X0092154Y0148358D03*
X0092116Y0148358D03*
X0092078Y0148358D03*
X0092040Y0148358D03*
X0092002Y0148358D03*
X0091964Y0148358D03*
X0091926Y0148358D03*
X0091888Y0148358D03*
X0095346Y0151398D03*
X0095384Y0151398D03*
X0095422Y0151398D03*
X0095460Y0151398D03*
X0095498Y0151398D03*
X0095536Y0151398D03*
X0095574Y0151398D03*
X0095612Y0151398D03*
X0095650Y0151398D03*
X0095688Y0151398D03*
X0095726Y0151398D03*
X0095764Y0151398D03*
X0095802Y0151398D03*
X0095840Y0151398D03*
X0095878Y0151398D03*
X0095916Y0151398D03*
X0095954Y0151398D03*
X0095992Y0151398D03*
X0096030Y0151398D03*
X0096068Y0151398D03*
X0096106Y0151398D03*
X0096144Y0151398D03*
X0096182Y0151398D03*
X0096220Y0151398D03*
X0096258Y0151398D03*
X0096296Y0151398D03*
X0096334Y0151398D03*
X0096372Y0151398D03*
X0096410Y0151398D03*
X0096448Y0151398D03*
X0096486Y0151398D03*
X0096524Y0151398D03*
X0096562Y0151398D03*
X0096600Y0151398D03*
X0096638Y0151398D03*
X0096676Y0151398D03*
X0096714Y0151398D03*
X0096752Y0151398D03*
X0101578Y0152462D03*
X0101616Y0152462D03*
X0101654Y0152462D03*
X0101692Y0152462D03*
X0101730Y0152462D03*
X0101768Y0152462D03*
X0101806Y0152462D03*
X0101844Y0152462D03*
X0101882Y0152462D03*
X0101920Y0152462D03*
X0101958Y0152462D03*
X0101996Y0152462D03*
X0102034Y0152462D03*
X0102072Y0152462D03*
X0102110Y0152462D03*
X0102148Y0152462D03*
X0102186Y0152462D03*
X0102224Y0152462D03*
X0102262Y0152462D03*
X0102300Y0152462D03*
X0102338Y0152462D03*
X0102376Y0152462D03*
X0102414Y0152462D03*
X0102452Y0152462D03*
X0102490Y0152462D03*
X0102528Y0152462D03*
X0102566Y0152462D03*
X0102604Y0152462D03*
X0102642Y0152462D03*
X0102680Y0152462D03*
X0102718Y0152462D03*
X0102756Y0152462D03*
X0102794Y0152462D03*
X0102832Y0152462D03*
X0102870Y0152462D03*
X0102908Y0152462D03*
X0102946Y0152462D03*
X0102984Y0152462D03*
X0103022Y0152462D03*
X0103060Y0152462D03*
X0103098Y0152462D03*
X0103136Y0152462D03*
X0103174Y0152462D03*
X0103212Y0152462D03*
X0103250Y0152462D03*
X0103288Y0152462D03*
X0103326Y0152462D03*
X0103364Y0152462D03*
X0103402Y0152462D03*
X0103440Y0152462D03*
X0103478Y0152462D03*
X0103516Y0152462D03*
X0103554Y0152462D03*
X0103592Y0152462D03*
X0103630Y0152462D03*
X0103668Y0152462D03*
X0103706Y0152462D03*
X0103744Y0152462D03*
X0103782Y0152462D03*
X0103820Y0152462D03*
X0103858Y0152462D03*
X0103896Y0152462D03*
X0103934Y0152462D03*
X0103972Y0152462D03*
X0104010Y0152462D03*
X0104048Y0152462D03*
X0104086Y0152462D03*
X0104124Y0152462D03*
X0104162Y0152462D03*
X0104200Y0152462D03*
X0104238Y0152462D03*
X0104276Y0152462D03*
X0104314Y0152462D03*
X0104352Y0152462D03*
X0104390Y0152462D03*
X0104428Y0152462D03*
X0104466Y0152462D03*
X0104504Y0152462D03*
X0104542Y0152462D03*
X0104580Y0152462D03*
X0104618Y0152462D03*
X0104656Y0152462D03*
X0104694Y0152462D03*
X0104732Y0152462D03*
X0104770Y0152462D03*
X0104808Y0152462D03*
X0104846Y0152462D03*
X0104884Y0152462D03*
X0104922Y0152462D03*
X0104960Y0152462D03*
X0104998Y0152462D03*
X0105036Y0152462D03*
X0105074Y0152462D03*
X0105112Y0152462D03*
X0105150Y0152462D03*
X0105188Y0152462D03*
X0105226Y0152462D03*
X0105264Y0152462D03*
X0107278Y0152462D03*
X0107316Y0152462D03*
X0107354Y0152462D03*
X0107392Y0152462D03*
X0107430Y0152462D03*
X0107468Y0152462D03*
X0107506Y0152462D03*
X0107544Y0152462D03*
X0107582Y0152462D03*
X0107620Y0152462D03*
X0107658Y0152462D03*
X0107696Y0152462D03*
X0107734Y0152462D03*
X0107772Y0152462D03*
X0107810Y0152462D03*
X0107848Y0152462D03*
X0107886Y0152462D03*
X0107924Y0152462D03*
X0107962Y0152462D03*
X0108000Y0152462D03*
X0108038Y0152462D03*
X0108076Y0152462D03*
X0108114Y0152462D03*
X0108152Y0152462D03*
X0108190Y0152462D03*
X0108228Y0152462D03*
X0108266Y0152462D03*
X0108304Y0152462D03*
X0108342Y0152462D03*
X0108380Y0152462D03*
X0108418Y0152462D03*
X0108456Y0152462D03*
X0108494Y0152462D03*
X0108532Y0152462D03*
X0108570Y0152462D03*
X0108608Y0152462D03*
X0108646Y0152462D03*
X0108684Y0152462D03*
X0108722Y0152462D03*
X0108760Y0152462D03*
X0108798Y0152462D03*
X0108836Y0152462D03*
X0108874Y0152462D03*
X0108912Y0152462D03*
X0108950Y0152462D03*
X0108988Y0152462D03*
X0109026Y0152462D03*
X0109064Y0152462D03*
X0109102Y0152462D03*
X0109140Y0152462D03*
X0109178Y0152462D03*
X0109216Y0152462D03*
X0109254Y0152462D03*
X0109292Y0152462D03*
X0109330Y0152462D03*
X0109368Y0152462D03*
X0109406Y0152462D03*
X0109444Y0152462D03*
X0109482Y0152462D03*
X0109520Y0152462D03*
X0109558Y0152462D03*
X0109596Y0152462D03*
X0109634Y0152462D03*
X0109672Y0152462D03*
X0109710Y0152462D03*
X0109748Y0152462D03*
X0109786Y0152462D03*
X0109824Y0152462D03*
X0109862Y0152462D03*
X0109900Y0152462D03*
X0109938Y0152462D03*
X0109976Y0152462D03*
X0110014Y0152462D03*
X0110052Y0152462D03*
X0110090Y0152462D03*
X0110128Y0152462D03*
X0110166Y0152462D03*
X0110204Y0152462D03*
X0110242Y0152462D03*
X0110280Y0152462D03*
X0110318Y0152462D03*
X0110356Y0152462D03*
X0110394Y0152462D03*
X0110432Y0152462D03*
X0110470Y0152462D03*
X0110508Y0152462D03*
X0110546Y0152462D03*
X0110584Y0152462D03*
X0110622Y0152462D03*
X0110660Y0152462D03*
X0110698Y0152462D03*
X0110736Y0152462D03*
X0110774Y0152462D03*
X0110812Y0152462D03*
X0110850Y0152462D03*
X0110888Y0152462D03*
X0110926Y0152462D03*
X0110964Y0152462D03*
X0111002Y0152462D03*
X0111040Y0152462D03*
X0111078Y0152462D03*
X0111116Y0152462D03*
X0111154Y0152462D03*
X0111192Y0152462D03*
X0111230Y0152462D03*
X0111268Y0152462D03*
X0111306Y0152462D03*
X0111344Y0152462D03*
X0111382Y0152462D03*
X0111420Y0152462D03*
X0111458Y0152462D03*
X0111496Y0152462D03*
X0111534Y0152462D03*
X0111572Y0152462D03*
X0111610Y0152462D03*
X0111648Y0152462D03*
X0111686Y0152462D03*
X0111724Y0152462D03*
X0111762Y0152462D03*
X0111800Y0152462D03*
X0111838Y0152462D03*
X0111876Y0152462D03*
X0111914Y0152462D03*
X0111952Y0152462D03*
X0111990Y0152462D03*
X0112028Y0152462D03*
X0112066Y0152462D03*
X0112104Y0152462D03*
X0112142Y0152462D03*
X0112180Y0152462D03*
X0112218Y0152462D03*
X0112256Y0152462D03*
X0112294Y0152462D03*
X0112332Y0152462D03*
X0112370Y0152462D03*
X0112408Y0152462D03*
X0112446Y0152462D03*
X0112484Y0152462D03*
X0112522Y0152462D03*
X0112560Y0152462D03*
X0112598Y0152462D03*
X0112636Y0152462D03*
X0112674Y0152462D03*
X0112712Y0152462D03*
X0112750Y0152462D03*
X0112788Y0152462D03*
X0112826Y0152462D03*
X0112864Y0152462D03*
X0112902Y0152462D03*
X0112940Y0152462D03*
X0112978Y0152462D03*
X0118792Y0148282D03*
X0118868Y0148320D03*
X0118906Y0148320D03*
X0119020Y0148358D03*
X0119058Y0148358D03*
X0119172Y0148396D03*
X0119210Y0148396D03*
X0119248Y0148396D03*
X0119400Y0148434D03*
X0119438Y0148434D03*
X0119476Y0148434D03*
X0119514Y0148434D03*
X0119552Y0148434D03*
X0119628Y0148472D03*
X0119666Y0148472D03*
X0119704Y0148472D03*
X0119742Y0148472D03*
X0119780Y0148472D03*
X0119818Y0148472D03*
X0119856Y0148472D03*
X0119894Y0148472D03*
X0119932Y0148472D03*
X0120198Y0148510D03*
X0120236Y0148510D03*
X0120274Y0148510D03*
X0120312Y0148510D03*
X0120350Y0148510D03*
X0120388Y0148510D03*
X0120426Y0148510D03*
X0120464Y0148510D03*
X0122060Y0148510D03*
X0122098Y0148510D03*
X0122136Y0148510D03*
X0122174Y0148510D03*
X0122212Y0148510D03*
X0122250Y0148510D03*
X0122288Y0148510D03*
X0122326Y0148510D03*
X0122554Y0148472D03*
X0122592Y0148472D03*
X0122630Y0148472D03*
X0122668Y0148472D03*
X0122706Y0148472D03*
X0122744Y0148472D03*
X0122782Y0148472D03*
X0122820Y0148472D03*
X0122858Y0148472D03*
X0122934Y0148434D03*
X0122972Y0148434D03*
X0123010Y0148434D03*
X0123048Y0148434D03*
X0123086Y0148434D03*
X0123124Y0148434D03*
X0123276Y0148396D03*
X0123314Y0148396D03*
X0123466Y0148358D03*
X0123504Y0148358D03*
X0123580Y0148320D03*
X0123618Y0148320D03*
X0123694Y0148282D03*
X0121832Y0151398D03*
X0121794Y0151398D03*
X0121756Y0151398D03*
X0121718Y0151398D03*
X0121680Y0151398D03*
X0121642Y0151398D03*
X0121604Y0151398D03*
X0121566Y0151398D03*
X0121528Y0151398D03*
X0121490Y0151398D03*
X0121452Y0151398D03*
X0121414Y0151398D03*
X0121376Y0151398D03*
X0121338Y0151398D03*
X0121300Y0151398D03*
X0121262Y0151398D03*
X0121224Y0151398D03*
X0121186Y0151398D03*
X0121148Y0151398D03*
X0121110Y0151398D03*
X0121072Y0151398D03*
X0121034Y0151398D03*
X0120996Y0151398D03*
X0120958Y0151398D03*
X0120920Y0151398D03*
X0120882Y0151398D03*
X0120844Y0151398D03*
X0120806Y0151398D03*
X0120768Y0151398D03*
X0120730Y0151398D03*
X0120692Y0151398D03*
X0120654Y0151398D03*
X0120616Y0151398D03*
X0120578Y0151398D03*
X0120540Y0151398D03*
X0120502Y0151398D03*
X0120464Y0151398D03*
X0120426Y0151398D03*
X0118792Y0144824D03*
X0118868Y0144786D03*
X0118906Y0144786D03*
X0118982Y0144748D03*
X0119020Y0144748D03*
X0119172Y0144710D03*
X0119210Y0144710D03*
X0119362Y0144672D03*
X0119400Y0144672D03*
X0119438Y0144672D03*
X0119476Y0144672D03*
X0119514Y0144672D03*
X0119628Y0144634D03*
X0119666Y0144634D03*
X0119704Y0144634D03*
X0119742Y0144634D03*
X0119780Y0144634D03*
X0119818Y0144634D03*
X0119856Y0144634D03*
X0119894Y0144634D03*
X0119932Y0144634D03*
X0120160Y0144596D03*
X0120198Y0144596D03*
X0120236Y0144596D03*
X0120274Y0144596D03*
X0120312Y0144596D03*
X0120350Y0144596D03*
X0120388Y0144596D03*
X0120426Y0144596D03*
X0120464Y0144596D03*
X0122022Y0144596D03*
X0122060Y0144596D03*
X0122098Y0144596D03*
X0122136Y0144596D03*
X0122174Y0144596D03*
X0122212Y0144596D03*
X0122250Y0144596D03*
X0122288Y0144596D03*
X0122326Y0144596D03*
X0122554Y0144634D03*
X0122592Y0144634D03*
X0122630Y0144634D03*
X0122668Y0144634D03*
X0122706Y0144634D03*
X0122744Y0144634D03*
X0122782Y0144634D03*
X0122820Y0144634D03*
X0122858Y0144634D03*
X0122972Y0144672D03*
X0123010Y0144672D03*
X0123048Y0144672D03*
X0123086Y0144672D03*
X0123124Y0144672D03*
X0123276Y0144710D03*
X0123314Y0144710D03*
X0123466Y0144748D03*
X0123504Y0144748D03*
X0123580Y0144786D03*
X0123618Y0144786D03*
X0123694Y0144824D03*
X0120388Y0141898D03*
X0117120Y0140986D03*
X0117120Y0138022D03*
X0117082Y0138022D03*
X0117044Y0138022D03*
X0117006Y0138022D03*
X0116968Y0138022D03*
X0116930Y0138022D03*
X0116892Y0138022D03*
X0116854Y0138022D03*
X0116816Y0138022D03*
X0116778Y0138022D03*
X0116740Y0138022D03*
X0116702Y0138022D03*
X0116664Y0138022D03*
X0116626Y0138022D03*
X0116588Y0138022D03*
X0116550Y0138022D03*
X0116512Y0138022D03*
X0116474Y0138022D03*
X0116436Y0138022D03*
X0116398Y0138022D03*
X0116360Y0138022D03*
X0116322Y0138022D03*
X0116284Y0138022D03*
X0116246Y0138022D03*
X0116208Y0138022D03*
X0116170Y0138022D03*
X0116132Y0138022D03*
X0116094Y0138022D03*
X0116056Y0138022D03*
X0116018Y0138022D03*
X0115980Y0138022D03*
X0115942Y0138022D03*
X0115904Y0138022D03*
X0115866Y0138022D03*
X0115828Y0138022D03*
X0115790Y0138022D03*
X0115752Y0138022D03*
X0115714Y0138022D03*
X0115676Y0138022D03*
X0115638Y0138022D03*
X0115600Y0138022D03*
X0115562Y0138022D03*
X0115524Y0138022D03*
X0115486Y0138022D03*
X0115448Y0138022D03*
X0115410Y0138022D03*
X0115372Y0138022D03*
X0115334Y0138022D03*
X0115296Y0138022D03*
X0115258Y0138022D03*
X0115220Y0138022D03*
X0115182Y0138022D03*
X0115144Y0138022D03*
X0115106Y0138022D03*
X0115068Y0138022D03*
X0115030Y0138022D03*
X0114992Y0138022D03*
X0114954Y0138022D03*
X0114916Y0138022D03*
X0114878Y0138022D03*
X0114840Y0138022D03*
X0114802Y0138022D03*
X0114764Y0138022D03*
X0114726Y0138022D03*
X0114688Y0138022D03*
X0114650Y0138022D03*
X0114612Y0138022D03*
X0114574Y0138022D03*
X0114536Y0138022D03*
X0114498Y0138022D03*
X0114460Y0138022D03*
X0114422Y0138022D03*
X0114384Y0138022D03*
X0114346Y0138022D03*
X0114308Y0138022D03*
X0114270Y0138022D03*
X0114232Y0138022D03*
X0114194Y0138022D03*
X0114156Y0138022D03*
X0114118Y0138022D03*
X0112978Y0137718D03*
X0112940Y0137718D03*
X0112902Y0137718D03*
X0112864Y0137718D03*
X0112826Y0137718D03*
X0112788Y0137718D03*
X0112750Y0137718D03*
X0112712Y0137718D03*
X0112674Y0137718D03*
X0112636Y0137718D03*
X0112598Y0137718D03*
X0112560Y0137718D03*
X0112522Y0137718D03*
X0112484Y0137718D03*
X0112446Y0137718D03*
X0112408Y0137718D03*
X0112370Y0137718D03*
X0112332Y0137718D03*
X0112294Y0137718D03*
X0112256Y0137718D03*
X0112218Y0137718D03*
X0112180Y0137718D03*
X0112142Y0137718D03*
X0112104Y0137718D03*
X0112066Y0137718D03*
X0112028Y0137718D03*
X0111990Y0137718D03*
X0111952Y0137718D03*
X0111914Y0137718D03*
X0111876Y0137718D03*
X0111838Y0137718D03*
X0111800Y0137718D03*
X0111762Y0137718D03*
X0111724Y0137718D03*
X0111686Y0137718D03*
X0111648Y0137718D03*
X0111610Y0137718D03*
X0111572Y0137718D03*
X0111534Y0137718D03*
X0111496Y0137718D03*
X0111458Y0137718D03*
X0111420Y0137718D03*
X0111382Y0137718D03*
X0111344Y0137718D03*
X0111306Y0137718D03*
X0111268Y0137718D03*
X0111230Y0137718D03*
X0111192Y0137718D03*
X0111154Y0137718D03*
X0111116Y0137718D03*
X0111078Y0137718D03*
X0111040Y0137718D03*
X0111002Y0137718D03*
X0110964Y0137718D03*
X0110926Y0137718D03*
X0110888Y0137718D03*
X0110850Y0137718D03*
X0110812Y0137718D03*
X0110774Y0137718D03*
X0110736Y0137718D03*
X0110698Y0137718D03*
X0110660Y0137718D03*
X0110622Y0137718D03*
X0110584Y0137718D03*
X0110546Y0137718D03*
X0110508Y0137718D03*
X0110470Y0137718D03*
X0110432Y0137718D03*
X0110394Y0137718D03*
X0110356Y0137718D03*
X0110318Y0137718D03*
X0110280Y0137718D03*
X0110242Y0137718D03*
X0110204Y0137718D03*
X0110166Y0137718D03*
X0110128Y0137718D03*
X0110090Y0137718D03*
X0110052Y0137718D03*
X0110014Y0137718D03*
X0109976Y0137718D03*
X0109938Y0137718D03*
X0109900Y0137718D03*
X0109862Y0137718D03*
X0109824Y0137718D03*
X0109786Y0137718D03*
X0109748Y0137718D03*
X0109710Y0137718D03*
X0109672Y0137718D03*
X0109634Y0137718D03*
X0109596Y0137718D03*
X0109558Y0137718D03*
X0109520Y0137718D03*
X0109482Y0137718D03*
X0109444Y0137718D03*
X0109406Y0137718D03*
X0109368Y0137718D03*
X0109330Y0137718D03*
X0109292Y0137718D03*
X0109254Y0137718D03*
X0109216Y0137718D03*
X0109178Y0137718D03*
X0109140Y0137718D03*
X0109102Y0137718D03*
X0109064Y0137718D03*
X0109026Y0137718D03*
X0108988Y0137718D03*
X0108950Y0137718D03*
X0108912Y0137718D03*
X0108874Y0137718D03*
X0108836Y0137718D03*
X0108798Y0137718D03*
X0108760Y0137718D03*
X0108722Y0137718D03*
X0108684Y0137718D03*
X0108646Y0137718D03*
X0108608Y0137718D03*
X0108570Y0137718D03*
X0108532Y0137718D03*
X0108494Y0137718D03*
X0108456Y0137718D03*
X0108418Y0137718D03*
X0108380Y0137718D03*
X0108342Y0137718D03*
X0108304Y0137718D03*
X0108266Y0137718D03*
X0108228Y0137718D03*
X0108190Y0137718D03*
X0108152Y0137718D03*
X0108114Y0137718D03*
X0108076Y0137718D03*
X0108038Y0137718D03*
X0108000Y0137718D03*
X0107962Y0137718D03*
X0107924Y0137718D03*
X0107886Y0137718D03*
X0107848Y0137718D03*
X0107810Y0137718D03*
X0107772Y0137718D03*
X0107734Y0137718D03*
X0107696Y0137718D03*
X0107658Y0137718D03*
X0107620Y0137718D03*
X0107582Y0137718D03*
X0107544Y0137718D03*
X0107506Y0137718D03*
X0107468Y0137718D03*
X0107430Y0137718D03*
X0107392Y0137718D03*
X0107354Y0137718D03*
X0107316Y0137718D03*
X0107278Y0137718D03*
X0107240Y0137718D03*
X0107202Y0137718D03*
X0107164Y0137718D03*
X0107126Y0137718D03*
X0107088Y0137718D03*
X0107050Y0137718D03*
X0107050Y0134678D03*
X0107012Y0134678D03*
X0106974Y0134678D03*
X0106898Y0134640D03*
X0106860Y0134640D03*
X0106822Y0134640D03*
X0106784Y0134640D03*
X0107088Y0134678D03*
X0107126Y0134678D03*
X0107164Y0134678D03*
X0107696Y0134716D03*
X0107734Y0134716D03*
X0107772Y0134716D03*
X0107810Y0134716D03*
X0107848Y0134716D03*
X0107886Y0134716D03*
X0107924Y0134716D03*
X0107962Y0134716D03*
X0108000Y0134716D03*
X0108038Y0134716D03*
X0108076Y0134716D03*
X0108114Y0134716D03*
X0108152Y0134716D03*
X0108190Y0134716D03*
X0108228Y0134716D03*
X0108266Y0134716D03*
X0108304Y0134716D03*
X0108342Y0134716D03*
X0108380Y0134716D03*
X0108418Y0134716D03*
X0108456Y0134716D03*
X0108494Y0134716D03*
X0108532Y0134716D03*
X0108570Y0134716D03*
X0108608Y0134716D03*
X0108646Y0134716D03*
X0108684Y0134716D03*
X0108722Y0134716D03*
X0108760Y0134716D03*
X0108798Y0134716D03*
X0108836Y0134716D03*
X0108874Y0134716D03*
X0108912Y0134716D03*
X0108950Y0134716D03*
X0108988Y0134716D03*
X0109026Y0134716D03*
X0109064Y0134716D03*
X0109102Y0134716D03*
X0109140Y0134716D03*
X0109178Y0134716D03*
X0109216Y0134716D03*
X0109216Y0130802D03*
X0109178Y0130802D03*
X0109140Y0130802D03*
X0109102Y0130802D03*
X0109064Y0130802D03*
X0109026Y0130802D03*
X0108988Y0130802D03*
X0108950Y0130802D03*
X0108912Y0130802D03*
X0108874Y0130802D03*
X0108836Y0130802D03*
X0108798Y0130802D03*
X0108760Y0130802D03*
X0108722Y0130802D03*
X0108684Y0130802D03*
X0108646Y0130802D03*
X0108608Y0130802D03*
X0108570Y0130802D03*
X0108532Y0130802D03*
X0108494Y0130802D03*
X0108456Y0130802D03*
X0108418Y0130802D03*
X0108380Y0130802D03*
X0108342Y0130802D03*
X0108304Y0130802D03*
X0108266Y0130802D03*
X0108228Y0130802D03*
X0108190Y0130802D03*
X0108152Y0130802D03*
X0108114Y0130802D03*
X0108076Y0130802D03*
X0108038Y0130802D03*
X0108000Y0130802D03*
X0107962Y0130802D03*
X0107924Y0130802D03*
X0107886Y0130802D03*
X0107848Y0130802D03*
X0107810Y0130802D03*
X0107772Y0130802D03*
X0107734Y0130802D03*
X0107696Y0130802D03*
X0107658Y0130802D03*
X0107620Y0130802D03*
X0107582Y0130802D03*
X0107544Y0130802D03*
X0109254Y0130802D03*
X0109292Y0130802D03*
X0109330Y0130802D03*
X0109368Y0130802D03*
X0109406Y0130802D03*
X0109444Y0130802D03*
X0111914Y0130802D03*
X0111952Y0130802D03*
X0111990Y0130802D03*
X0112028Y0130802D03*
X0112066Y0130802D03*
X0112104Y0130802D03*
X0112142Y0130802D03*
X0112180Y0130802D03*
X0112218Y0130802D03*
X0112256Y0130802D03*
X0112294Y0130802D03*
X0112332Y0130802D03*
X0112370Y0130802D03*
X0112408Y0130802D03*
X0112446Y0130802D03*
X0112484Y0130802D03*
X0112522Y0130802D03*
X0112560Y0130802D03*
X0112598Y0130802D03*
X0112636Y0130802D03*
X0112674Y0130802D03*
X0112712Y0130802D03*
X0112750Y0130802D03*
X0112788Y0130802D03*
X0112826Y0130802D03*
X0112864Y0130802D03*
X0112902Y0130802D03*
X0113396Y0130840D03*
X0113662Y0130878D03*
X0113814Y0130916D03*
X0113852Y0130916D03*
X0113928Y0130954D03*
X0113966Y0130954D03*
X0116968Y0131258D03*
X0117006Y0131258D03*
X0117044Y0131258D03*
X0117082Y0131258D03*
X0117120Y0131258D03*
X0117158Y0131258D03*
X0117196Y0131258D03*
X0117234Y0131258D03*
X0117272Y0131258D03*
X0117310Y0131258D03*
X0117348Y0131258D03*
X0117386Y0131258D03*
X0117424Y0131258D03*
X0117462Y0131258D03*
X0117500Y0131258D03*
X0117538Y0131258D03*
X0117576Y0131258D03*
X0117614Y0131258D03*
X0117652Y0131258D03*
X0117690Y0131258D03*
X0117728Y0131258D03*
X0117766Y0131258D03*
X0117804Y0131258D03*
X0117842Y0131258D03*
X0117880Y0131258D03*
X0117918Y0131258D03*
X0117956Y0131258D03*
X0117994Y0131258D03*
X0118032Y0131258D03*
X0118070Y0131258D03*
X0118108Y0131258D03*
X0118146Y0131258D03*
X0118184Y0131258D03*
X0118222Y0131258D03*
X0118260Y0131258D03*
X0118298Y0131258D03*
X0118336Y0131258D03*
X0118374Y0131258D03*
X0118412Y0131258D03*
X0118450Y0131258D03*
X0118488Y0131258D03*
X0118526Y0131258D03*
X0118564Y0131258D03*
X0118602Y0131258D03*
X0118640Y0131258D03*
X0118678Y0131258D03*
X0118716Y0131258D03*
X0118754Y0131258D03*
X0118792Y0131258D03*
X0118830Y0131258D03*
X0118868Y0131258D03*
X0118906Y0131258D03*
X0118944Y0131258D03*
X0118982Y0131258D03*
X0119020Y0131258D03*
X0119058Y0131258D03*
X0119096Y0131258D03*
X0119134Y0131258D03*
X0119172Y0131258D03*
X0119210Y0131258D03*
X0119248Y0131258D03*
X0119286Y0131258D03*
X0119324Y0131258D03*
X0119362Y0131258D03*
X0119400Y0131258D03*
X0119438Y0131258D03*
X0119476Y0131258D03*
X0119514Y0131258D03*
X0119552Y0131258D03*
X0119590Y0131258D03*
X0119628Y0131258D03*
X0119666Y0131258D03*
X0119704Y0131258D03*
X0119742Y0131258D03*
X0119780Y0131258D03*
X0119818Y0131258D03*
X0119856Y0131258D03*
X0119894Y0131258D03*
X0119932Y0131258D03*
X0119970Y0131258D03*
X0120008Y0131258D03*
X0120046Y0131258D03*
X0120084Y0131258D03*
X0120122Y0131258D03*
X0120160Y0131258D03*
X0120198Y0131258D03*
X0120236Y0131258D03*
X0120274Y0131258D03*
X0120312Y0131258D03*
X0120350Y0131258D03*
X0120388Y0131258D03*
X0120426Y0131258D03*
X0120464Y0131258D03*
X0120502Y0131258D03*
X0120540Y0131258D03*
X0120578Y0131258D03*
X0120616Y0131258D03*
X0120654Y0131258D03*
X0120692Y0131258D03*
X0120730Y0131258D03*
X0120768Y0131258D03*
X0120806Y0131258D03*
X0120844Y0131258D03*
X0120882Y0131258D03*
X0120920Y0131258D03*
X0120958Y0131258D03*
X0120996Y0131258D03*
X0121034Y0131258D03*
X0121072Y0131258D03*
X0121110Y0131258D03*
X0121148Y0131258D03*
X0121186Y0131258D03*
X0121224Y0131258D03*
X0121262Y0131258D03*
X0121300Y0131258D03*
X0121338Y0131258D03*
X0121376Y0131258D03*
X0121414Y0131258D03*
X0121452Y0131258D03*
X0121490Y0131258D03*
X0121528Y0131258D03*
X0121566Y0131258D03*
X0121604Y0131258D03*
X0121642Y0131258D03*
X0121680Y0131258D03*
X0121718Y0131258D03*
X0121756Y0131258D03*
X0121794Y0131258D03*
X0121832Y0131258D03*
X0121870Y0131258D03*
X0121908Y0131258D03*
X0121946Y0131258D03*
X0121984Y0131258D03*
X0122022Y0131258D03*
X0122060Y0131258D03*
X0122098Y0131258D03*
X0122136Y0131258D03*
X0122174Y0131258D03*
X0122212Y0131258D03*
X0122250Y0131258D03*
X0122288Y0131258D03*
X0122326Y0131258D03*
X0122364Y0131258D03*
X0122402Y0131258D03*
X0122440Y0131258D03*
X0122478Y0131258D03*
X0122516Y0131258D03*
X0122554Y0131258D03*
X0122592Y0131258D03*
X0122630Y0131258D03*
X0122630Y0127914D03*
X0122592Y0127914D03*
X0122554Y0127914D03*
X0122516Y0127914D03*
X0122478Y0127914D03*
X0122440Y0127914D03*
X0122402Y0127914D03*
X0122364Y0127914D03*
X0122326Y0127914D03*
X0122288Y0127914D03*
X0122250Y0127914D03*
X0122212Y0127914D03*
X0122174Y0127914D03*
X0122136Y0127914D03*
X0122098Y0127914D03*
X0122060Y0127914D03*
X0122022Y0127914D03*
X0121984Y0127914D03*
X0121946Y0127914D03*
X0121908Y0127914D03*
X0121870Y0127914D03*
X0121832Y0127914D03*
X0121794Y0127914D03*
X0121756Y0127914D03*
X0121718Y0127914D03*
X0121680Y0127914D03*
X0121642Y0127914D03*
X0121604Y0127914D03*
X0121566Y0127914D03*
X0121528Y0127914D03*
X0121490Y0127914D03*
X0121452Y0127914D03*
X0121414Y0127914D03*
X0121376Y0127914D03*
X0121338Y0127914D03*
X0121300Y0127914D03*
X0121262Y0127914D03*
X0121224Y0127914D03*
X0121186Y0127914D03*
X0121148Y0127914D03*
X0121110Y0127914D03*
X0121072Y0127914D03*
X0121034Y0127914D03*
X0120996Y0127914D03*
X0120958Y0127914D03*
X0120920Y0127914D03*
X0120882Y0127914D03*
X0120844Y0127914D03*
X0120806Y0127914D03*
X0120768Y0127914D03*
X0120730Y0127914D03*
X0120692Y0127914D03*
X0120654Y0127914D03*
X0120616Y0127914D03*
X0120578Y0127914D03*
X0120540Y0127914D03*
X0120502Y0127914D03*
X0120464Y0127914D03*
X0120426Y0127914D03*
X0120388Y0127914D03*
X0120350Y0127914D03*
X0120312Y0127914D03*
X0120274Y0127914D03*
X0120236Y0127914D03*
X0120198Y0127914D03*
X0120160Y0127914D03*
X0120122Y0127914D03*
X0120084Y0127914D03*
X0120046Y0127914D03*
X0120008Y0127914D03*
X0119970Y0127914D03*
X0119932Y0127914D03*
X0119894Y0127914D03*
X0119856Y0127914D03*
X0119818Y0127914D03*
X0119780Y0127914D03*
X0119742Y0127914D03*
X0119704Y0127914D03*
X0119666Y0127914D03*
X0119628Y0127914D03*
X0119590Y0127914D03*
X0119552Y0127914D03*
X0119514Y0127914D03*
X0119476Y0127914D03*
X0119438Y0127914D03*
X0119400Y0127914D03*
X0119362Y0127914D03*
X0119324Y0127914D03*
X0119286Y0127914D03*
X0119248Y0127914D03*
X0119210Y0127914D03*
X0119172Y0127914D03*
X0119134Y0127914D03*
X0119096Y0127914D03*
X0119058Y0127914D03*
X0119020Y0127914D03*
X0118982Y0127914D03*
X0118944Y0127914D03*
X0118906Y0127914D03*
X0118868Y0127914D03*
X0118830Y0127914D03*
X0118792Y0127914D03*
X0118754Y0127914D03*
X0118716Y0127914D03*
X0118678Y0127914D03*
X0118640Y0127914D03*
X0118602Y0127914D03*
X0118564Y0127914D03*
X0118526Y0127914D03*
X0118488Y0127914D03*
X0118450Y0127914D03*
X0118412Y0127914D03*
X0118374Y0127914D03*
X0118336Y0127914D03*
X0118298Y0127914D03*
X0118260Y0127914D03*
X0118222Y0127914D03*
X0118184Y0127914D03*
X0118146Y0127914D03*
X0118108Y0127914D03*
X0118070Y0127914D03*
X0118032Y0127914D03*
X0117994Y0127914D03*
X0117956Y0127914D03*
X0117918Y0127914D03*
X0117880Y0127914D03*
X0117842Y0127914D03*
X0117804Y0127914D03*
X0117766Y0127914D03*
X0117728Y0127914D03*
X0117690Y0127914D03*
X0117652Y0127914D03*
X0117614Y0127914D03*
X0117576Y0127914D03*
X0117538Y0127914D03*
X0117500Y0127914D03*
X0117462Y0127914D03*
X0117424Y0127914D03*
X0117386Y0127914D03*
X0117348Y0127914D03*
X0117310Y0127914D03*
X0117272Y0127914D03*
X0117234Y0127914D03*
X0117196Y0127914D03*
X0117158Y0127914D03*
X0117120Y0127914D03*
X0117082Y0127914D03*
X0117044Y0127914D03*
X0117006Y0127914D03*
X0116968Y0127914D03*
X0116930Y0127914D03*
X0116892Y0127914D03*
X0116854Y0127914D03*
X0116816Y0127914D03*
X0116778Y0127914D03*
X0116740Y0127914D03*
X0116702Y0127914D03*
X0116664Y0127914D03*
X0116626Y0127914D03*
X0116588Y0127914D03*
X0116550Y0127914D03*
X0116512Y0127914D03*
X0116474Y0127914D03*
X0116436Y0127914D03*
X0116398Y0127914D03*
X0116360Y0127914D03*
X0116322Y0127914D03*
X0116284Y0127914D03*
X0116246Y0127914D03*
X0116208Y0127914D03*
X0116170Y0127914D03*
X0116132Y0127914D03*
X0116094Y0127914D03*
X0116056Y0127914D03*
X0116018Y0127914D03*
X0115980Y0127914D03*
X0115942Y0127914D03*
X0115904Y0127914D03*
X0115866Y0127914D03*
X0115828Y0127914D03*
X0115790Y0127914D03*
X0115752Y0127914D03*
X0115714Y0127914D03*
X0115676Y0127914D03*
X0115638Y0127914D03*
X0115600Y0127914D03*
X0115562Y0127914D03*
X0115524Y0127914D03*
X0115486Y0127914D03*
X0115448Y0127914D03*
X0115410Y0127914D03*
X0115372Y0127914D03*
X0115334Y0127914D03*
X0115296Y0127914D03*
X0115258Y0127914D03*
X0115220Y0127914D03*
X0115182Y0127914D03*
X0115144Y0127914D03*
X0115106Y0127914D03*
X0115068Y0127914D03*
X0115030Y0127914D03*
X0114992Y0127914D03*
X0114954Y0127914D03*
X0114916Y0127914D03*
X0114878Y0127914D03*
X0114840Y0127914D03*
X0114802Y0127914D03*
X0114764Y0127914D03*
X0114726Y0127914D03*
X0114688Y0127914D03*
X0114650Y0127914D03*
X0114612Y0127914D03*
X0114574Y0127914D03*
X0114536Y0127914D03*
X0114498Y0127914D03*
X0114460Y0127914D03*
X0114422Y0127914D03*
X0114384Y0127914D03*
X0114346Y0127914D03*
X0114308Y0127914D03*
X0114270Y0127914D03*
X0114232Y0127914D03*
X0114194Y0127914D03*
X0114156Y0127914D03*
X0114118Y0127914D03*
X0119058Y0124722D03*
X0119096Y0124722D03*
X0119134Y0124722D03*
X0119172Y0124722D03*
X0119248Y0124760D03*
X0119286Y0124760D03*
X0119324Y0124760D03*
X0119362Y0124760D03*
X0119400Y0124760D03*
X0119438Y0124760D03*
X0119476Y0124760D03*
X0119514Y0124760D03*
X0119552Y0124760D03*
X0119590Y0124760D03*
X0122440Y0124874D03*
X0122478Y0124874D03*
X0122516Y0124912D03*
X0122554Y0124912D03*
X0122592Y0124912D03*
X0122706Y0124950D03*
X0122744Y0124950D03*
X0122934Y0124988D03*
X0122972Y0124988D03*
X0123010Y0124988D03*
X0123048Y0124988D03*
X0123086Y0124988D03*
X0123124Y0124988D03*
X0123162Y0124988D03*
X0123200Y0124988D03*
X0123238Y0124988D03*
X0123238Y0127914D03*
X0123200Y0127914D03*
X0123162Y0127914D03*
X0123124Y0127914D03*
X0123086Y0127914D03*
X0123048Y0127914D03*
X0123010Y0127914D03*
X0122972Y0127914D03*
X0122934Y0127914D03*
X0122896Y0127914D03*
X0122858Y0127914D03*
X0122820Y0127914D03*
X0122782Y0127914D03*
X0122744Y0127914D03*
X0122706Y0127914D03*
X0122668Y0127914D03*
X0123276Y0127914D03*
X0123314Y0127914D03*
X0123352Y0127914D03*
X0123390Y0127914D03*
X0123428Y0127914D03*
X0123466Y0127914D03*
X0123504Y0127914D03*
X0123542Y0127914D03*
X0123580Y0127914D03*
X0123618Y0127914D03*
X0123656Y0127914D03*
X0123694Y0127914D03*
X0123732Y0127914D03*
X0123770Y0127914D03*
X0123808Y0127914D03*
X0123846Y0127914D03*
X0123884Y0127914D03*
X0123922Y0127914D03*
X0123960Y0127914D03*
X0123998Y0127914D03*
X0124036Y0127914D03*
X0124074Y0127914D03*
X0124112Y0127914D03*
X0124150Y0127914D03*
X0124188Y0127914D03*
X0124226Y0127914D03*
X0124264Y0127914D03*
X0124302Y0127914D03*
X0124340Y0127914D03*
X0124378Y0127914D03*
X0124416Y0127914D03*
X0124454Y0127914D03*
X0124492Y0127914D03*
X0124530Y0127914D03*
X0124568Y0127914D03*
X0124606Y0127914D03*
X0124644Y0127914D03*
X0124682Y0127914D03*
X0124720Y0127914D03*
X0124758Y0127914D03*
X0124796Y0127914D03*
X0124834Y0127914D03*
X0124872Y0127914D03*
X0124910Y0127914D03*
X0124948Y0127914D03*
X0124986Y0127914D03*
X0125024Y0127914D03*
X0125062Y0127914D03*
X0125100Y0127914D03*
X0125138Y0127914D03*
X0125176Y0127914D03*
X0125214Y0127914D03*
X0125252Y0127914D03*
X0125290Y0127914D03*
X0125328Y0127914D03*
X0125366Y0127914D03*
X0125404Y0127914D03*
X0125442Y0127914D03*
X0125480Y0127914D03*
X0125518Y0127914D03*
X0124834Y0120618D03*
X0124796Y0120618D03*
X0125024Y0120580D03*
X0125024Y0117502D03*
X0124986Y0117502D03*
X0124948Y0117502D03*
X0124910Y0117502D03*
X0124872Y0117502D03*
X0124834Y0117502D03*
X0124796Y0117502D03*
X0124758Y0117502D03*
X0124720Y0117502D03*
X0124682Y0117502D03*
X0124644Y0117502D03*
X0124606Y0117502D03*
X0124568Y0117502D03*
X0124530Y0117502D03*
X0124492Y0117502D03*
X0124454Y0117502D03*
X0124416Y0117502D03*
X0124378Y0117502D03*
X0124340Y0117502D03*
X0124302Y0117502D03*
X0124264Y0117502D03*
X0124226Y0117502D03*
X0124188Y0117502D03*
X0124150Y0117502D03*
X0124112Y0117502D03*
X0124074Y0117502D03*
X0124036Y0117502D03*
X0123998Y0117502D03*
X0123960Y0117502D03*
X0123922Y0117502D03*
X0123884Y0117502D03*
X0123846Y0117502D03*
X0123808Y0117502D03*
X0123770Y0117502D03*
X0123732Y0117502D03*
X0123694Y0117502D03*
X0123656Y0117502D03*
X0123618Y0117502D03*
X0123580Y0117502D03*
X0123542Y0117502D03*
X0123504Y0117502D03*
X0123466Y0117502D03*
X0123428Y0117502D03*
X0123390Y0117502D03*
X0123352Y0117502D03*
X0123314Y0117502D03*
X0123276Y0117502D03*
X0123238Y0117502D03*
X0123200Y0117502D03*
X0123162Y0117502D03*
X0123124Y0117502D03*
X0123086Y0117502D03*
X0123048Y0117502D03*
X0123010Y0117502D03*
X0122972Y0117502D03*
X0122934Y0117502D03*
X0122896Y0117502D03*
X0122858Y0117502D03*
X0122820Y0117502D03*
X0122782Y0117502D03*
X0122744Y0117502D03*
X0122706Y0117502D03*
X0122668Y0117502D03*
X0122630Y0117502D03*
X0122592Y0117502D03*
X0122554Y0117502D03*
X0122516Y0117502D03*
X0122478Y0117502D03*
X0122440Y0117502D03*
X0122402Y0117502D03*
X0122364Y0117502D03*
X0122326Y0117502D03*
X0122288Y0117502D03*
X0122250Y0117502D03*
X0122212Y0117502D03*
X0122174Y0117502D03*
X0122136Y0117502D03*
X0122098Y0117502D03*
X0122060Y0117502D03*
X0122022Y0117502D03*
X0121984Y0117502D03*
X0121946Y0117502D03*
X0121908Y0117502D03*
X0121870Y0117502D03*
X0121832Y0117502D03*
X0121794Y0117502D03*
X0121756Y0117502D03*
X0121718Y0117502D03*
X0121680Y0117502D03*
X0121642Y0117502D03*
X0121604Y0117502D03*
X0121566Y0117502D03*
X0121528Y0117502D03*
X0121490Y0117502D03*
X0121452Y0117502D03*
X0121414Y0117502D03*
X0121376Y0117502D03*
X0121338Y0117502D03*
X0121300Y0117502D03*
X0121262Y0117502D03*
X0121224Y0117502D03*
X0121186Y0117502D03*
X0121148Y0117502D03*
X0121110Y0117502D03*
X0121072Y0117502D03*
X0121034Y0117502D03*
X0120996Y0117502D03*
X0120958Y0117502D03*
X0120920Y0117502D03*
X0120882Y0117502D03*
X0120844Y0117502D03*
X0120806Y0117502D03*
X0125062Y0117502D03*
X0125100Y0117502D03*
X0125138Y0117502D03*
X0125176Y0117502D03*
X0125214Y0117502D03*
X0125252Y0117502D03*
X0125290Y0117502D03*
X0125328Y0117502D03*
X0125366Y0117502D03*
X0125404Y0117502D03*
X0125442Y0117502D03*
X0125480Y0117502D03*
X0125518Y0117502D03*
X0122896Y0135096D03*
X0122858Y0135096D03*
X0122820Y0135096D03*
X0122782Y0135096D03*
X0122744Y0135096D03*
X0122706Y0135096D03*
X0122668Y0135096D03*
X0122630Y0135096D03*
X0122592Y0135096D03*
X0122554Y0135096D03*
X0122516Y0135096D03*
X0122478Y0135096D03*
X0122440Y0135096D03*
X0122402Y0135096D03*
X0122364Y0135096D03*
X0122326Y0135096D03*
X0122288Y0135096D03*
X0122250Y0135096D03*
X0122212Y0135096D03*
X0122174Y0135096D03*
X0122136Y0135096D03*
X0122098Y0135096D03*
X0122060Y0135096D03*
X0122022Y0135096D03*
X0121984Y0135096D03*
X0121946Y0135096D03*
X0121908Y0135096D03*
X0121870Y0135096D03*
X0121832Y0135096D03*
X0121794Y0135096D03*
X0121756Y0135096D03*
X0121718Y0135096D03*
X0121680Y0135096D03*
X0121642Y0135096D03*
X0121604Y0135096D03*
X0121566Y0135096D03*
X0121528Y0135096D03*
X0121490Y0135096D03*
X0121452Y0135096D03*
X0121414Y0135096D03*
X0121376Y0135096D03*
X0121338Y0135096D03*
X0121300Y0135096D03*
X0121262Y0135096D03*
X0121224Y0135096D03*
X0121186Y0135096D03*
X0121148Y0135096D03*
X0121110Y0135096D03*
X0121072Y0135096D03*
X0121034Y0135096D03*
X0120996Y0135096D03*
X0120958Y0135096D03*
X0120920Y0135096D03*
X0120882Y0135096D03*
X0120844Y0135096D03*
X0120806Y0135096D03*
X0120768Y0135096D03*
X0120730Y0135096D03*
X0120692Y0135096D03*
X0120654Y0135096D03*
X0120616Y0135096D03*
X0120578Y0135096D03*
X0120540Y0135096D03*
X0120502Y0135096D03*
X0120464Y0135096D03*
X0120426Y0135096D03*
X0120388Y0135096D03*
X0120350Y0135096D03*
X0120312Y0135096D03*
X0120274Y0135096D03*
X0120236Y0135096D03*
X0120198Y0135096D03*
X0120160Y0135096D03*
X0120122Y0135096D03*
X0120084Y0135096D03*
X0120046Y0135096D03*
X0120008Y0135096D03*
X0119970Y0135096D03*
X0119932Y0135096D03*
X0119894Y0135096D03*
X0119856Y0135096D03*
X0119818Y0135096D03*
X0119780Y0135096D03*
X0119742Y0135096D03*
X0119704Y0135096D03*
X0119666Y0135096D03*
X0119628Y0135096D03*
X0119590Y0135096D03*
X0119552Y0135096D03*
X0119514Y0135096D03*
X0119476Y0135096D03*
X0119438Y0135096D03*
X0119400Y0135096D03*
X0119362Y0135096D03*
X0119324Y0135096D03*
X0119286Y0135096D03*
X0119248Y0135096D03*
X0119210Y0135096D03*
X0119172Y0135096D03*
X0119134Y0135096D03*
X0119096Y0135096D03*
X0119058Y0135096D03*
X0119020Y0135096D03*
X0118982Y0135096D03*
X0118944Y0135096D03*
X0118906Y0135096D03*
X0118868Y0135096D03*
X0118830Y0135096D03*
X0118792Y0135096D03*
X0118754Y0135096D03*
X0118716Y0135096D03*
X0118678Y0135096D03*
X0118640Y0135096D03*
X0118602Y0135096D03*
X0118564Y0135096D03*
X0118526Y0135096D03*
X0118488Y0135096D03*
X0118450Y0135096D03*
X0118412Y0135096D03*
X0118374Y0135096D03*
X0118336Y0135096D03*
X0118298Y0135096D03*
X0118260Y0135096D03*
X0118222Y0135096D03*
X0118184Y0135096D03*
X0118146Y0135096D03*
X0118108Y0135096D03*
X0118070Y0135096D03*
X0118032Y0135096D03*
X0117994Y0135096D03*
X0117956Y0135096D03*
X0117918Y0135096D03*
X0117880Y0135096D03*
X0117842Y0135096D03*
X0117804Y0135096D03*
X0117766Y0135096D03*
X0117728Y0135096D03*
X0117690Y0135096D03*
X0117652Y0135096D03*
X0117614Y0135096D03*
X0117576Y0135096D03*
X0117538Y0135096D03*
X0117500Y0135096D03*
X0117462Y0135096D03*
X0117424Y0135096D03*
X0117386Y0135096D03*
X0117348Y0135096D03*
X0117310Y0135096D03*
X0117272Y0135096D03*
X0117234Y0135096D03*
X0117196Y0135096D03*
X0117158Y0135096D03*
X0117120Y0135096D03*
X0117082Y0135096D03*
X0117044Y0135096D03*
X0117006Y0135096D03*
X0116968Y0135096D03*
X0113928Y0134678D03*
X0113890Y0134678D03*
X0113852Y0134678D03*
X0113738Y0134716D03*
X0113700Y0134716D03*
X0117158Y0138022D03*
X0117196Y0138022D03*
X0117234Y0138022D03*
X0117272Y0138022D03*
X0117310Y0138022D03*
X0117348Y0138022D03*
X0117386Y0138022D03*
X0117424Y0138022D03*
X0117462Y0138022D03*
X0117500Y0138022D03*
X0117538Y0138022D03*
X0117576Y0138022D03*
X0117614Y0138022D03*
X0117652Y0138022D03*
X0117690Y0138022D03*
X0119628Y0138022D03*
X0119666Y0138022D03*
X0119704Y0138022D03*
X0119742Y0138022D03*
X0119780Y0138022D03*
X0119818Y0138022D03*
X0119856Y0138022D03*
X0122212Y0138022D03*
X0122250Y0138022D03*
X0122288Y0138022D03*
X0122326Y0138022D03*
X0122364Y0138022D03*
X0122402Y0138022D03*
X0122440Y0138022D03*
X0122478Y0138022D03*
X0122516Y0138022D03*
X0122554Y0138022D03*
X0122592Y0138022D03*
X0122630Y0138022D03*
X0122668Y0138022D03*
X0122706Y0138022D03*
X0125404Y0140986D03*
X0112978Y0141556D03*
X0112940Y0141556D03*
X0112902Y0141556D03*
X0112864Y0141556D03*
X0112826Y0141556D03*
X0112788Y0141556D03*
X0112750Y0141556D03*
X0112712Y0141556D03*
X0112674Y0141556D03*
X0112636Y0141556D03*
X0112598Y0141556D03*
X0112560Y0141556D03*
X0112522Y0141556D03*
X0112484Y0141556D03*
X0112446Y0141556D03*
X0112408Y0141556D03*
X0112370Y0141556D03*
X0112332Y0141556D03*
X0112294Y0141556D03*
X0112256Y0141556D03*
X0112218Y0141556D03*
X0112180Y0141556D03*
X0112142Y0141556D03*
X0112104Y0141556D03*
X0112066Y0141556D03*
X0112028Y0141556D03*
X0111990Y0141556D03*
X0111952Y0141556D03*
X0111914Y0141556D03*
X0111876Y0141556D03*
X0111838Y0141556D03*
X0111800Y0141556D03*
X0111762Y0141556D03*
X0111724Y0141556D03*
X0111686Y0141556D03*
X0111648Y0141556D03*
X0111610Y0141556D03*
X0111572Y0141556D03*
X0111534Y0141556D03*
X0111496Y0141556D03*
X0111458Y0141556D03*
X0111420Y0141556D03*
X0111382Y0141556D03*
X0111344Y0141556D03*
X0111306Y0141556D03*
X0111268Y0141556D03*
X0111230Y0141556D03*
X0111192Y0141556D03*
X0111154Y0141556D03*
X0111116Y0141556D03*
X0111078Y0141556D03*
X0111040Y0141556D03*
X0111002Y0141556D03*
X0110964Y0141556D03*
X0110926Y0141556D03*
X0110888Y0141556D03*
X0110850Y0141556D03*
X0110812Y0141556D03*
X0110774Y0141556D03*
X0110736Y0141556D03*
X0110698Y0141556D03*
X0110660Y0141556D03*
X0110622Y0141556D03*
X0110584Y0141556D03*
X0110546Y0141556D03*
X0110508Y0141556D03*
X0110470Y0141556D03*
X0110432Y0141556D03*
X0110394Y0141556D03*
X0110356Y0141556D03*
X0110318Y0141556D03*
X0110280Y0141556D03*
X0110242Y0141556D03*
X0110204Y0141556D03*
X0110166Y0141556D03*
X0110128Y0141556D03*
X0110090Y0141556D03*
X0110052Y0141556D03*
X0110014Y0141556D03*
X0109976Y0141556D03*
X0109938Y0141556D03*
X0109900Y0141556D03*
X0109862Y0141556D03*
X0109824Y0141556D03*
X0109786Y0141556D03*
X0109748Y0141556D03*
X0109710Y0141556D03*
X0109672Y0141556D03*
X0109634Y0141556D03*
X0109596Y0141556D03*
X0109558Y0141556D03*
X0109520Y0141556D03*
X0109482Y0141556D03*
X0109444Y0141556D03*
X0109406Y0141556D03*
X0109368Y0141556D03*
X0109330Y0141556D03*
X0109292Y0141556D03*
X0109254Y0141556D03*
X0109216Y0141556D03*
X0109178Y0141556D03*
X0109140Y0141556D03*
X0109102Y0141556D03*
X0109064Y0141556D03*
X0109026Y0141556D03*
X0108988Y0141556D03*
X0108950Y0141556D03*
X0108912Y0141556D03*
X0108874Y0141556D03*
X0108836Y0141556D03*
X0108798Y0141556D03*
X0108760Y0141556D03*
X0108722Y0141556D03*
X0108684Y0141556D03*
X0108646Y0141556D03*
X0108608Y0141556D03*
X0108570Y0141556D03*
X0108532Y0141556D03*
X0108494Y0141556D03*
X0108456Y0141556D03*
X0108418Y0141556D03*
X0108380Y0141556D03*
X0108342Y0141556D03*
X0108304Y0141556D03*
X0108266Y0141556D03*
X0108228Y0141556D03*
X0108190Y0141556D03*
X0108152Y0141556D03*
X0108114Y0141556D03*
X0108076Y0141556D03*
X0108038Y0141556D03*
X0108000Y0141556D03*
X0107962Y0141556D03*
X0107924Y0141556D03*
X0107886Y0141556D03*
X0107848Y0141556D03*
X0107810Y0141556D03*
X0107772Y0141556D03*
X0107734Y0141556D03*
X0107696Y0141556D03*
X0107658Y0141556D03*
X0107620Y0141556D03*
X0107582Y0141556D03*
X0107544Y0141556D03*
X0107506Y0141556D03*
X0107468Y0141556D03*
X0107430Y0141556D03*
X0107392Y0141556D03*
X0107354Y0141556D03*
X0107316Y0141556D03*
X0107278Y0141556D03*
X0104618Y0133766D03*
X0098614Y0131030D03*
X0098538Y0131068D03*
X0098500Y0131068D03*
X0098424Y0131106D03*
X0098386Y0131106D03*
X0098234Y0131144D03*
X0098196Y0131144D03*
X0098044Y0131182D03*
X0098006Y0131182D03*
X0097968Y0131182D03*
X0097930Y0131182D03*
X0097892Y0131182D03*
X0097854Y0131182D03*
X0097778Y0131220D03*
X0097740Y0131220D03*
X0097702Y0131220D03*
X0097664Y0131220D03*
X0097626Y0131220D03*
X0097588Y0131220D03*
X0097550Y0131220D03*
X0097512Y0131220D03*
X0097474Y0131220D03*
X0097208Y0131258D03*
X0097170Y0131258D03*
X0097132Y0131258D03*
X0097094Y0131258D03*
X0097056Y0131258D03*
X0097018Y0131258D03*
X0096980Y0131258D03*
X0095346Y0131258D03*
X0095308Y0131258D03*
X0095270Y0131258D03*
X0095232Y0131258D03*
X0095194Y0131258D03*
X0095156Y0131258D03*
X0095118Y0131258D03*
X0095080Y0131258D03*
X0094852Y0131220D03*
X0094814Y0131220D03*
X0094776Y0131220D03*
X0094738Y0131220D03*
X0094700Y0131220D03*
X0094662Y0131220D03*
X0094624Y0131220D03*
X0094586Y0131220D03*
X0094548Y0131220D03*
X0094434Y0131182D03*
X0094396Y0131182D03*
X0094358Y0131182D03*
X0094320Y0131182D03*
X0094282Y0131182D03*
X0094130Y0131144D03*
X0094092Y0131144D03*
X0093940Y0131106D03*
X0093902Y0131106D03*
X0093826Y0131068D03*
X0093788Y0131068D03*
X0093712Y0131030D03*
X0093636Y0127610D03*
X0093712Y0127572D03*
X0098234Y0127458D03*
X0098386Y0127496D03*
X0098424Y0127496D03*
X0098462Y0127496D03*
X0098500Y0127534D03*
X0098538Y0127534D03*
X0098576Y0127534D03*
X0096752Y0159264D03*
X0096714Y0159264D03*
X0096676Y0159264D03*
X0096638Y0159264D03*
X0096600Y0159264D03*
X0096562Y0159264D03*
X0096524Y0159264D03*
X0096486Y0159264D03*
X0096448Y0159264D03*
X0096410Y0159264D03*
X0096372Y0159264D03*
X0096334Y0159264D03*
X0096296Y0159264D03*
X0096258Y0159264D03*
X0096220Y0159264D03*
X0096182Y0159264D03*
X0096144Y0159264D03*
X0096106Y0159264D03*
X0096068Y0159264D03*
X0096030Y0159264D03*
X0095992Y0159264D03*
X0095954Y0159264D03*
X0095916Y0159264D03*
X0095878Y0159264D03*
X0095840Y0159264D03*
X0095802Y0159264D03*
X0095764Y0159264D03*
X0095726Y0159264D03*
X0095688Y0159264D03*
X0095650Y0159264D03*
X0095612Y0159264D03*
X0095574Y0159264D03*
X0095536Y0159264D03*
X0095498Y0159264D03*
X0095460Y0159264D03*
X0095422Y0159264D03*
X0095384Y0159264D03*
X0095346Y0159264D03*
X0120426Y0159264D03*
X0120464Y0159264D03*
X0120502Y0159264D03*
X0120540Y0159264D03*
X0120578Y0159264D03*
X0120616Y0159264D03*
X0120654Y0159264D03*
X0120692Y0159264D03*
X0120730Y0159264D03*
X0120768Y0159264D03*
X0120806Y0159264D03*
X0120844Y0159264D03*
X0120882Y0159264D03*
X0120920Y0159264D03*
X0120958Y0159264D03*
X0120996Y0159264D03*
X0121034Y0159264D03*
X0121072Y0159264D03*
X0121110Y0159264D03*
X0121148Y0159264D03*
X0121186Y0159264D03*
X0121224Y0159264D03*
X0121262Y0159264D03*
X0121300Y0159264D03*
X0121338Y0159264D03*
X0121376Y0159264D03*
X0121414Y0159264D03*
X0121452Y0159264D03*
X0121490Y0159264D03*
X0121528Y0159264D03*
X0121566Y0159264D03*
X0121604Y0159264D03*
X0121642Y0159264D03*
X0121680Y0159264D03*
X0121718Y0159264D03*
X0121756Y0159264D03*
X0121794Y0159264D03*
X0121832Y0159264D03*
D43*
X0120464Y0156452D03*
X0120426Y0156452D03*
X0120274Y0156490D03*
X0120236Y0156490D03*
X0120198Y0156490D03*
X0120160Y0156490D03*
X0120084Y0156528D03*
X0120046Y0156528D03*
X0120008Y0156528D03*
X0119970Y0156528D03*
X0119932Y0156528D03*
X0119818Y0156566D03*
X0119780Y0156566D03*
X0119742Y0156566D03*
X0120008Y0154134D03*
X0120046Y0154134D03*
X0120084Y0154134D03*
X0119894Y0154096D03*
X0119856Y0154096D03*
X0119818Y0154096D03*
X0119780Y0154096D03*
X0119742Y0154096D03*
X0119704Y0154058D03*
X0119666Y0154058D03*
X0119628Y0154058D03*
X0119590Y0154058D03*
X0119476Y0154020D03*
X0119438Y0154020D03*
X0119400Y0154020D03*
X0119210Y0153982D03*
X0120274Y0154172D03*
X0117538Y0153640D03*
X0117348Y0153602D03*
X0117006Y0153526D03*
X0116816Y0153488D03*
X0100400Y0147598D03*
X0100590Y0139580D03*
X0104466Y0133766D03*
X0100590Y0129320D03*
X0112446Y0133766D03*
X0125480Y0134336D03*
X0125518Y0123962D03*
X0095194Y0154172D03*
X0095004Y0154134D03*
X0094966Y0154134D03*
X0094928Y0154134D03*
X0094814Y0154096D03*
X0094776Y0154096D03*
X0094738Y0154096D03*
X0094700Y0154096D03*
X0094662Y0154096D03*
X0094624Y0154058D03*
X0094586Y0154058D03*
X0094548Y0154058D03*
X0094510Y0154058D03*
X0094396Y0154020D03*
X0094358Y0154020D03*
X0094320Y0154020D03*
X0094130Y0153982D03*
X0092458Y0153640D03*
X0092268Y0153602D03*
X0091926Y0153526D03*
X0091736Y0153488D03*
X0094662Y0156566D03*
X0094700Y0156566D03*
X0094738Y0156566D03*
X0094852Y0156528D03*
X0094890Y0156528D03*
X0094928Y0156528D03*
X0094966Y0156528D03*
X0095004Y0156528D03*
X0095080Y0156490D03*
X0095118Y0156490D03*
X0095156Y0156490D03*
X0095194Y0156490D03*
X0095346Y0156452D03*
X0095384Y0156452D03*
D44*
X0099906Y0147522D03*
X0104960Y0149422D03*
X0104960Y0133728D03*
X0100400Y0129320D03*
X0091926Y0129320D03*
X0121528Y0123962D03*
X0124986Y0134260D03*
X0125480Y0146572D03*
D45*
X0125480Y0140986D03*
X0112370Y0133766D03*
X0105340Y0130688D03*
X0105302Y0130688D03*
X0105264Y0130688D03*
X0105226Y0130688D03*
X0105188Y0130688D03*
X0105150Y0130688D03*
X0105112Y0130688D03*
X0105074Y0130688D03*
X0105036Y0130688D03*
X0104998Y0130688D03*
X0104960Y0130688D03*
X0104922Y0130688D03*
X0104884Y0130688D03*
X0104846Y0130688D03*
X0104808Y0130688D03*
X0104770Y0130688D03*
X0104732Y0130688D03*
X0104694Y0130688D03*
X0104656Y0130688D03*
X0104618Y0130688D03*
X0104580Y0130688D03*
X0104542Y0130688D03*
X0104504Y0130688D03*
X0104466Y0130688D03*
X0104428Y0130688D03*
X0104542Y0133766D03*
X0098614Y0137680D03*
X0098538Y0137642D03*
X0098500Y0137642D03*
X0098462Y0137642D03*
X0098310Y0137604D03*
X0098272Y0137604D03*
X0098234Y0137604D03*
X0098196Y0137604D03*
X0098158Y0137604D03*
X0098120Y0137604D03*
X0098082Y0137604D03*
X0098082Y0141480D03*
X0098044Y0141480D03*
X0098006Y0141480D03*
X0097968Y0141480D03*
X0098120Y0141480D03*
X0098158Y0141480D03*
X0093826Y0141366D03*
X0093788Y0141366D03*
X0093750Y0141366D03*
X0093560Y0137756D03*
X0093522Y0137756D03*
X0093598Y0137718D03*
X0093636Y0137718D03*
X0093674Y0137718D03*
D46*
X0093712Y0137699D03*
X0093750Y0137699D03*
X0093788Y0137699D03*
X0093826Y0137699D03*
X0093864Y0137661D03*
X0093902Y0137661D03*
X0093940Y0137661D03*
X0093978Y0137661D03*
X0094016Y0137661D03*
X0094054Y0137661D03*
X0098348Y0137623D03*
X0098386Y0137623D03*
X0098424Y0137623D03*
X0097930Y0141499D03*
X0097892Y0141499D03*
X0097854Y0141499D03*
X0097816Y0141499D03*
X0097778Y0141499D03*
X0097740Y0141499D03*
X0100210Y0155331D03*
X0100248Y0155331D03*
X0100286Y0155331D03*
X0100324Y0155331D03*
X0100362Y0155331D03*
X0125290Y0155331D03*
X0125328Y0155331D03*
X0125366Y0155331D03*
X0125404Y0155331D03*
X0125442Y0155331D03*
X0115790Y0132949D03*
X0125480Y0123943D03*
D47*
X0122288Y0124798D03*
X0122250Y0124760D03*
X0122212Y0124760D03*
X0118906Y0124684D03*
X0118830Y0124646D03*
X0118792Y0124646D03*
X0118868Y0120770D03*
X0118906Y0120770D03*
X0118944Y0120770D03*
X0118982Y0120770D03*
X0119172Y0120732D03*
X0119210Y0120732D03*
X0119248Y0120732D03*
X0119286Y0120732D03*
X0119324Y0120732D03*
X0119362Y0120732D03*
X0120236Y0117464D03*
X0120274Y0117464D03*
X0120312Y0117464D03*
X0120350Y0117464D03*
X0120388Y0117464D03*
X0125214Y0120542D03*
X0125442Y0120466D03*
X0125480Y0120466D03*
X0123048Y0131296D03*
X0123010Y0131296D03*
X0122972Y0131296D03*
X0122934Y0131296D03*
X0123466Y0135020D03*
X0123504Y0135020D03*
X0123162Y0138060D03*
X0123124Y0138060D03*
X0123086Y0138060D03*
X0123048Y0138060D03*
X0123010Y0138060D03*
X0119400Y0138060D03*
X0119362Y0138060D03*
X0119324Y0138060D03*
X0119286Y0138060D03*
X0119286Y0141784D03*
X0119742Y0141860D03*
X0119780Y0141860D03*
X0119818Y0141860D03*
X0122364Y0141898D03*
X0122402Y0141898D03*
X0122440Y0141898D03*
X0122478Y0141898D03*
X0122516Y0141898D03*
X0122554Y0141898D03*
X0122592Y0141898D03*
X0122630Y0141898D03*
X0122668Y0141898D03*
X0122706Y0141898D03*
X0122896Y0141860D03*
X0122934Y0141860D03*
X0122972Y0141860D03*
X0123010Y0141860D03*
X0123048Y0141860D03*
X0123086Y0141860D03*
X0123124Y0141860D03*
X0118678Y0148206D03*
X0106974Y0152424D03*
X0106936Y0152424D03*
X0106898Y0152424D03*
X0106860Y0152424D03*
X0104618Y0149384D03*
X0098424Y0148282D03*
X0098386Y0148282D03*
X0098310Y0148320D03*
X0098272Y0148320D03*
X0098234Y0148320D03*
X0098196Y0148320D03*
X0098880Y0141214D03*
X0094434Y0141252D03*
X0093598Y0130992D03*
X0093560Y0127648D03*
X0098728Y0127610D03*
X0098728Y0130992D03*
X0106594Y0134602D03*
X0106632Y0134602D03*
X0106632Y0137756D03*
X0106594Y0137756D03*
X0106556Y0137756D03*
X0106518Y0137756D03*
X0106670Y0137756D03*
X0110356Y0134602D03*
X0114080Y0134602D03*
X0115752Y0132930D03*
X0114118Y0131030D03*
D48*
X0116968Y0122689D03*
X0121452Y0123791D03*
X0105074Y0138573D03*
X0097132Y0138307D03*
X0095004Y0140701D03*
X0105112Y0149441D03*
X0097398Y0155331D03*
X0097360Y0155331D03*
X0097322Y0155331D03*
X0097284Y0155331D03*
X0097246Y0155331D03*
X0117652Y0140967D03*
X0124948Y0140967D03*
X0125442Y0146553D03*
X0122478Y0155331D03*
X0122440Y0155331D03*
X0122402Y0155331D03*
X0122364Y0155331D03*
X0122326Y0155331D03*
D49*
X0118906Y0159302D03*
X0118868Y0159302D03*
X0118830Y0159302D03*
X0118792Y0159302D03*
X0118754Y0159302D03*
X0118716Y0159302D03*
X0118678Y0159302D03*
X0118640Y0159302D03*
X0118602Y0159302D03*
X0118564Y0159302D03*
X0118526Y0159302D03*
X0118488Y0159302D03*
X0118450Y0159302D03*
X0118412Y0159302D03*
X0118374Y0159302D03*
X0118336Y0159302D03*
X0118298Y0159302D03*
X0118260Y0159302D03*
X0118222Y0159302D03*
X0118184Y0159302D03*
X0118146Y0159302D03*
X0118108Y0159302D03*
X0118070Y0159302D03*
X0118032Y0159302D03*
X0117994Y0159302D03*
X0117956Y0159302D03*
X0117918Y0159302D03*
X0117880Y0159302D03*
X0117842Y0159302D03*
X0117804Y0159302D03*
X0117766Y0159302D03*
X0117728Y0159302D03*
X0117690Y0159302D03*
X0117652Y0159302D03*
X0117614Y0159302D03*
X0117576Y0159302D03*
X0117538Y0159302D03*
X0117500Y0159302D03*
X0117462Y0159302D03*
X0117462Y0151360D03*
X0117500Y0151360D03*
X0117538Y0151360D03*
X0117576Y0151360D03*
X0117614Y0151360D03*
X0117652Y0151360D03*
X0117690Y0151360D03*
X0117728Y0151360D03*
X0117766Y0151360D03*
X0117804Y0151360D03*
X0117842Y0151360D03*
X0117880Y0151360D03*
X0117918Y0151360D03*
X0117956Y0151360D03*
X0117994Y0151360D03*
X0118032Y0151360D03*
X0118070Y0151360D03*
X0118108Y0151360D03*
X0118146Y0151360D03*
X0118184Y0151360D03*
X0118222Y0151360D03*
X0118260Y0151360D03*
X0118298Y0151360D03*
X0118336Y0151360D03*
X0118374Y0151360D03*
X0118412Y0151360D03*
X0118450Y0151360D03*
X0118488Y0151360D03*
X0118526Y0151360D03*
X0118564Y0151360D03*
X0118602Y0151360D03*
X0118640Y0151360D03*
X0118678Y0151360D03*
X0118716Y0151360D03*
X0118754Y0151360D03*
X0118792Y0151360D03*
X0118830Y0151360D03*
X0118868Y0151360D03*
X0118906Y0151360D03*
X0125442Y0140986D03*
X0112332Y0133766D03*
X0104580Y0133766D03*
X0098842Y0137794D03*
X0097778Y0137680D03*
X0098690Y0141328D03*
X0098728Y0141328D03*
X0094244Y0141328D03*
X0093370Y0141214D03*
X0093332Y0137870D03*
X0093826Y0127534D03*
X0093940Y0127496D03*
X0093978Y0127496D03*
X0094016Y0127496D03*
X0094054Y0127496D03*
X0094130Y0127458D03*
X0094168Y0127458D03*
X0094206Y0127458D03*
X0094244Y0127458D03*
X0094282Y0127458D03*
X0094320Y0127458D03*
X0094358Y0127458D03*
X0094434Y0127420D03*
X0094472Y0127420D03*
X0094510Y0127420D03*
X0094548Y0127420D03*
X0094586Y0127420D03*
X0094624Y0127420D03*
X0094662Y0127420D03*
X0094700Y0127420D03*
X0094738Y0127420D03*
X0094776Y0127420D03*
X0094814Y0127420D03*
X0094852Y0127420D03*
X0094890Y0127420D03*
X0094928Y0127420D03*
X0094966Y0127420D03*
X0095004Y0127420D03*
X0095042Y0127420D03*
X0095080Y0127420D03*
X0097930Y0127420D03*
X0093826Y0151360D03*
X0093788Y0151360D03*
X0093750Y0151360D03*
X0093712Y0151360D03*
X0093674Y0151360D03*
X0093636Y0151360D03*
X0093598Y0151360D03*
X0093560Y0151360D03*
X0093522Y0151360D03*
X0093484Y0151360D03*
X0093446Y0151360D03*
X0093408Y0151360D03*
X0093370Y0151360D03*
X0093332Y0151360D03*
X0093294Y0151360D03*
X0093256Y0151360D03*
X0093218Y0151360D03*
X0093180Y0151360D03*
X0093142Y0151360D03*
X0093104Y0151360D03*
X0093066Y0151360D03*
X0093028Y0151360D03*
X0092990Y0151360D03*
X0092952Y0151360D03*
X0092914Y0151360D03*
X0092876Y0151360D03*
X0092838Y0151360D03*
X0092800Y0151360D03*
X0092762Y0151360D03*
X0092724Y0151360D03*
X0092686Y0151360D03*
X0092648Y0151360D03*
X0092610Y0151360D03*
X0092572Y0151360D03*
X0092534Y0151360D03*
X0092496Y0151360D03*
X0092458Y0151360D03*
X0092420Y0151360D03*
X0092382Y0151360D03*
X0092382Y0159302D03*
X0092420Y0159302D03*
X0092458Y0159302D03*
X0092496Y0159302D03*
X0092534Y0159302D03*
X0092572Y0159302D03*
X0092610Y0159302D03*
X0092648Y0159302D03*
X0092686Y0159302D03*
X0092724Y0159302D03*
X0092762Y0159302D03*
X0092800Y0159302D03*
X0092838Y0159302D03*
X0092876Y0159302D03*
X0092914Y0159302D03*
X0092952Y0159302D03*
X0092990Y0159302D03*
X0093028Y0159302D03*
X0093066Y0159302D03*
X0093104Y0159302D03*
X0093142Y0159302D03*
X0093180Y0159302D03*
X0093218Y0159302D03*
X0093256Y0159302D03*
X0093294Y0159302D03*
X0093332Y0159302D03*
X0093370Y0159302D03*
X0093408Y0159302D03*
X0093446Y0159302D03*
X0093484Y0159302D03*
X0093522Y0159302D03*
X0093560Y0159302D03*
X0093598Y0159302D03*
X0093636Y0159302D03*
X0093674Y0159302D03*
X0093712Y0159302D03*
X0093750Y0159302D03*
X0093788Y0159302D03*
X0093826Y0159302D03*
D50*
X0104504Y0149384D03*
X0100362Y0147598D03*
X0104504Y0138478D03*
X0112408Y0133766D03*
X0125442Y0134336D03*
D51*
X0124872Y0140948D03*
X0125404Y0146572D03*
X0117082Y0146534D03*
X0105226Y0149460D03*
X0105188Y0149460D03*
X0105150Y0138592D03*
X0100324Y0129320D03*
X0092002Y0129320D03*
X0120198Y0121226D03*
X0125024Y0123886D03*
D52*
X0125404Y0134336D03*
X0098538Y0141404D03*
X0098500Y0141404D03*
X0098462Y0141404D03*
X0093522Y0141290D03*
X0093484Y0141290D03*
D53*
X0093294Y0141119D03*
X0094396Y0141271D03*
X0097588Y0144539D03*
X0097626Y0144539D03*
X0097664Y0144539D03*
X0097702Y0144539D03*
X0097740Y0144539D03*
X0097778Y0144539D03*
X0097816Y0144539D03*
X0100248Y0147579D03*
X0098158Y0148339D03*
X0098120Y0148339D03*
X0098082Y0148339D03*
X0098044Y0148339D03*
X0098006Y0148339D03*
X0097968Y0148339D03*
X0097930Y0148339D03*
X0097892Y0148339D03*
X0097854Y0148339D03*
X0097854Y0151417D03*
X0097816Y0151417D03*
X0097778Y0151417D03*
X0097740Y0151417D03*
X0097702Y0151417D03*
X0097664Y0151417D03*
X0097626Y0151417D03*
X0097588Y0151417D03*
X0097550Y0151417D03*
X0097512Y0151417D03*
X0097474Y0151417D03*
X0097436Y0151417D03*
X0097398Y0151417D03*
X0097360Y0151417D03*
X0097322Y0151417D03*
X0097284Y0151417D03*
X0097246Y0151417D03*
X0097208Y0151417D03*
X0097170Y0151417D03*
X0097132Y0151417D03*
X0097094Y0151417D03*
X0097056Y0151417D03*
X0097018Y0151417D03*
X0096980Y0151417D03*
X0096942Y0151417D03*
X0096904Y0151417D03*
X0096866Y0151417D03*
X0096828Y0151417D03*
X0096790Y0151417D03*
X0097892Y0151417D03*
X0097930Y0151417D03*
X0097968Y0151417D03*
X0098006Y0151417D03*
X0098044Y0151417D03*
X0098082Y0151417D03*
X0098120Y0151417D03*
X0098158Y0151417D03*
X0098196Y0151417D03*
X0098234Y0151417D03*
X0099450Y0155331D03*
X0099488Y0155331D03*
X0099526Y0155331D03*
X0099564Y0155331D03*
X0099602Y0155331D03*
X0098234Y0159245D03*
X0098196Y0159245D03*
X0098158Y0159245D03*
X0098120Y0159245D03*
X0098082Y0159245D03*
X0098044Y0159245D03*
X0098006Y0159245D03*
X0097968Y0159245D03*
X0097930Y0159245D03*
X0097892Y0159245D03*
X0097854Y0159245D03*
X0097816Y0159245D03*
X0097778Y0159245D03*
X0097740Y0159245D03*
X0097702Y0159245D03*
X0097664Y0159245D03*
X0097626Y0159245D03*
X0097588Y0159245D03*
X0097550Y0159245D03*
X0097512Y0159245D03*
X0097474Y0159245D03*
X0097436Y0159245D03*
X0097398Y0159245D03*
X0097360Y0159245D03*
X0097322Y0159245D03*
X0097284Y0159245D03*
X0097246Y0159245D03*
X0097208Y0159245D03*
X0097170Y0159245D03*
X0097132Y0159245D03*
X0097094Y0159245D03*
X0097056Y0159245D03*
X0097018Y0159245D03*
X0096980Y0159245D03*
X0096942Y0159245D03*
X0096904Y0159245D03*
X0096866Y0159245D03*
X0096828Y0159245D03*
X0096790Y0159245D03*
X0107012Y0152443D03*
X0107050Y0152443D03*
X0107088Y0152443D03*
X0107126Y0152443D03*
X0107164Y0152443D03*
X0107202Y0152443D03*
X0107240Y0152443D03*
X0107012Y0148643D03*
X0106974Y0148643D03*
X0106936Y0148643D03*
X0106898Y0148643D03*
X0106860Y0148643D03*
X0106822Y0148643D03*
X0106784Y0148643D03*
X0106746Y0148643D03*
X0106708Y0148643D03*
X0107012Y0141537D03*
X0107050Y0141537D03*
X0107088Y0141537D03*
X0107126Y0141537D03*
X0107164Y0141537D03*
X0107202Y0141537D03*
X0107240Y0141537D03*
X0107012Y0137737D03*
X0106974Y0137737D03*
X0106936Y0137737D03*
X0106898Y0137737D03*
X0106860Y0137737D03*
X0106822Y0137737D03*
X0106784Y0137737D03*
X0106746Y0137737D03*
X0106708Y0137737D03*
X0106708Y0134621D03*
X0106670Y0134621D03*
X0106746Y0134621D03*
X0109254Y0134697D03*
X0109292Y0134697D03*
X0109330Y0134697D03*
X0109368Y0134697D03*
X0109406Y0134697D03*
X0109444Y0134697D03*
X0109482Y0134697D03*
X0109520Y0134697D03*
X0109558Y0134697D03*
X0109596Y0134697D03*
X0109634Y0134697D03*
X0109672Y0134697D03*
X0109710Y0134697D03*
X0109748Y0134697D03*
X0109786Y0134659D03*
X0109824Y0134659D03*
X0109862Y0134659D03*
X0109900Y0134659D03*
X0109938Y0134659D03*
X0109976Y0134659D03*
X0110014Y0134659D03*
X0110052Y0134659D03*
X0112294Y0133747D03*
X0113966Y0134659D03*
X0114004Y0134659D03*
X0114042Y0134621D03*
X0114042Y0131011D03*
X0114080Y0131011D03*
X0114004Y0130973D03*
X0109862Y0130821D03*
X0109824Y0130821D03*
X0109786Y0130821D03*
X0109748Y0130821D03*
X0109710Y0130821D03*
X0109672Y0130821D03*
X0109634Y0130821D03*
X0109596Y0130821D03*
X0109558Y0130821D03*
X0109520Y0130821D03*
X0109482Y0130821D03*
X0107506Y0130821D03*
X0107468Y0130821D03*
X0107430Y0130821D03*
X0107392Y0130821D03*
X0107354Y0130821D03*
X0107316Y0130821D03*
X0107278Y0130821D03*
X0107240Y0130821D03*
X0107202Y0130821D03*
X0107164Y0130821D03*
X0107126Y0130821D03*
X0107088Y0130821D03*
X0098690Y0131011D03*
X0098652Y0131011D03*
X0098576Y0131049D03*
X0097436Y0131239D03*
X0097398Y0131239D03*
X0097360Y0131239D03*
X0097322Y0131239D03*
X0097284Y0131239D03*
X0097246Y0131239D03*
X0096942Y0131277D03*
X0096904Y0131277D03*
X0096866Y0131277D03*
X0096828Y0131277D03*
X0096790Y0131277D03*
X0096752Y0131277D03*
X0096714Y0131277D03*
X0096676Y0131277D03*
X0096638Y0131277D03*
X0096600Y0131277D03*
X0096562Y0131277D03*
X0096524Y0131277D03*
X0096486Y0131277D03*
X0096448Y0131277D03*
X0096410Y0131277D03*
X0096372Y0131277D03*
X0096334Y0131277D03*
X0096296Y0131277D03*
X0096258Y0131277D03*
X0096220Y0131277D03*
X0096182Y0131277D03*
X0096144Y0131277D03*
X0096106Y0131277D03*
X0096068Y0131277D03*
X0096030Y0131277D03*
X0095992Y0131277D03*
X0095954Y0131277D03*
X0095916Y0131277D03*
X0095878Y0131277D03*
X0095840Y0131277D03*
X0095802Y0131277D03*
X0095764Y0131277D03*
X0095726Y0131277D03*
X0095688Y0131277D03*
X0095650Y0131277D03*
X0095612Y0131277D03*
X0095574Y0131277D03*
X0095536Y0131277D03*
X0095498Y0131277D03*
X0095460Y0131277D03*
X0095422Y0131277D03*
X0095384Y0131277D03*
X0095042Y0131239D03*
X0095004Y0131239D03*
X0094966Y0131239D03*
X0094928Y0131239D03*
X0094890Y0131239D03*
X0093750Y0131049D03*
X0093674Y0131011D03*
X0093636Y0131011D03*
X0093598Y0127629D03*
X0093674Y0127591D03*
X0098614Y0127553D03*
X0098652Y0127591D03*
X0098690Y0127591D03*
X0097664Y0137737D03*
X0118754Y0144843D03*
X0118830Y0144805D03*
X0119970Y0144615D03*
X0120008Y0144615D03*
X0120046Y0144615D03*
X0120084Y0144615D03*
X0120122Y0144615D03*
X0120502Y0144577D03*
X0120540Y0144577D03*
X0120578Y0144577D03*
X0120616Y0144577D03*
X0120654Y0144577D03*
X0120692Y0144577D03*
X0120730Y0144577D03*
X0120768Y0144577D03*
X0120806Y0144577D03*
X0120844Y0144577D03*
X0120882Y0144577D03*
X0120920Y0144577D03*
X0120958Y0144577D03*
X0120996Y0144577D03*
X0121034Y0144577D03*
X0121072Y0144577D03*
X0121110Y0144577D03*
X0121148Y0144577D03*
X0121186Y0144577D03*
X0121224Y0144577D03*
X0121262Y0144577D03*
X0121300Y0144577D03*
X0121338Y0144577D03*
X0121376Y0144577D03*
X0121414Y0144577D03*
X0121452Y0144577D03*
X0121490Y0144577D03*
X0121528Y0144577D03*
X0121566Y0144577D03*
X0121604Y0144577D03*
X0121642Y0144577D03*
X0121680Y0144577D03*
X0121718Y0144577D03*
X0121756Y0144577D03*
X0121794Y0144577D03*
X0121832Y0144577D03*
X0121870Y0144577D03*
X0121908Y0144577D03*
X0121946Y0144577D03*
X0121984Y0144577D03*
X0122364Y0144615D03*
X0122402Y0144615D03*
X0122440Y0144615D03*
X0122478Y0144615D03*
X0122516Y0144615D03*
X0123656Y0144805D03*
X0123732Y0144843D03*
X0123808Y0144881D03*
X0122858Y0141879D03*
X0122820Y0141879D03*
X0122782Y0141879D03*
X0122744Y0141879D03*
X0122326Y0141917D03*
X0122288Y0141917D03*
X0122250Y0141917D03*
X0122212Y0141917D03*
X0122174Y0141917D03*
X0122136Y0141917D03*
X0122098Y0141917D03*
X0122060Y0141917D03*
X0122022Y0141917D03*
X0121984Y0141917D03*
X0121946Y0141917D03*
X0121908Y0141917D03*
X0121870Y0141917D03*
X0121832Y0141917D03*
X0121794Y0141917D03*
X0121756Y0141917D03*
X0121718Y0141917D03*
X0121680Y0141917D03*
X0121642Y0141917D03*
X0121604Y0141917D03*
X0121566Y0141917D03*
X0121528Y0141917D03*
X0121490Y0141917D03*
X0121452Y0141917D03*
X0121414Y0141917D03*
X0121376Y0141917D03*
X0121338Y0141917D03*
X0121300Y0141917D03*
X0121262Y0141917D03*
X0121224Y0141917D03*
X0121186Y0141917D03*
X0121148Y0141917D03*
X0121110Y0141917D03*
X0121072Y0141917D03*
X0121034Y0141917D03*
X0120996Y0141917D03*
X0120958Y0141917D03*
X0120920Y0141917D03*
X0120882Y0141917D03*
X0120844Y0141917D03*
X0120806Y0141917D03*
X0120768Y0141917D03*
X0120730Y0141917D03*
X0120692Y0141917D03*
X0120654Y0141917D03*
X0120616Y0141917D03*
X0120578Y0141917D03*
X0120540Y0141917D03*
X0120502Y0141917D03*
X0120464Y0141917D03*
X0120426Y0141917D03*
X0120350Y0141879D03*
X0120312Y0141879D03*
X0120274Y0141879D03*
X0120236Y0141879D03*
X0120198Y0141879D03*
X0120160Y0141879D03*
X0120122Y0141879D03*
X0120084Y0141879D03*
X0120046Y0141879D03*
X0120008Y0141879D03*
X0119970Y0141879D03*
X0119932Y0141879D03*
X0119894Y0141879D03*
X0119856Y0141879D03*
X0119704Y0141841D03*
X0119666Y0141841D03*
X0119628Y0141841D03*
X0119590Y0141841D03*
X0119590Y0138041D03*
X0119552Y0138041D03*
X0119514Y0138041D03*
X0119476Y0138041D03*
X0119438Y0138041D03*
X0122744Y0138041D03*
X0122782Y0138041D03*
X0122820Y0138041D03*
X0122858Y0138041D03*
X0122896Y0138041D03*
X0122934Y0138041D03*
X0122972Y0138041D03*
X0122972Y0135077D03*
X0122934Y0135077D03*
X0123010Y0135077D03*
X0123048Y0135077D03*
X0123086Y0135077D03*
X0123124Y0135077D03*
X0123162Y0135077D03*
X0123200Y0135077D03*
X0123238Y0135077D03*
X0125328Y0134317D03*
X0122896Y0131277D03*
X0122858Y0131277D03*
X0122820Y0131277D03*
X0122782Y0131277D03*
X0122744Y0131277D03*
X0122706Y0131277D03*
X0122668Y0131277D03*
X0123276Y0124969D03*
X0123314Y0124969D03*
X0123352Y0124969D03*
X0122402Y0124855D03*
X0122364Y0124817D03*
X0122326Y0124817D03*
X0119210Y0124741D03*
X0119020Y0124703D03*
X0118982Y0124703D03*
X0118944Y0124703D03*
X0118868Y0124665D03*
X0119020Y0120751D03*
X0119058Y0120751D03*
X0119096Y0120751D03*
X0119134Y0120751D03*
X0120426Y0117483D03*
X0120464Y0117483D03*
X0120502Y0117483D03*
X0120540Y0117483D03*
X0120578Y0117483D03*
X0120616Y0117483D03*
X0120654Y0117483D03*
X0120692Y0117483D03*
X0120730Y0117483D03*
X0120768Y0117483D03*
X0124872Y0120599D03*
X0124910Y0120599D03*
X0124948Y0120599D03*
X0124986Y0120599D03*
X0125062Y0120561D03*
X0125100Y0120561D03*
X0125138Y0120561D03*
X0125176Y0120561D03*
X0125252Y0120523D03*
X0125290Y0120523D03*
X0125404Y0123943D03*
X0123732Y0148263D03*
X0123656Y0148301D03*
X0122516Y0148491D03*
X0122478Y0148491D03*
X0122440Y0148491D03*
X0122402Y0148491D03*
X0122364Y0148491D03*
X0122022Y0148529D03*
X0121984Y0148529D03*
X0121946Y0148529D03*
X0121908Y0148529D03*
X0121870Y0148529D03*
X0121832Y0148529D03*
X0121794Y0148529D03*
X0121756Y0148529D03*
X0121718Y0148529D03*
X0121680Y0148529D03*
X0121642Y0148529D03*
X0121604Y0148529D03*
X0121566Y0148529D03*
X0121528Y0148529D03*
X0121490Y0148529D03*
X0121452Y0148529D03*
X0121414Y0148529D03*
X0121376Y0148529D03*
X0121338Y0148529D03*
X0121300Y0148529D03*
X0121262Y0148529D03*
X0121224Y0148529D03*
X0121186Y0148529D03*
X0121148Y0148529D03*
X0121110Y0148529D03*
X0121072Y0148529D03*
X0121034Y0148529D03*
X0120996Y0148529D03*
X0120958Y0148529D03*
X0120920Y0148529D03*
X0120882Y0148529D03*
X0120844Y0148529D03*
X0120806Y0148529D03*
X0120768Y0148529D03*
X0120730Y0148529D03*
X0120692Y0148529D03*
X0120654Y0148529D03*
X0120616Y0148529D03*
X0120578Y0148529D03*
X0120540Y0148529D03*
X0120502Y0148529D03*
X0120160Y0148491D03*
X0120122Y0148491D03*
X0120084Y0148491D03*
X0120046Y0148491D03*
X0120008Y0148491D03*
X0119970Y0148491D03*
X0118830Y0148301D03*
X0118754Y0148263D03*
X0121870Y0151417D03*
X0121908Y0151417D03*
X0121946Y0151417D03*
X0121984Y0151417D03*
X0122022Y0151417D03*
X0122060Y0151417D03*
X0122098Y0151417D03*
X0122136Y0151417D03*
X0122174Y0151417D03*
X0122212Y0151417D03*
X0122250Y0151417D03*
X0122288Y0151417D03*
X0122326Y0151417D03*
X0122364Y0151417D03*
X0122402Y0151417D03*
X0122440Y0151417D03*
X0122478Y0151417D03*
X0122516Y0151417D03*
X0122554Y0151417D03*
X0122592Y0151417D03*
X0122630Y0151417D03*
X0122668Y0151417D03*
X0122706Y0151417D03*
X0122744Y0151417D03*
X0122782Y0151417D03*
X0122820Y0151417D03*
X0122858Y0151417D03*
X0122896Y0151417D03*
X0122934Y0151417D03*
X0122972Y0151417D03*
X0123010Y0151417D03*
X0123048Y0151417D03*
X0123086Y0151417D03*
X0123124Y0151417D03*
X0123162Y0151417D03*
X0123200Y0151417D03*
X0123238Y0151417D03*
X0123276Y0151417D03*
X0123314Y0151417D03*
X0124530Y0155331D03*
X0124568Y0155331D03*
X0124606Y0155331D03*
X0124644Y0155331D03*
X0124682Y0155331D03*
X0123314Y0159245D03*
X0123276Y0159245D03*
X0123238Y0159245D03*
X0123200Y0159245D03*
X0123162Y0159245D03*
X0123124Y0159245D03*
X0123086Y0159245D03*
X0123048Y0159245D03*
X0123010Y0159245D03*
X0122972Y0159245D03*
X0122934Y0159245D03*
X0122896Y0159245D03*
X0122858Y0159245D03*
X0122820Y0159245D03*
X0122782Y0159245D03*
X0122744Y0159245D03*
X0122706Y0159245D03*
X0122668Y0159245D03*
X0122630Y0159245D03*
X0122592Y0159245D03*
X0122554Y0159245D03*
X0122516Y0159245D03*
X0122478Y0159245D03*
X0122440Y0159245D03*
X0122402Y0159245D03*
X0122364Y0159245D03*
X0122326Y0159245D03*
X0122288Y0159245D03*
X0122250Y0159245D03*
X0122212Y0159245D03*
X0122174Y0159245D03*
X0122136Y0159245D03*
X0122098Y0159245D03*
X0122060Y0159245D03*
X0122022Y0159245D03*
X0121984Y0159245D03*
X0121946Y0159245D03*
X0121908Y0159245D03*
X0121870Y0159245D03*
D54*
X0123352Y0159226D03*
X0123390Y0159226D03*
X0123428Y0159226D03*
X0123466Y0159226D03*
X0123504Y0159226D03*
X0123542Y0159226D03*
X0123580Y0159226D03*
X0123618Y0159226D03*
X0123656Y0159226D03*
X0123694Y0159226D03*
X0123732Y0159226D03*
X0123770Y0159226D03*
X0123808Y0159226D03*
X0123846Y0159226D03*
X0123884Y0159226D03*
X0123922Y0159226D03*
X0123960Y0159226D03*
X0123998Y0159226D03*
X0124036Y0159226D03*
X0124074Y0159226D03*
X0124112Y0159226D03*
X0124150Y0159226D03*
X0124188Y0159226D03*
X0124226Y0159226D03*
X0124264Y0159226D03*
X0124302Y0159226D03*
X0124340Y0159226D03*
X0124378Y0159226D03*
X0124416Y0159226D03*
X0124454Y0159226D03*
X0124492Y0159226D03*
X0124530Y0159226D03*
X0124568Y0159226D03*
X0124606Y0159226D03*
X0124644Y0159226D03*
X0124682Y0159226D03*
X0124720Y0159226D03*
X0124758Y0159226D03*
X0124796Y0159226D03*
X0124796Y0151436D03*
X0124758Y0151436D03*
X0124720Y0151436D03*
X0124682Y0151436D03*
X0124644Y0151436D03*
X0124606Y0151436D03*
X0124568Y0151436D03*
X0124530Y0151436D03*
X0124492Y0151436D03*
X0124454Y0151436D03*
X0124416Y0151436D03*
X0124378Y0151436D03*
X0124340Y0151436D03*
X0124302Y0151436D03*
X0124264Y0151436D03*
X0124226Y0151436D03*
X0124188Y0151436D03*
X0124150Y0151436D03*
X0124112Y0151436D03*
X0124074Y0151436D03*
X0124036Y0151436D03*
X0123998Y0151436D03*
X0123960Y0151436D03*
X0123922Y0151436D03*
X0123884Y0151436D03*
X0123846Y0151436D03*
X0123808Y0151436D03*
X0123770Y0151436D03*
X0123732Y0151436D03*
X0123694Y0151436D03*
X0123656Y0151436D03*
X0123618Y0151436D03*
X0123580Y0151436D03*
X0123542Y0151436D03*
X0123504Y0151436D03*
X0123466Y0151436D03*
X0123428Y0151436D03*
X0123390Y0151436D03*
X0123352Y0151436D03*
X0123770Y0148244D03*
X0123846Y0144900D03*
X0123770Y0144862D03*
X0119552Y0141822D03*
X0119514Y0141822D03*
X0119476Y0141822D03*
X0119438Y0141822D03*
X0119400Y0141822D03*
X0118716Y0144862D03*
X0118678Y0144862D03*
X0118716Y0148244D03*
X0106670Y0148662D03*
X0106632Y0148662D03*
X0106594Y0148662D03*
X0106556Y0148662D03*
X0106518Y0148662D03*
X0106442Y0148700D03*
X0106860Y0141518D03*
X0106898Y0141518D03*
X0106936Y0141518D03*
X0106974Y0141518D03*
X0106442Y0137794D03*
X0110090Y0134640D03*
X0110128Y0134640D03*
X0110166Y0134640D03*
X0110204Y0134640D03*
X0110128Y0130840D03*
X0110090Y0130840D03*
X0110052Y0130840D03*
X0110014Y0130840D03*
X0109976Y0130840D03*
X0109938Y0130840D03*
X0109900Y0130840D03*
X0107050Y0130840D03*
X0107012Y0130840D03*
X0106974Y0130840D03*
X0106936Y0130840D03*
X0106898Y0130840D03*
X0106860Y0130840D03*
X0098766Y0130954D03*
X0093560Y0130954D03*
X0091812Y0139504D03*
X0097854Y0144558D03*
X0097892Y0144558D03*
X0097930Y0144558D03*
X0097968Y0144558D03*
X0098918Y0141176D03*
X0098918Y0151436D03*
X0098880Y0151436D03*
X0098842Y0151436D03*
X0098804Y0151436D03*
X0098766Y0151436D03*
X0098728Y0151436D03*
X0098690Y0151436D03*
X0098652Y0151436D03*
X0098614Y0151436D03*
X0098576Y0151436D03*
X0098538Y0151436D03*
X0098500Y0151436D03*
X0098462Y0151436D03*
X0098424Y0151436D03*
X0098386Y0151436D03*
X0098348Y0151436D03*
X0098310Y0151436D03*
X0098272Y0151436D03*
X0098956Y0151436D03*
X0098994Y0151436D03*
X0099032Y0151436D03*
X0099070Y0151436D03*
X0099108Y0151436D03*
X0099146Y0151436D03*
X0099184Y0151436D03*
X0099222Y0151436D03*
X0099260Y0151436D03*
X0099298Y0151436D03*
X0099336Y0151436D03*
X0099374Y0151436D03*
X0099412Y0151436D03*
X0099450Y0151436D03*
X0099488Y0151436D03*
X0099526Y0151436D03*
X0099564Y0151436D03*
X0099602Y0151436D03*
X0099640Y0151436D03*
X0099678Y0151436D03*
X0099716Y0151436D03*
X0099716Y0159226D03*
X0099678Y0159226D03*
X0099640Y0159226D03*
X0099602Y0159226D03*
X0099564Y0159226D03*
X0099526Y0159226D03*
X0099488Y0159226D03*
X0099450Y0159226D03*
X0099412Y0159226D03*
X0099374Y0159226D03*
X0099336Y0159226D03*
X0099298Y0159226D03*
X0099260Y0159226D03*
X0099222Y0159226D03*
X0099184Y0159226D03*
X0099146Y0159226D03*
X0099108Y0159226D03*
X0099070Y0159226D03*
X0099032Y0159226D03*
X0098994Y0159226D03*
X0098956Y0159226D03*
X0098918Y0159226D03*
X0098880Y0159226D03*
X0098842Y0159226D03*
X0098804Y0159226D03*
X0098766Y0159226D03*
X0098728Y0159226D03*
X0098690Y0159226D03*
X0098652Y0159226D03*
X0098614Y0159226D03*
X0098576Y0159226D03*
X0098538Y0159226D03*
X0098500Y0159226D03*
X0098462Y0159226D03*
X0098424Y0159226D03*
X0098386Y0159226D03*
X0098348Y0159226D03*
X0098310Y0159226D03*
X0098272Y0159226D03*
X0123276Y0135058D03*
X0123314Y0135058D03*
X0123352Y0135058D03*
X0123390Y0135058D03*
X0123390Y0124950D03*
X0123428Y0124950D03*
X0123466Y0124950D03*
X0122174Y0124722D03*
X0125328Y0120504D03*
X0125366Y0120504D03*
X0125404Y0120504D03*
D55*
X0120274Y0121302D03*
X0124644Y0134222D03*
X0124758Y0140948D03*
X0125366Y0146572D03*
X0105264Y0138592D03*
X0096980Y0138478D03*
X0095156Y0140492D03*
X0099564Y0147484D03*
X0100286Y0129320D03*
D56*
X0098462Y0131087D03*
X0098348Y0131125D03*
X0098310Y0131125D03*
X0098272Y0131125D03*
X0098158Y0131163D03*
X0098120Y0131163D03*
X0098082Y0131163D03*
X0098272Y0127477D03*
X0098310Y0127477D03*
X0098348Y0127477D03*
X0098196Y0127439D03*
X0098158Y0127439D03*
X0098120Y0127439D03*
X0098082Y0127439D03*
X0098044Y0127439D03*
X0098006Y0127439D03*
X0097968Y0127439D03*
X0094092Y0127477D03*
X0093788Y0127553D03*
X0093750Y0127553D03*
X0093864Y0131087D03*
X0093978Y0131125D03*
X0094016Y0131125D03*
X0094054Y0131125D03*
X0094168Y0131163D03*
X0094206Y0131163D03*
X0094244Y0131163D03*
X0093294Y0137889D03*
X0094282Y0141309D03*
X0094320Y0141309D03*
X0098766Y0141309D03*
X0098804Y0141271D03*
X0097740Y0137699D03*
X0106936Y0134659D03*
X0112940Y0130821D03*
X0112978Y0130821D03*
X0113016Y0130821D03*
X0113054Y0130821D03*
X0113092Y0130821D03*
X0113130Y0130821D03*
X0113168Y0130821D03*
X0113206Y0130821D03*
X0113244Y0130821D03*
X0113282Y0130821D03*
X0113320Y0130821D03*
X0113358Y0130821D03*
X0113434Y0130859D03*
X0113472Y0130859D03*
X0113510Y0130859D03*
X0113548Y0130859D03*
X0113586Y0130859D03*
X0113624Y0130859D03*
X0113890Y0130935D03*
X0113662Y0134735D03*
X0113624Y0134735D03*
X0113586Y0134735D03*
X0113548Y0134735D03*
X0113510Y0134735D03*
X0113472Y0134735D03*
X0113434Y0134735D03*
X0113396Y0134735D03*
X0119894Y0138003D03*
X0119932Y0138003D03*
X0119970Y0138003D03*
X0120008Y0138003D03*
X0120046Y0138003D03*
X0120084Y0138003D03*
X0120122Y0138003D03*
X0120160Y0138003D03*
X0120198Y0138003D03*
X0120236Y0138003D03*
X0120274Y0138003D03*
X0120312Y0138003D03*
X0120350Y0138003D03*
X0120388Y0138003D03*
X0120426Y0138003D03*
X0120464Y0138003D03*
X0120502Y0138003D03*
X0120540Y0138003D03*
X0120578Y0138003D03*
X0120616Y0138003D03*
X0120654Y0138003D03*
X0120692Y0138003D03*
X0120730Y0138003D03*
X0120768Y0138003D03*
X0120806Y0138003D03*
X0120844Y0138003D03*
X0120882Y0138003D03*
X0120920Y0138003D03*
X0120958Y0138003D03*
X0120996Y0138003D03*
X0121034Y0138003D03*
X0121072Y0138003D03*
X0121110Y0138003D03*
X0121148Y0138003D03*
X0121186Y0138003D03*
X0121224Y0138003D03*
X0121262Y0138003D03*
X0121300Y0138003D03*
X0121338Y0138003D03*
X0121376Y0138003D03*
X0121414Y0138003D03*
X0121452Y0138003D03*
X0121490Y0138003D03*
X0121528Y0138003D03*
X0121566Y0138003D03*
X0121604Y0138003D03*
X0121642Y0138003D03*
X0121680Y0138003D03*
X0121718Y0138003D03*
X0121756Y0138003D03*
X0121794Y0138003D03*
X0121832Y0138003D03*
X0121870Y0138003D03*
X0121908Y0138003D03*
X0121946Y0138003D03*
X0121984Y0138003D03*
X0122022Y0138003D03*
X0122060Y0138003D03*
X0122098Y0138003D03*
X0122136Y0138003D03*
X0122174Y0138003D03*
X0125366Y0134317D03*
X0122668Y0124931D03*
X0122630Y0124931D03*
X0122896Y0144653D03*
X0122934Y0144653D03*
X0123162Y0144691D03*
X0123200Y0144691D03*
X0123238Y0144691D03*
X0123542Y0144767D03*
X0123542Y0148339D03*
X0123428Y0148377D03*
X0123390Y0148377D03*
X0123352Y0148377D03*
X0122896Y0148453D03*
X0119590Y0148453D03*
X0119134Y0148377D03*
X0119096Y0148377D03*
X0118982Y0148339D03*
X0118944Y0148339D03*
X0118944Y0144767D03*
X0119248Y0144691D03*
X0119286Y0144691D03*
X0119324Y0144691D03*
X0119552Y0144653D03*
X0119590Y0144653D03*
X0124720Y0155331D03*
X0124758Y0155331D03*
X0124796Y0155331D03*
X0124834Y0155331D03*
X0124872Y0155331D03*
X0104580Y0149403D03*
X0099792Y0155331D03*
X0099754Y0155331D03*
X0099716Y0155331D03*
X0099678Y0155331D03*
X0099640Y0155331D03*
D57*
X0096486Y0155331D03*
X0096448Y0155331D03*
X0089190Y0152063D03*
X0089152Y0152063D03*
X0089114Y0152063D03*
X0089076Y0152063D03*
X0089038Y0158599D03*
X0099450Y0147465D03*
X0100248Y0139561D03*
X0105378Y0138611D03*
X0100248Y0129301D03*
X0092078Y0129301D03*
X0115524Y0132911D03*
X0124530Y0134203D03*
X0124644Y0140929D03*
X0125328Y0146553D03*
X0117158Y0146553D03*
X0114270Y0152063D03*
X0114232Y0152063D03*
X0114194Y0152063D03*
X0114156Y0152063D03*
X0114118Y0158599D03*
X0121528Y0155331D03*
X0121566Y0155331D03*
X0117044Y0122689D03*
X0120312Y0121359D03*
D58*
X0119666Y0120808D03*
X0119628Y0120808D03*
X0118640Y0120884D03*
X0118602Y0124532D03*
X0121946Y0124532D03*
X0123656Y0124874D03*
X0123732Y0124836D03*
X0123314Y0120808D03*
X0123276Y0120808D03*
X0123238Y0120808D03*
X0119856Y0117388D03*
X0119818Y0117388D03*
X0123352Y0131372D03*
X0123390Y0131372D03*
X0123656Y0134944D03*
X0123504Y0138136D03*
X0125328Y0140986D03*
X0123580Y0141746D03*
X0123922Y0144976D03*
X0123922Y0148130D03*
X0118564Y0148130D03*
X0118564Y0144976D03*
X0119020Y0141708D03*
X0118982Y0141670D03*
X0119020Y0138136D03*
X0114232Y0134488D03*
X0114232Y0131144D03*
X0110508Y0130916D03*
X0110584Y0134526D03*
X0106366Y0134488D03*
X0104694Y0133766D03*
X0106480Y0130916D03*
X0106252Y0137870D03*
X0106518Y0141442D03*
X0106556Y0141442D03*
X0106252Y0148776D03*
X0106518Y0152348D03*
X0106556Y0152348D03*
X0098576Y0148206D03*
X0098310Y0144634D03*
X0098272Y0144634D03*
X0094586Y0141138D03*
X0097512Y0137870D03*
X0098994Y0137984D03*
X0093484Y0130878D03*
X0098880Y0127724D03*
D59*
X0098918Y0130802D03*
X0093446Y0130802D03*
X0104732Y0133766D03*
X0118944Y0138174D03*
X0123580Y0138174D03*
X0123618Y0138174D03*
X0123694Y0134906D03*
X0123504Y0131410D03*
X0123466Y0131410D03*
X0121870Y0124456D03*
X0125328Y0123924D03*
X0123466Y0120846D03*
X0119742Y0120846D03*
X0118526Y0145052D03*
X0123960Y0145052D03*
X0112978Y0157706D03*
X0112940Y0157706D03*
X0112902Y0157706D03*
X0112864Y0157706D03*
X0112826Y0157706D03*
X0112788Y0157706D03*
X0112750Y0157706D03*
X0112712Y0157706D03*
X0112674Y0157706D03*
X0112636Y0157706D03*
X0112598Y0157706D03*
X0112560Y0157706D03*
X0112522Y0157706D03*
X0112484Y0157706D03*
X0112446Y0157706D03*
X0112408Y0157706D03*
X0112370Y0157706D03*
X0112332Y0157706D03*
X0112294Y0157706D03*
X0112256Y0157706D03*
X0112218Y0157706D03*
X0112180Y0157706D03*
X0112142Y0157706D03*
X0112104Y0157706D03*
X0112066Y0157706D03*
X0112028Y0157706D03*
X0111990Y0157706D03*
X0111952Y0157706D03*
X0111914Y0157706D03*
X0111876Y0157706D03*
X0111838Y0157706D03*
X0111800Y0157706D03*
X0111762Y0157706D03*
X0111724Y0157706D03*
X0111686Y0157706D03*
X0111648Y0157706D03*
X0111610Y0157706D03*
X0111572Y0157706D03*
X0111534Y0157706D03*
X0111496Y0157706D03*
X0111458Y0157706D03*
X0111420Y0157706D03*
X0111382Y0157706D03*
X0111344Y0157706D03*
X0111306Y0157706D03*
X0111268Y0157706D03*
X0111230Y0157706D03*
X0111192Y0157706D03*
X0111154Y0157706D03*
X0111116Y0157706D03*
X0111078Y0157706D03*
X0111040Y0157706D03*
X0111002Y0157706D03*
X0110964Y0157706D03*
X0110926Y0157706D03*
X0110888Y0157706D03*
X0110850Y0157706D03*
X0110812Y0157706D03*
X0110774Y0157706D03*
X0110736Y0157706D03*
X0110698Y0157706D03*
X0110660Y0157706D03*
X0110622Y0157706D03*
X0110584Y0157706D03*
X0110546Y0157706D03*
X0110508Y0157706D03*
X0110470Y0157706D03*
X0110432Y0157706D03*
X0110394Y0157706D03*
X0110356Y0157706D03*
X0110318Y0157706D03*
X0110280Y0157706D03*
X0110242Y0157706D03*
X0110204Y0157706D03*
X0110166Y0157706D03*
X0110128Y0157706D03*
X0110090Y0157706D03*
X0110052Y0157706D03*
X0110014Y0157706D03*
X0109976Y0157706D03*
X0109938Y0157706D03*
X0109900Y0157706D03*
X0109862Y0157706D03*
X0109824Y0157706D03*
X0109786Y0157706D03*
X0109748Y0157706D03*
X0109710Y0157706D03*
X0109672Y0157706D03*
X0109634Y0157706D03*
X0109596Y0157706D03*
X0109558Y0157706D03*
X0109520Y0157706D03*
X0109482Y0157706D03*
X0109444Y0157706D03*
X0109406Y0157706D03*
X0109368Y0157706D03*
X0109330Y0157706D03*
X0109292Y0157706D03*
X0109254Y0157706D03*
X0109216Y0157706D03*
X0109178Y0157706D03*
X0109140Y0157706D03*
X0109102Y0157706D03*
X0109064Y0157706D03*
X0109026Y0157706D03*
X0108988Y0157706D03*
X0108950Y0157706D03*
X0108912Y0157706D03*
X0108874Y0157706D03*
X0108836Y0157706D03*
X0108798Y0157706D03*
X0108760Y0157706D03*
X0108722Y0157706D03*
X0108684Y0157706D03*
X0108646Y0157706D03*
X0108608Y0157706D03*
X0108570Y0157706D03*
X0108532Y0157706D03*
X0108494Y0157706D03*
X0108456Y0157706D03*
X0108418Y0157706D03*
X0108380Y0157706D03*
X0108342Y0157706D03*
X0108304Y0157706D03*
X0108266Y0157706D03*
X0108228Y0157706D03*
X0108190Y0157706D03*
X0108152Y0157706D03*
X0108114Y0157706D03*
X0108076Y0157706D03*
X0108038Y0157706D03*
X0108000Y0157706D03*
X0107962Y0157706D03*
X0107924Y0157706D03*
X0107886Y0157706D03*
X0107848Y0157706D03*
X0107810Y0157706D03*
X0107772Y0157706D03*
X0107734Y0157706D03*
X0107696Y0157706D03*
X0107658Y0157706D03*
X0107620Y0157706D03*
X0107582Y0157706D03*
X0107544Y0157706D03*
X0107506Y0157706D03*
X0107468Y0157706D03*
X0107430Y0157706D03*
X0107392Y0157706D03*
X0107354Y0157706D03*
X0107316Y0157706D03*
X0107278Y0157706D03*
X0107240Y0157706D03*
X0107202Y0157706D03*
X0107164Y0157706D03*
X0107126Y0157706D03*
X0107088Y0157706D03*
X0107050Y0157706D03*
X0107012Y0157706D03*
X0106974Y0157706D03*
X0106936Y0157706D03*
X0106898Y0157706D03*
X0106860Y0157706D03*
X0106822Y0157706D03*
X0106784Y0157706D03*
X0106746Y0157706D03*
X0106708Y0157706D03*
X0106670Y0157706D03*
X0106632Y0157706D03*
X0106594Y0157706D03*
X0106556Y0157706D03*
X0106518Y0157706D03*
X0106480Y0157706D03*
X0106442Y0157706D03*
X0106404Y0157706D03*
X0106366Y0157706D03*
X0106328Y0157706D03*
X0106290Y0157706D03*
X0106252Y0157706D03*
X0106214Y0157706D03*
X0106176Y0157706D03*
X0106138Y0157706D03*
X0106100Y0157706D03*
X0106062Y0157706D03*
X0106024Y0157706D03*
X0105986Y0157706D03*
X0105948Y0157706D03*
X0105910Y0157706D03*
X0105872Y0157706D03*
X0105834Y0157706D03*
X0105796Y0157706D03*
X0105758Y0157706D03*
X0105720Y0157706D03*
X0105682Y0157706D03*
X0105644Y0157706D03*
X0105606Y0157706D03*
X0105568Y0157706D03*
X0105530Y0157706D03*
X0105492Y0157706D03*
X0105454Y0157706D03*
X0105416Y0157706D03*
X0105378Y0157706D03*
X0105340Y0157706D03*
X0105302Y0157706D03*
X0105264Y0157706D03*
X0105226Y0157706D03*
X0105188Y0157706D03*
X0105150Y0157706D03*
X0105112Y0157706D03*
X0105074Y0157706D03*
X0105036Y0157706D03*
X0104998Y0157706D03*
X0104960Y0157706D03*
X0104922Y0157706D03*
X0104884Y0157706D03*
X0104846Y0157706D03*
X0104808Y0157706D03*
X0104770Y0157706D03*
X0104732Y0157706D03*
X0104694Y0157706D03*
X0104656Y0157706D03*
X0104618Y0157706D03*
X0104580Y0157706D03*
X0104542Y0157706D03*
X0104504Y0157706D03*
X0104466Y0157706D03*
X0104428Y0157706D03*
X0104390Y0157706D03*
X0104352Y0157706D03*
X0104314Y0157706D03*
X0104276Y0157706D03*
X0104238Y0157706D03*
X0104200Y0157706D03*
X0104162Y0157706D03*
X0104124Y0157706D03*
X0104086Y0157706D03*
X0104048Y0157706D03*
X0104010Y0157706D03*
X0103972Y0157706D03*
X0103934Y0157706D03*
X0103896Y0157706D03*
X0103858Y0157706D03*
X0103820Y0157706D03*
X0103782Y0157706D03*
X0106404Y0152310D03*
X0106442Y0152310D03*
D60*
X0114878Y0152139D03*
X0114916Y0152139D03*
X0114954Y0152139D03*
X0114992Y0152139D03*
X0114840Y0158523D03*
X0114802Y0158523D03*
X0114764Y0158523D03*
X0114726Y0158523D03*
X0114688Y0158523D03*
X0125290Y0146553D03*
X0115486Y0132911D03*
X0096790Y0138687D03*
X0095308Y0140321D03*
X0089912Y0152139D03*
X0089874Y0152139D03*
X0089836Y0152139D03*
X0089798Y0152139D03*
X0089760Y0158523D03*
X0089722Y0158523D03*
X0089684Y0158523D03*
X0089646Y0158523D03*
X0089608Y0158523D03*
D61*
X0098614Y0148168D03*
X0098424Y0144672D03*
X0098386Y0144672D03*
X0098994Y0141062D03*
X0097474Y0137908D03*
X0091850Y0139504D03*
X0098918Y0127800D03*
X0106404Y0130954D03*
X0110584Y0130954D03*
X0110622Y0130954D03*
X0110698Y0134450D03*
X0106214Y0137908D03*
X0106404Y0141404D03*
X0106442Y0141404D03*
X0106214Y0148814D03*
X0118526Y0148054D03*
X0123960Y0148054D03*
X0123656Y0141708D03*
X0125290Y0140986D03*
X0118906Y0141632D03*
X0118564Y0124494D03*
X0121832Y0124418D03*
X0123770Y0124798D03*
X0118564Y0120922D03*
X0119704Y0117350D03*
D62*
X0098690Y0137699D03*
X0098652Y0137699D03*
X0093408Y0137813D03*
X0100020Y0155331D03*
X0100058Y0155331D03*
X0100096Y0155331D03*
X0100134Y0155331D03*
X0100172Y0155331D03*
X0125100Y0155331D03*
X0125138Y0155331D03*
X0125176Y0155331D03*
X0125214Y0155331D03*
X0125252Y0155331D03*
D63*
X0125252Y0146553D03*
X0117234Y0146553D03*
X0115372Y0152177D03*
X0115334Y0152177D03*
X0115296Y0152177D03*
X0115258Y0152177D03*
X0115220Y0152177D03*
X0115182Y0158485D03*
X0115144Y0158485D03*
X0115106Y0158485D03*
X0115068Y0158485D03*
X0115030Y0158485D03*
X0100172Y0139561D03*
X0096752Y0138725D03*
X0095384Y0140245D03*
X0092154Y0129301D03*
X0100172Y0129301D03*
X0090292Y0152177D03*
X0090254Y0152177D03*
X0090216Y0152177D03*
X0090178Y0152177D03*
X0090140Y0152177D03*
X0090102Y0158485D03*
X0090064Y0158485D03*
X0090026Y0158485D03*
X0089988Y0158485D03*
X0089950Y0158485D03*
D64*
X0098918Y0155331D03*
X0098956Y0155331D03*
X0098994Y0155331D03*
X0099032Y0155331D03*
X0099070Y0155331D03*
X0106480Y0152329D03*
X0104694Y0149403D03*
X0100172Y0147579D03*
X0098348Y0144653D03*
X0094624Y0141119D03*
X0104694Y0138497D03*
X0106480Y0141423D03*
X0106328Y0134469D03*
X0106442Y0130935D03*
X0110546Y0130935D03*
X0112218Y0133747D03*
X0110660Y0134469D03*
X0110622Y0134507D03*
X0118982Y0138155D03*
X0117234Y0140967D03*
X0118944Y0141651D03*
X0123618Y0141727D03*
X0123542Y0138155D03*
X0125252Y0134317D03*
X0123428Y0131391D03*
X0121908Y0124513D03*
X0123352Y0120827D03*
X0123390Y0120827D03*
X0123428Y0120827D03*
X0119704Y0120827D03*
X0118602Y0120903D03*
X0119742Y0117369D03*
X0119780Y0117369D03*
X0093446Y0127781D03*
X0123998Y0155331D03*
X0124036Y0155331D03*
X0124074Y0155331D03*
X0124112Y0155331D03*
X0124150Y0155331D03*
D65*
X0118830Y0138288D03*
X0125252Y0123924D03*
X0123732Y0120960D03*
D66*
X0117120Y0122670D03*
X0100134Y0129320D03*
X0092192Y0129320D03*
X0096676Y0138820D03*
X0095460Y0140150D03*
X0100134Y0139542D03*
X0090824Y0152234D03*
X0090786Y0152234D03*
X0090748Y0152234D03*
X0090710Y0152234D03*
X0090672Y0152234D03*
X0090634Y0158428D03*
X0090596Y0158428D03*
X0090558Y0158428D03*
X0090520Y0158428D03*
X0115600Y0158428D03*
X0115638Y0158428D03*
X0115676Y0158428D03*
X0115714Y0158428D03*
X0115752Y0152234D03*
X0115790Y0152234D03*
X0115828Y0152234D03*
X0115866Y0152234D03*
X0115904Y0152234D03*
X0125214Y0146572D03*
D67*
X0123770Y0141613D03*
X0125214Y0140967D03*
X0123732Y0138269D03*
X0125138Y0134279D03*
X0123656Y0131505D03*
X0121680Y0124209D03*
X0118488Y0124361D03*
X0119894Y0120941D03*
X0119552Y0117255D03*
X0123694Y0120941D03*
X0110736Y0131049D03*
X0117348Y0140967D03*
X0118830Y0141537D03*
X0106252Y0141309D03*
X0100058Y0147541D03*
X0098576Y0144767D03*
X0094776Y0140967D03*
X0104808Y0149403D03*
X0106252Y0152215D03*
X0098500Y0155331D03*
X0098462Y0155331D03*
X0098424Y0155331D03*
X0098386Y0155331D03*
X0098348Y0155331D03*
X0123428Y0155331D03*
X0123466Y0155331D03*
X0123504Y0155331D03*
X0123542Y0155331D03*
X0123580Y0155331D03*
D68*
X0123808Y0155331D03*
X0123846Y0155331D03*
X0123884Y0155331D03*
X0123922Y0155331D03*
X0123960Y0155331D03*
X0116930Y0146553D03*
X0117272Y0140967D03*
X0123694Y0141689D03*
X0125214Y0134317D03*
X0123542Y0131429D03*
X0123808Y0124779D03*
X0123542Y0120865D03*
X0123504Y0120865D03*
X0119780Y0120865D03*
X0119666Y0117331D03*
X0118526Y0124437D03*
X0114270Y0131239D03*
X0112180Y0133747D03*
X0106290Y0134431D03*
X0106366Y0130973D03*
X0100476Y0139561D03*
X0098462Y0144691D03*
X0100134Y0147579D03*
X0104732Y0149403D03*
X0106366Y0152291D03*
X0098880Y0155331D03*
X0098842Y0155331D03*
X0098804Y0155331D03*
X0098766Y0155331D03*
X0098728Y0155331D03*
X0106366Y0141385D03*
X0094662Y0141081D03*
X0091850Y0129301D03*
D69*
X0094852Y0140891D03*
X0099982Y0147541D03*
X0104884Y0138535D03*
X0104884Y0133747D03*
X0112028Y0133709D03*
X0125062Y0134279D03*
X0125214Y0123905D03*
X0119476Y0117179D03*
D70*
X0115410Y0132911D03*
X0117310Y0146553D03*
X0116436Y0152291D03*
X0116398Y0152291D03*
X0116360Y0152291D03*
X0116322Y0152291D03*
X0116284Y0158371D03*
X0116246Y0158371D03*
X0116208Y0158371D03*
X0116170Y0158371D03*
X0116132Y0158371D03*
X0125176Y0146553D03*
X0096562Y0138953D03*
X0095574Y0140017D03*
X0091356Y0152291D03*
X0091318Y0152291D03*
X0091280Y0152291D03*
X0091242Y0152291D03*
X0091204Y0158371D03*
X0091166Y0158371D03*
X0091128Y0158371D03*
X0091090Y0158371D03*
X0091052Y0158371D03*
D71*
X0097816Y0155331D03*
X0097854Y0155331D03*
X0097892Y0155331D03*
X0097930Y0155331D03*
X0097968Y0155331D03*
X0099944Y0147541D03*
X0100400Y0139561D03*
X0097246Y0138155D03*
X0094890Y0140853D03*
X0104922Y0138535D03*
X0104922Y0133747D03*
X0111990Y0133709D03*
X0117500Y0140967D03*
X0117006Y0146553D03*
X0125100Y0140967D03*
X0125024Y0134279D03*
X0121566Y0124019D03*
X0125176Y0123905D03*
X0116930Y0122689D03*
X0122896Y0155331D03*
X0122934Y0155331D03*
X0122972Y0155331D03*
X0123010Y0155331D03*
X0123048Y0155331D03*
D72*
X0125138Y0146553D03*
X0117348Y0146553D03*
X0120502Y0121625D03*
D73*
X0121604Y0124095D03*
X0123808Y0121017D03*
X0125138Y0140967D03*
X0117424Y0140967D03*
X0123086Y0155331D03*
X0123124Y0155331D03*
X0123162Y0155331D03*
X0123200Y0155331D03*
X0098120Y0155331D03*
X0098082Y0155331D03*
X0098044Y0155331D03*
X0098006Y0155331D03*
X0097284Y0138117D03*
D74*
X0091964Y0139504D03*
X0099868Y0147522D03*
X0104998Y0138554D03*
X0104998Y0133728D03*
X0115638Y0132930D03*
X0124948Y0134260D03*
X0125024Y0140986D03*
X0125138Y0123886D03*
X0121490Y0123886D03*
D75*
X0120540Y0121663D03*
X0100020Y0129301D03*
X0092306Y0129301D03*
X0096410Y0139105D03*
X0096372Y0139143D03*
X0095764Y0139789D03*
X0100020Y0139561D03*
X0117386Y0146553D03*
X0125100Y0146553D03*
D76*
X0111914Y0133690D03*
X0105036Y0138554D03*
X0099792Y0147522D03*
X0125100Y0123886D03*
D77*
X0099982Y0129301D03*
X0092344Y0129301D03*
X0096296Y0139219D03*
X0096258Y0139257D03*
X0095954Y0139599D03*
X0095916Y0139637D03*
X0095878Y0139675D03*
X0095840Y0139713D03*
X0117424Y0146553D03*
X0125062Y0146553D03*
D78*
X0125062Y0140967D03*
X0117538Y0140967D03*
X0111952Y0133709D03*
X0104960Y0138535D03*
X0097208Y0138193D03*
X0094928Y0140777D03*
X0104998Y0149441D03*
X0097778Y0155331D03*
X0097740Y0155331D03*
X0097702Y0155331D03*
X0097664Y0155331D03*
X0097626Y0155331D03*
X0122706Y0155331D03*
X0122744Y0155331D03*
X0122782Y0155331D03*
X0122820Y0155331D03*
X0122858Y0155331D03*
X0120084Y0121093D03*
X0119438Y0117103D03*
D79*
X0120160Y0121188D03*
X0125062Y0123886D03*
X0115600Y0132930D03*
X0117690Y0140948D03*
X0124834Y0134260D03*
X0105074Y0133728D03*
X0095042Y0140644D03*
X0092002Y0139504D03*
X0099754Y0147522D03*
X0105150Y0149460D03*
D80*
X0117462Y0146553D03*
X0125024Y0146553D03*
D81*
X0124986Y0146553D03*
X0117500Y0146553D03*
X0099906Y0129301D03*
X0092420Y0129301D03*
X0117272Y0122651D03*
X0120616Y0121777D03*
D82*
X0124910Y0134279D03*
X0124986Y0140967D03*
X0117576Y0140967D03*
X0105036Y0149441D03*
X0099830Y0147541D03*
X0100362Y0139561D03*
X0094966Y0140739D03*
D83*
X0095118Y0140549D03*
X0097018Y0138421D03*
X0100286Y0139561D03*
X0105226Y0133709D03*
X0115562Y0132911D03*
X0124682Y0134241D03*
X0124796Y0140967D03*
X0117120Y0146553D03*
X0121794Y0155331D03*
X0121832Y0155331D03*
X0121870Y0155331D03*
X0121908Y0155331D03*
X0121946Y0155331D03*
X0099602Y0147503D03*
X0096866Y0155331D03*
X0096828Y0155331D03*
X0096790Y0155331D03*
X0096752Y0155331D03*
X0096714Y0155331D03*
X0092040Y0129301D03*
X0124986Y0123867D03*
D84*
X0120654Y0121815D03*
X0099868Y0129301D03*
X0092458Y0129301D03*
X0117538Y0146553D03*
X0124948Y0146553D03*
D85*
X0121756Y0155331D03*
X0121718Y0155331D03*
X0121680Y0155331D03*
X0121642Y0155331D03*
X0121604Y0155331D03*
X0124606Y0134203D03*
X0124948Y0123867D03*
X0105264Y0133709D03*
X0096676Y0155331D03*
X0096638Y0155331D03*
X0096600Y0155331D03*
X0096562Y0155331D03*
X0096524Y0155331D03*
D86*
X0117576Y0146553D03*
X0124910Y0146553D03*
D87*
X0124910Y0140967D03*
X0124796Y0134241D03*
X0105112Y0133709D03*
X0105112Y0138573D03*
X0097094Y0138345D03*
X0099716Y0147503D03*
X0097208Y0155331D03*
X0097170Y0155331D03*
X0097132Y0155331D03*
X0097094Y0155331D03*
X0097056Y0155331D03*
X0122136Y0155331D03*
X0122174Y0155331D03*
X0122212Y0155331D03*
X0122250Y0155331D03*
X0122288Y0155331D03*
D88*
X0114118Y0152044D03*
X0124682Y0140948D03*
X0124720Y0140948D03*
X0124568Y0134222D03*
X0124910Y0123848D03*
X0105302Y0133690D03*
X0105340Y0138592D03*
X0096942Y0138516D03*
X0095194Y0140454D03*
X0092078Y0139504D03*
X0099488Y0147484D03*
X0089038Y0152044D03*
D89*
X0092534Y0129301D03*
X0099792Y0129301D03*
X0117614Y0146553D03*
X0124872Y0146553D03*
D90*
X0117614Y0140948D03*
X0117044Y0146534D03*
X0105074Y0149460D03*
X0105036Y0133728D03*
X0100362Y0129320D03*
X0091964Y0129320D03*
X0124872Y0134260D03*
D91*
X0124606Y0140948D03*
X0114460Y0152082D03*
X0114422Y0152082D03*
X0114384Y0152082D03*
X0114346Y0152082D03*
X0114308Y0152082D03*
X0114270Y0158580D03*
X0114232Y0158580D03*
X0114194Y0158580D03*
X0114156Y0158580D03*
X0095232Y0140416D03*
X0096904Y0138554D03*
X0092116Y0139504D03*
X0089380Y0152082D03*
X0089342Y0152082D03*
X0089304Y0152082D03*
X0089266Y0152082D03*
X0089228Y0152082D03*
X0089190Y0158580D03*
X0089152Y0158580D03*
X0089114Y0158580D03*
X0089076Y0158580D03*
X0105340Y0133690D03*
X0124872Y0123848D03*
D92*
X0117386Y0122651D03*
X0099754Y0129301D03*
X0092610Y0129301D03*
X0092610Y0139523D03*
X0117652Y0146553D03*
X0117690Y0146553D03*
X0124834Y0146553D03*
D93*
X0124834Y0140967D03*
X0124758Y0134241D03*
X0105150Y0133709D03*
X0105188Y0138573D03*
X0097056Y0138383D03*
X0095080Y0140587D03*
X0099678Y0147503D03*
X0097018Y0155331D03*
X0096980Y0155331D03*
X0096942Y0155331D03*
X0096904Y0155331D03*
X0121984Y0155331D03*
X0122022Y0155331D03*
X0122060Y0155331D03*
X0122098Y0155331D03*
D94*
X0114840Y0152120D03*
X0114802Y0152120D03*
X0114764Y0152120D03*
X0114726Y0152120D03*
X0114688Y0152120D03*
X0117196Y0146534D03*
X0114650Y0158542D03*
X0114612Y0158542D03*
X0114574Y0158542D03*
X0114536Y0158542D03*
X0114498Y0158542D03*
X0100210Y0139542D03*
X0100210Y0129320D03*
X0092116Y0129320D03*
X0089760Y0152120D03*
X0089722Y0152120D03*
X0089684Y0152120D03*
X0089646Y0152120D03*
X0089608Y0152120D03*
X0089570Y0158542D03*
X0089532Y0158542D03*
X0089494Y0158542D03*
X0089456Y0158542D03*
X0089418Y0158542D03*
X0124834Y0123848D03*
X0120350Y0121416D03*
D95*
X0120768Y0121948D03*
X0115106Y0132892D03*
X0099716Y0129320D03*
X0099754Y0139542D03*
X0124796Y0146572D03*
D96*
X0115182Y0152158D03*
X0115144Y0152158D03*
X0115106Y0152158D03*
X0115068Y0152158D03*
X0115030Y0152158D03*
X0114992Y0158504D03*
X0114954Y0158504D03*
X0114916Y0158504D03*
X0114878Y0158504D03*
X0095346Y0140264D03*
X0092154Y0139504D03*
X0090102Y0152158D03*
X0090064Y0152158D03*
X0090026Y0152158D03*
X0089988Y0152158D03*
X0089950Y0152158D03*
X0089912Y0158504D03*
X0089874Y0158504D03*
X0089836Y0158504D03*
X0089798Y0158504D03*
X0117082Y0122670D03*
X0120388Y0121454D03*
X0124796Y0123848D03*
D97*
X0117424Y0122651D03*
X0099678Y0129301D03*
X0092648Y0129301D03*
X0092648Y0139523D03*
X0099716Y0139561D03*
X0117728Y0146553D03*
X0124758Y0146553D03*
D98*
X0124758Y0122613D03*
D99*
X0099640Y0129301D03*
X0092686Y0129301D03*
X0092686Y0139523D03*
X0117766Y0146553D03*
X0124720Y0146553D03*
D100*
X0124720Y0134222D03*
X0092040Y0139504D03*
D101*
X0124682Y0122632D03*
X0124720Y0122632D03*
D102*
X0117462Y0122670D03*
X0115030Y0132892D03*
X0117804Y0146534D03*
X0124682Y0146572D03*
X0099640Y0139542D03*
X0092724Y0139504D03*
X0092724Y0129320D03*
D103*
X0092762Y0139523D03*
X0117842Y0146553D03*
X0124644Y0146553D03*
D104*
X0124530Y0122689D03*
X0124606Y0122651D03*
X0124644Y0122651D03*
D105*
X0114954Y0132873D03*
X0117880Y0146553D03*
X0117918Y0146553D03*
X0124568Y0146553D03*
X0124606Y0146553D03*
X0099526Y0129301D03*
X0092838Y0129301D03*
X0092800Y0129301D03*
X0092800Y0139523D03*
X0092838Y0139523D03*
D106*
X0105416Y0139751D03*
X0105416Y0132607D03*
X0105454Y0132607D03*
X0105492Y0132607D03*
X0111420Y0132607D03*
X0111458Y0132607D03*
X0118108Y0139827D03*
X0118146Y0139827D03*
X0118184Y0139827D03*
X0124568Y0139827D03*
X0118146Y0122689D03*
X0105416Y0150657D03*
X0105378Y0150657D03*
X0105340Y0150657D03*
D107*
X0124568Y0122670D03*
D108*
X0114916Y0132873D03*
X0117956Y0146553D03*
X0117994Y0146553D03*
X0124530Y0146553D03*
X0099488Y0129301D03*
X0099450Y0129301D03*
X0092876Y0129301D03*
X0092876Y0139523D03*
D109*
X0099298Y0146344D03*
X0099336Y0146344D03*
X0099374Y0146344D03*
X0099412Y0146344D03*
X0105454Y0150638D03*
X0105492Y0150638D03*
X0105530Y0150638D03*
X0105530Y0139732D03*
X0105492Y0139732D03*
X0105454Y0139732D03*
X0118222Y0139846D03*
X0118260Y0139846D03*
X0118298Y0139846D03*
X0118336Y0139846D03*
X0124454Y0139846D03*
X0124492Y0139846D03*
X0124530Y0139846D03*
X0124492Y0133082D03*
X0124454Y0133082D03*
X0124416Y0133082D03*
X0124378Y0133082D03*
X0118184Y0122670D03*
D110*
X0117576Y0122670D03*
X0120958Y0122138D03*
X0099488Y0139542D03*
X0099450Y0139542D03*
X0092914Y0139542D03*
X0092914Y0129320D03*
X0124492Y0146572D03*
D111*
X0124492Y0122708D03*
X0124454Y0122708D03*
D112*
X0114878Y0132873D03*
X0118032Y0146553D03*
X0118070Y0146553D03*
X0124454Y0146553D03*
X0092952Y0139523D03*
D113*
X0092990Y0139542D03*
X0099412Y0139542D03*
X0092990Y0129320D03*
X0117614Y0122670D03*
X0120996Y0122176D03*
X0124416Y0146572D03*
D114*
X0124416Y0139865D03*
X0124378Y0139865D03*
X0124340Y0139865D03*
X0118526Y0139865D03*
X0118488Y0139865D03*
X0118450Y0139865D03*
X0118412Y0139865D03*
X0118374Y0139865D03*
X0124264Y0133101D03*
X0124302Y0133101D03*
X0124340Y0133101D03*
X0118298Y0122689D03*
X0118260Y0122689D03*
X0118222Y0122689D03*
X0111306Y0132645D03*
X0111268Y0132645D03*
X0111230Y0132645D03*
X0105720Y0132645D03*
X0105682Y0132645D03*
X0105644Y0132645D03*
X0105644Y0139713D03*
X0105606Y0139713D03*
X0105568Y0139713D03*
X0105682Y0139713D03*
X0099260Y0146363D03*
X0099222Y0146363D03*
X0099184Y0146363D03*
X0105568Y0150619D03*
X0105606Y0150619D03*
X0105644Y0150619D03*
X0105682Y0150619D03*
D115*
X0124378Y0122727D03*
X0124416Y0122727D03*
D116*
X0121034Y0122195D03*
X0117652Y0122651D03*
X0114840Y0132873D03*
X0118108Y0146553D03*
X0118146Y0146553D03*
X0124378Y0146553D03*
X0099374Y0139561D03*
X0093028Y0139523D03*
X0093028Y0129301D03*
X0093066Y0129301D03*
X0099298Y0129301D03*
X0099336Y0129301D03*
D117*
X0098880Y0130859D03*
X0110546Y0134545D03*
X0114194Y0134545D03*
X0119058Y0138117D03*
X0119096Y0138117D03*
X0117196Y0140967D03*
X0119058Y0141727D03*
X0119096Y0141727D03*
X0123428Y0138117D03*
X0123466Y0138117D03*
X0123618Y0134963D03*
X0123314Y0131353D03*
X0123276Y0131353D03*
X0121984Y0124589D03*
X0123086Y0120789D03*
X0123124Y0120789D03*
X0123162Y0120789D03*
X0123200Y0120789D03*
X0119590Y0120789D03*
X0116854Y0122689D03*
X0104656Y0149403D03*
X0106594Y0152367D03*
X0106632Y0152367D03*
X0099260Y0155331D03*
X0099222Y0155331D03*
X0099184Y0155331D03*
X0099146Y0155331D03*
X0099108Y0155331D03*
X0124188Y0155331D03*
X0124226Y0155331D03*
X0124264Y0155331D03*
X0124302Y0155331D03*
X0124340Y0155331D03*
D118*
X0124340Y0146572D03*
X0114802Y0132854D03*
D119*
X0124264Y0122746D03*
X0124302Y0122746D03*
X0124340Y0122746D03*
D120*
X0121072Y0122233D03*
X0114764Y0132873D03*
X0118184Y0146553D03*
X0118222Y0146553D03*
X0124264Y0146553D03*
X0124302Y0146553D03*
X0099260Y0129301D03*
X0099222Y0129301D03*
X0093142Y0129301D03*
X0093104Y0129301D03*
X0093104Y0139523D03*
D121*
X0098994Y0146382D03*
X0099032Y0146382D03*
X0099070Y0146382D03*
X0099108Y0146382D03*
X0099146Y0146382D03*
X0105720Y0150600D03*
X0105758Y0150600D03*
X0105796Y0150600D03*
X0105834Y0150600D03*
X0105834Y0139694D03*
X0105796Y0139694D03*
X0105758Y0139694D03*
X0105720Y0139694D03*
X0105758Y0132664D03*
X0105796Y0132664D03*
X0105834Y0132664D03*
X0105872Y0132664D03*
X0105910Y0132664D03*
X0111078Y0132664D03*
X0111116Y0132664D03*
X0111154Y0132664D03*
X0111192Y0132664D03*
X0118564Y0139884D03*
X0118602Y0139884D03*
X0118640Y0139884D03*
X0118678Y0139884D03*
X0118716Y0139884D03*
X0124226Y0139884D03*
X0124264Y0139884D03*
X0124302Y0139884D03*
X0124226Y0133120D03*
X0124188Y0133120D03*
X0124150Y0133120D03*
X0124112Y0133120D03*
X0124074Y0133120D03*
D122*
X0124188Y0146553D03*
X0124226Y0146553D03*
X0118298Y0146553D03*
X0118260Y0146553D03*
D123*
X0124112Y0122765D03*
X0124150Y0122765D03*
X0124188Y0122765D03*
X0124226Y0122765D03*
D124*
X0118412Y0122689D03*
X0118374Y0122689D03*
X0118336Y0122689D03*
X0123846Y0133139D03*
X0123884Y0133139D03*
X0123922Y0133139D03*
X0123960Y0133139D03*
X0123998Y0133139D03*
X0124036Y0133139D03*
X0124036Y0139903D03*
X0124074Y0139903D03*
X0124112Y0139903D03*
X0124150Y0139903D03*
X0124188Y0139903D03*
X0118792Y0139903D03*
X0118754Y0139903D03*
X0106062Y0139675D03*
X0106024Y0139675D03*
X0105986Y0139675D03*
X0105948Y0139675D03*
X0105910Y0139675D03*
X0105872Y0139675D03*
X0105872Y0150581D03*
X0105910Y0150581D03*
X0105948Y0150581D03*
X0105986Y0150581D03*
X0106024Y0150581D03*
X0106062Y0150581D03*
D125*
X0118336Y0146534D03*
X0124150Y0146572D03*
X0114688Y0132854D03*
X0114650Y0132854D03*
X0117766Y0122670D03*
X0121148Y0122290D03*
X0099108Y0129282D03*
X0093256Y0129320D03*
X0099146Y0139542D03*
X0099184Y0139542D03*
D126*
X0099070Y0129301D03*
X0099032Y0129301D03*
X0093332Y0129301D03*
X0093294Y0129301D03*
X0117804Y0122651D03*
X0121186Y0122309D03*
X0118412Y0146553D03*
X0118374Y0146553D03*
X0124074Y0146553D03*
X0124112Y0146553D03*
D127*
X0123922Y0122822D03*
X0124074Y0122784D03*
D128*
X0121224Y0122347D03*
X0114574Y0132835D03*
X0118488Y0146553D03*
X0123998Y0146553D03*
X0124036Y0146553D03*
X0098956Y0129301D03*
X0093408Y0129301D03*
D129*
X0123960Y0122803D03*
X0123998Y0122803D03*
X0124036Y0122803D03*
D130*
X0118450Y0122708D03*
X0123770Y0133158D03*
X0123808Y0133158D03*
X0123808Y0139922D03*
X0123846Y0139922D03*
X0123884Y0139922D03*
X0123922Y0139922D03*
X0123960Y0139922D03*
X0123998Y0139922D03*
X0110850Y0132702D03*
X0110812Y0132702D03*
X0106214Y0132702D03*
X0106138Y0139656D03*
X0106100Y0139656D03*
X0098728Y0146420D03*
X0098690Y0146420D03*
X0106100Y0150562D03*
X0106138Y0150562D03*
D131*
X0104846Y0133747D03*
X0123884Y0124665D03*
D132*
X0123884Y0121131D03*
X0120122Y0121131D03*
X0097170Y0138231D03*
X0097436Y0155331D03*
X0097474Y0155331D03*
X0097512Y0155331D03*
X0097550Y0155331D03*
X0097588Y0155331D03*
X0122516Y0155331D03*
X0122554Y0155331D03*
X0122592Y0155331D03*
X0122630Y0155331D03*
X0122668Y0155331D03*
D133*
X0123732Y0141651D03*
X0112142Y0133747D03*
X0110698Y0131011D03*
X0121756Y0124323D03*
X0123846Y0124741D03*
X0119590Y0117293D03*
X0094700Y0141043D03*
X0098538Y0144729D03*
D134*
X0120046Y0121074D03*
X0123846Y0121074D03*
D135*
X0123618Y0120903D03*
X0119818Y0120903D03*
X0123618Y0131467D03*
X0123694Y0138231D03*
X0118868Y0138231D03*
X0117310Y0140967D03*
X0104770Y0149403D03*
X0098690Y0155331D03*
X0098652Y0155331D03*
X0098614Y0155331D03*
X0098576Y0155331D03*
X0098538Y0155331D03*
X0123618Y0155331D03*
X0123656Y0155331D03*
X0123694Y0155331D03*
X0123732Y0155331D03*
X0123770Y0155331D03*
D136*
X0123770Y0138326D03*
X0115676Y0132930D03*
X0112066Y0133728D03*
X0110774Y0131106D03*
X0104846Y0138516D03*
X0097322Y0138060D03*
X0104884Y0149422D03*
X0121642Y0124152D03*
X0119970Y0120998D03*
D137*
X0120008Y0121036D03*
X0123732Y0131600D03*
X0117462Y0140986D03*
X0106176Y0141214D03*
X0098652Y0144862D03*
X0106176Y0152120D03*
D138*
X0106290Y0148757D03*
X0106594Y0141461D03*
X0106632Y0141461D03*
X0104656Y0138497D03*
X0106290Y0137851D03*
X0106404Y0134507D03*
X0106518Y0130897D03*
X0106556Y0130897D03*
X0110394Y0130897D03*
X0110432Y0130897D03*
X0110470Y0130897D03*
X0118640Y0124551D03*
X0118678Y0120865D03*
X0119894Y0117407D03*
X0119932Y0117407D03*
X0123694Y0124855D03*
X0123618Y0124893D03*
X0123542Y0141765D03*
X0123504Y0141765D03*
X0098234Y0144615D03*
X0098196Y0144615D03*
X0098538Y0148225D03*
X0094548Y0141157D03*
X0093218Y0141005D03*
X0097550Y0137851D03*
D139*
X0097398Y0137984D03*
X0094738Y0141024D03*
X0104770Y0138516D03*
X0106290Y0141328D03*
X0106252Y0134374D03*
X0104808Y0133766D03*
X0106290Y0131030D03*
X0110774Y0134374D03*
X0121718Y0124266D03*
X0119856Y0120922D03*
X0116892Y0122670D03*
X0123656Y0120922D03*
X0106290Y0152234D03*
D140*
X0100286Y0147579D03*
X0095308Y0151379D03*
X0095270Y0151379D03*
X0095232Y0151379D03*
X0095194Y0151379D03*
X0095156Y0151379D03*
X0095118Y0151379D03*
X0095080Y0151379D03*
X0095042Y0151379D03*
X0095004Y0151379D03*
X0094966Y0151379D03*
X0094928Y0151379D03*
X0094890Y0151379D03*
X0094852Y0151379D03*
X0094814Y0151379D03*
X0094776Y0151379D03*
X0094738Y0151379D03*
X0094700Y0151379D03*
X0094662Y0151379D03*
X0094624Y0151379D03*
X0094586Y0151379D03*
X0094548Y0151379D03*
X0094510Y0151379D03*
X0094472Y0151379D03*
X0094434Y0151379D03*
X0094396Y0151379D03*
X0094358Y0151379D03*
X0094320Y0151379D03*
X0094282Y0151379D03*
X0094244Y0151379D03*
X0094206Y0151379D03*
X0094168Y0151379D03*
X0094130Y0151379D03*
X0094092Y0151379D03*
X0094054Y0151379D03*
X0094016Y0151379D03*
X0093978Y0151379D03*
X0093940Y0151379D03*
X0093902Y0151379D03*
X0093864Y0151379D03*
X0093864Y0159283D03*
X0093902Y0159283D03*
X0093940Y0159283D03*
X0093978Y0159283D03*
X0094016Y0159283D03*
X0094054Y0159283D03*
X0094092Y0159283D03*
X0094130Y0159283D03*
X0094168Y0159283D03*
X0094206Y0159283D03*
X0094244Y0159283D03*
X0094282Y0159283D03*
X0094320Y0159283D03*
X0094358Y0159283D03*
X0094396Y0159283D03*
X0094434Y0159283D03*
X0094472Y0159283D03*
X0094510Y0159283D03*
X0094548Y0159283D03*
X0094586Y0159283D03*
X0094624Y0159283D03*
X0094662Y0159283D03*
X0094700Y0159283D03*
X0094738Y0159283D03*
X0094776Y0159283D03*
X0094814Y0159283D03*
X0094852Y0159283D03*
X0094890Y0159283D03*
X0094928Y0159283D03*
X0094966Y0159283D03*
X0095004Y0159283D03*
X0095042Y0159283D03*
X0095080Y0159283D03*
X0095118Y0159283D03*
X0095156Y0159283D03*
X0095194Y0159283D03*
X0095232Y0159283D03*
X0095270Y0159283D03*
X0095308Y0159283D03*
X0104580Y0138497D03*
X0107202Y0134697D03*
X0107240Y0134697D03*
X0107278Y0134697D03*
X0107316Y0134697D03*
X0107354Y0134697D03*
X0107392Y0134697D03*
X0107430Y0134697D03*
X0107468Y0134697D03*
X0107506Y0134697D03*
X0107544Y0134697D03*
X0107582Y0134697D03*
X0107620Y0134697D03*
X0107658Y0134697D03*
X0113776Y0134697D03*
X0113814Y0134697D03*
X0113776Y0130897D03*
X0113738Y0130897D03*
X0113700Y0130897D03*
X0122782Y0124969D03*
X0122820Y0124969D03*
X0122858Y0124969D03*
X0122896Y0124969D03*
X0123352Y0144729D03*
X0123390Y0144729D03*
X0123428Y0144729D03*
X0123238Y0148415D03*
X0123200Y0148415D03*
X0123162Y0148415D03*
X0119362Y0148415D03*
X0119324Y0148415D03*
X0119286Y0148415D03*
X0119286Y0151379D03*
X0119248Y0151379D03*
X0119210Y0151379D03*
X0119172Y0151379D03*
X0119134Y0151379D03*
X0119096Y0151379D03*
X0119058Y0151379D03*
X0119020Y0151379D03*
X0118982Y0151379D03*
X0118944Y0151379D03*
X0119324Y0151379D03*
X0119362Y0151379D03*
X0119400Y0151379D03*
X0119438Y0151379D03*
X0119476Y0151379D03*
X0119514Y0151379D03*
X0119552Y0151379D03*
X0119590Y0151379D03*
X0119628Y0151379D03*
X0119666Y0151379D03*
X0119704Y0151379D03*
X0119742Y0151379D03*
X0119780Y0151379D03*
X0119818Y0151379D03*
X0119856Y0151379D03*
X0119894Y0151379D03*
X0119932Y0151379D03*
X0119970Y0151379D03*
X0120008Y0151379D03*
X0120046Y0151379D03*
X0120084Y0151379D03*
X0120122Y0151379D03*
X0120160Y0151379D03*
X0120198Y0151379D03*
X0120236Y0151379D03*
X0120274Y0151379D03*
X0120312Y0151379D03*
X0120350Y0151379D03*
X0120388Y0151379D03*
X0119134Y0144729D03*
X0119096Y0144729D03*
X0119058Y0144729D03*
X0119058Y0159283D03*
X0119020Y0159283D03*
X0118982Y0159283D03*
X0118944Y0159283D03*
X0119096Y0159283D03*
X0119134Y0159283D03*
X0119172Y0159283D03*
X0119210Y0159283D03*
X0119248Y0159283D03*
X0119286Y0159283D03*
X0119324Y0159283D03*
X0119362Y0159283D03*
X0119400Y0159283D03*
X0119438Y0159283D03*
X0119476Y0159283D03*
X0119514Y0159283D03*
X0119552Y0159283D03*
X0119590Y0159283D03*
X0119628Y0159283D03*
X0119666Y0159283D03*
X0119704Y0159283D03*
X0119742Y0159283D03*
X0119780Y0159283D03*
X0119818Y0159283D03*
X0119856Y0159283D03*
X0119894Y0159283D03*
X0119932Y0159283D03*
X0119970Y0159283D03*
X0120008Y0159283D03*
X0120046Y0159283D03*
X0120084Y0159283D03*
X0120122Y0159283D03*
X0120160Y0159283D03*
X0120198Y0159283D03*
X0120236Y0159283D03*
X0120274Y0159283D03*
X0120312Y0159283D03*
X0120350Y0159283D03*
X0120388Y0159283D03*
X0097816Y0131201D03*
X0094510Y0131201D03*
X0094472Y0131201D03*
X0093902Y0127515D03*
X0093864Y0127515D03*
X0097094Y0127401D03*
X0097132Y0127401D03*
X0097170Y0127401D03*
X0097208Y0127401D03*
X0097246Y0127401D03*
X0097284Y0127401D03*
X0097322Y0127401D03*
X0097360Y0127401D03*
X0097398Y0127401D03*
X0097436Y0127401D03*
X0097474Y0127401D03*
X0097512Y0127401D03*
X0097550Y0127401D03*
X0097588Y0127401D03*
X0097626Y0127401D03*
X0097664Y0127401D03*
X0097702Y0127401D03*
X0097740Y0127401D03*
X0097778Y0127401D03*
X0097816Y0127401D03*
X0097854Y0127401D03*
X0097892Y0127401D03*
D141*
X0104428Y0138459D03*
X0104428Y0149365D03*
X0096410Y0154381D03*
X0096372Y0154381D03*
X0096334Y0154381D03*
X0096144Y0154343D03*
X0096334Y0156281D03*
X0096372Y0156281D03*
X0096410Y0156281D03*
X0096144Y0156319D03*
X0121224Y0156319D03*
X0121414Y0156281D03*
X0121452Y0156281D03*
X0121490Y0156281D03*
X0121490Y0154381D03*
X0121452Y0154381D03*
X0121414Y0154381D03*
X0121224Y0154343D03*
X0117994Y0115469D03*
X0117956Y0115469D03*
D142*
X0118070Y0122689D03*
X0121414Y0122461D03*
X0114308Y0132835D03*
X0111610Y0132569D03*
X0111572Y0132569D03*
X0117880Y0139789D03*
X0117918Y0139789D03*
X0117956Y0139789D03*
D143*
X0117842Y0139770D03*
X0117804Y0139770D03*
X0117994Y0122670D03*
X0118032Y0122670D03*
X0121376Y0122442D03*
D144*
X0121338Y0122404D03*
X0117956Y0122670D03*
X0111800Y0132512D03*
D145*
X0114460Y0132835D03*
X0114498Y0132835D03*
X0121300Y0122385D03*
D146*
X0121262Y0122366D03*
X0117880Y0122670D03*
X0114536Y0132854D03*
D147*
X0118032Y0115488D03*
X0121034Y0154324D03*
X0121072Y0154324D03*
X0121110Y0154324D03*
X0121148Y0154324D03*
X0121186Y0154324D03*
X0121186Y0156338D03*
X0121148Y0156338D03*
X0121110Y0156338D03*
X0121072Y0156338D03*
X0121034Y0156338D03*
X0096106Y0156338D03*
X0096068Y0156338D03*
X0096030Y0156338D03*
X0095992Y0156338D03*
X0095954Y0156338D03*
X0095954Y0154324D03*
X0095992Y0154324D03*
X0096030Y0154324D03*
X0096068Y0154324D03*
X0096106Y0154324D03*
D148*
X0093142Y0139542D03*
X0099222Y0139542D03*
X0099260Y0139542D03*
X0099298Y0139542D03*
X0099184Y0129282D03*
X0093180Y0129320D03*
X0114726Y0132854D03*
X0117728Y0122670D03*
X0121110Y0122252D03*
D149*
X0118108Y0115507D03*
X0118070Y0115507D03*
X0116968Y0140967D03*
X0119932Y0154115D03*
X0119970Y0154115D03*
X0120122Y0154153D03*
X0120160Y0154153D03*
X0120198Y0154153D03*
X0120236Y0154153D03*
X0120312Y0154191D03*
X0120350Y0154191D03*
X0120388Y0154191D03*
X0120426Y0154191D03*
X0120464Y0154191D03*
X0120502Y0154229D03*
X0120540Y0154229D03*
X0120578Y0154229D03*
X0120616Y0154229D03*
X0120654Y0154229D03*
X0120768Y0154267D03*
X0120806Y0154267D03*
X0120996Y0156357D03*
X0120806Y0156395D03*
X0120768Y0156395D03*
X0120730Y0156395D03*
X0120654Y0156433D03*
X0120616Y0156433D03*
X0120578Y0156433D03*
X0120540Y0156433D03*
X0120502Y0156433D03*
X0120388Y0156471D03*
X0120350Y0156471D03*
X0120312Y0156471D03*
X0120122Y0156509D03*
X0095916Y0156357D03*
X0095726Y0156395D03*
X0095688Y0156395D03*
X0095650Y0156395D03*
X0095574Y0156433D03*
X0095536Y0156433D03*
X0095498Y0156433D03*
X0095460Y0156433D03*
X0095422Y0156433D03*
X0095308Y0156471D03*
X0095270Y0156471D03*
X0095232Y0156471D03*
X0095042Y0156509D03*
X0095422Y0154229D03*
X0095460Y0154229D03*
X0095498Y0154229D03*
X0095536Y0154229D03*
X0095574Y0154229D03*
X0095688Y0154267D03*
X0095726Y0154267D03*
X0095384Y0154191D03*
X0095346Y0154191D03*
X0095308Y0154191D03*
X0095270Y0154191D03*
X0095232Y0154191D03*
X0095156Y0154153D03*
X0095118Y0154153D03*
X0095080Y0154153D03*
X0095042Y0154153D03*
X0094890Y0154115D03*
X0094852Y0154115D03*
X0091736Y0139523D03*
D150*
X0099526Y0139542D03*
X0117538Y0122670D03*
X0120920Y0122100D03*
D151*
X0120882Y0122062D03*
X0117500Y0122670D03*
X0114992Y0132892D03*
X0099602Y0139542D03*
X0099564Y0139542D03*
D152*
X0120844Y0122024D03*
D153*
X0120806Y0121986D03*
X0115068Y0132892D03*
X0099678Y0139542D03*
D154*
X0099792Y0139542D03*
X0092572Y0129320D03*
X0115144Y0132892D03*
X0120730Y0121910D03*
D155*
X0120692Y0121872D03*
X0117348Y0122670D03*
X0115182Y0132892D03*
X0099830Y0139542D03*
X0092534Y0139504D03*
D156*
X0092382Y0139504D03*
X0095992Y0139542D03*
X0096030Y0139504D03*
X0096068Y0139466D03*
X0096106Y0139428D03*
X0096144Y0139390D03*
X0096182Y0139352D03*
X0096220Y0139314D03*
X0099982Y0139542D03*
X0117234Y0122670D03*
X0120578Y0121720D03*
D157*
X0120464Y0121568D03*
X0119400Y0116628D03*
X0119362Y0116628D03*
X0119324Y0116628D03*
X0119286Y0116628D03*
X0119248Y0116628D03*
X0119210Y0116628D03*
X0119172Y0116628D03*
X0119134Y0116628D03*
X0119096Y0116628D03*
X0119058Y0116628D03*
X0119020Y0116628D03*
X0118982Y0116628D03*
X0118944Y0116628D03*
X0118906Y0116628D03*
X0118868Y0116628D03*
X0118830Y0116628D03*
X0118792Y0116628D03*
X0118754Y0116628D03*
X0118716Y0116628D03*
X0118678Y0116628D03*
X0118640Y0116628D03*
X0118602Y0116628D03*
X0118564Y0116628D03*
X0118526Y0116628D03*
X0118488Y0116628D03*
X0118450Y0116628D03*
X0118412Y0116628D03*
X0118374Y0116628D03*
X0118336Y0116628D03*
X0118298Y0116628D03*
X0118260Y0116628D03*
X0118222Y0116628D03*
X0118184Y0116628D03*
X0118146Y0116628D03*
X0100096Y0129320D03*
X0092230Y0129320D03*
X0096600Y0138896D03*
X0100096Y0139542D03*
D158*
X0115448Y0132911D03*
X0120426Y0121511D03*
X0117272Y0146553D03*
D159*
X0105264Y0149460D03*
X0099640Y0147484D03*
X0105226Y0138592D03*
X0105188Y0133728D03*
X0117006Y0122670D03*
X0120236Y0121264D03*
D160*
X0117158Y0153545D03*
X0117120Y0153545D03*
X0117082Y0153545D03*
X0117044Y0153545D03*
X0117918Y0153735D03*
X0117956Y0153735D03*
X0117994Y0153735D03*
X0118032Y0153735D03*
X0118070Y0153735D03*
X0118488Y0153849D03*
X0118526Y0153849D03*
X0118564Y0153849D03*
X0118602Y0153849D03*
X0119020Y0153963D03*
X0119058Y0153963D03*
X0119096Y0153963D03*
X0119134Y0153963D03*
X0119172Y0153963D03*
X0119590Y0156585D03*
X0119628Y0156585D03*
X0119666Y0156585D03*
X0119704Y0156585D03*
X0117006Y0157117D03*
X0094624Y0156585D03*
X0094586Y0156585D03*
X0094548Y0156585D03*
X0094510Y0156585D03*
X0094092Y0153963D03*
X0094054Y0153963D03*
X0094016Y0153963D03*
X0093978Y0153963D03*
X0093940Y0153963D03*
X0093522Y0153849D03*
X0093484Y0153849D03*
X0093446Y0153849D03*
X0093408Y0153849D03*
X0092990Y0153735D03*
X0092952Y0153735D03*
X0092914Y0153735D03*
X0092876Y0153735D03*
X0092838Y0153735D03*
X0092078Y0153545D03*
X0092040Y0153545D03*
X0092002Y0153545D03*
X0091964Y0153545D03*
X0091926Y0157117D03*
D161*
X0119476Y0114614D03*
D162*
X0119438Y0114747D03*
D163*
X0118488Y0121036D03*
X0112104Y0133728D03*
X0104808Y0138516D03*
X0097360Y0138022D03*
X0091888Y0139504D03*
D164*
X0099032Y0139542D03*
X0099070Y0139542D03*
X0099108Y0139542D03*
X0093370Y0129320D03*
X0117842Y0122670D03*
X0118450Y0146534D03*
D165*
X0118070Y0139808D03*
X0118032Y0139808D03*
X0117994Y0139808D03*
X0111534Y0132588D03*
X0111496Y0132588D03*
X0105378Y0132588D03*
X0118108Y0122670D03*
X0105302Y0150676D03*
D166*
X0111838Y0132493D03*
X0111876Y0132493D03*
X0117918Y0122651D03*
D167*
X0117880Y0115431D03*
X0116930Y0140967D03*
D168*
X0117728Y0139751D03*
X0117766Y0139751D03*
X0114422Y0132835D03*
X0114384Y0132835D03*
X0111762Y0132531D03*
X0111724Y0132531D03*
D169*
X0115828Y0132949D03*
X0117766Y0115393D03*
D170*
X0117728Y0115374D03*
X0112522Y0133766D03*
X0104390Y0149384D03*
D171*
X0099336Y0139542D03*
X0093066Y0139542D03*
X0117690Y0122670D03*
D172*
X0117500Y0157022D03*
X0117462Y0157022D03*
X0117424Y0157022D03*
X0117386Y0157022D03*
X0092420Y0157022D03*
X0092382Y0157022D03*
X0092344Y0157022D03*
X0092306Y0157022D03*
D173*
X0104352Y0133785D03*
X0112560Y0133785D03*
X0117500Y0115279D03*
D174*
X0117462Y0115260D03*
D175*
X0117386Y0115222D03*
X0116854Y0140948D03*
D176*
X0115220Y0132892D03*
X0117310Y0122670D03*
X0099868Y0139542D03*
X0092496Y0139504D03*
D177*
X0112598Y0133785D03*
X0117310Y0115165D03*
D178*
X0117272Y0115146D03*
D179*
X0117234Y0115127D03*
D180*
X0117196Y0122670D03*
X0096448Y0139048D03*
X0095726Y0139846D03*
X0095688Y0139884D03*
X0092306Y0139504D03*
X0091698Y0158314D03*
X0091660Y0158314D03*
X0091622Y0158314D03*
X0091584Y0158314D03*
X0116664Y0158314D03*
X0116702Y0158314D03*
X0116740Y0158314D03*
X0116778Y0158314D03*
D181*
X0116816Y0140929D03*
X0116740Y0122689D03*
X0117196Y0115089D03*
D182*
X0117158Y0122670D03*
X0096524Y0138972D03*
X0095650Y0139922D03*
X0095612Y0139960D03*
X0092268Y0139504D03*
X0091546Y0152310D03*
X0091508Y0152310D03*
X0091470Y0152310D03*
X0091432Y0152310D03*
X0091394Y0152310D03*
X0091356Y0158352D03*
X0091318Y0158352D03*
X0091280Y0158352D03*
X0091242Y0158352D03*
X0116322Y0158352D03*
X0116360Y0158352D03*
X0116398Y0158352D03*
X0116436Y0158352D03*
X0116474Y0152310D03*
X0116512Y0152310D03*
X0116550Y0152310D03*
X0116588Y0152310D03*
X0116626Y0152310D03*
D183*
X0117158Y0115070D03*
D184*
X0117120Y0115032D03*
X0104276Y0133804D03*
D185*
X0117044Y0114975D03*
D186*
X0117006Y0114937D03*
D187*
X0116930Y0114842D03*
D188*
X0116892Y0114785D03*
D189*
X0116854Y0114728D03*
D190*
X0116816Y0114633D03*
D191*
X0100058Y0129301D03*
X0092268Y0129301D03*
X0096486Y0139029D03*
X0100058Y0139561D03*
X0091698Y0152329D03*
X0091660Y0152329D03*
X0091622Y0152329D03*
X0091584Y0152329D03*
X0091546Y0158333D03*
X0091508Y0158333D03*
X0091470Y0158333D03*
X0091432Y0158333D03*
X0091394Y0158333D03*
X0116474Y0158333D03*
X0116512Y0158333D03*
X0116550Y0158333D03*
X0116588Y0158333D03*
X0116626Y0158333D03*
X0116664Y0152329D03*
X0116702Y0152329D03*
X0116740Y0152329D03*
X0116778Y0152329D03*
X0115372Y0132911D03*
D192*
X0116778Y0122689D03*
D193*
X0095536Y0140036D03*
X0091204Y0152272D03*
X0091166Y0152272D03*
X0091128Y0152272D03*
X0091090Y0152272D03*
X0091052Y0152272D03*
X0091014Y0158390D03*
X0090976Y0158390D03*
X0090938Y0158390D03*
X0090900Y0158390D03*
X0090862Y0158390D03*
X0115942Y0158390D03*
X0115980Y0158390D03*
X0116018Y0158390D03*
X0116056Y0158390D03*
X0116094Y0158390D03*
X0116132Y0152272D03*
X0116170Y0152272D03*
X0116208Y0152272D03*
X0116246Y0152272D03*
X0116284Y0152272D03*
D194*
X0116094Y0152253D03*
X0116056Y0152253D03*
X0116018Y0152253D03*
X0115980Y0152253D03*
X0115942Y0152253D03*
X0115904Y0158409D03*
X0115866Y0158409D03*
X0115828Y0158409D03*
X0115790Y0158409D03*
X0115752Y0158409D03*
X0095498Y0140093D03*
X0096638Y0138877D03*
X0092230Y0139523D03*
X0091014Y0152253D03*
X0090976Y0152253D03*
X0090938Y0152253D03*
X0090900Y0152253D03*
X0090862Y0152253D03*
X0090824Y0158409D03*
X0090786Y0158409D03*
X0090748Y0158409D03*
X0090710Y0158409D03*
X0090672Y0158409D03*
D195*
X0112636Y0133785D03*
X0115866Y0132949D03*
D196*
X0115714Y0152215D03*
X0115676Y0152215D03*
X0115638Y0152215D03*
X0115600Y0152215D03*
X0115562Y0158447D03*
X0115524Y0158447D03*
X0115486Y0158447D03*
X0115448Y0158447D03*
X0115410Y0158447D03*
X0090482Y0158447D03*
X0090444Y0158447D03*
X0090406Y0158447D03*
X0090368Y0158447D03*
X0090330Y0158447D03*
X0090520Y0152215D03*
X0090558Y0152215D03*
X0090596Y0152215D03*
X0090634Y0152215D03*
D197*
X0090482Y0152196D03*
X0090444Y0152196D03*
X0090406Y0152196D03*
X0090368Y0152196D03*
X0090330Y0152196D03*
X0090292Y0158466D03*
X0090254Y0158466D03*
X0090216Y0158466D03*
X0090178Y0158466D03*
X0090140Y0158466D03*
X0092192Y0139504D03*
X0096714Y0138782D03*
X0115410Y0152196D03*
X0115448Y0152196D03*
X0115486Y0152196D03*
X0115524Y0152196D03*
X0115562Y0152196D03*
X0115372Y0158466D03*
X0115334Y0158466D03*
X0115296Y0158466D03*
X0115258Y0158466D03*
X0115220Y0158466D03*
D198*
X0095802Y0139770D03*
X0115334Y0132892D03*
D199*
X0115296Y0132911D03*
X0099944Y0129301D03*
X0092382Y0129301D03*
D200*
X0099906Y0139542D03*
X0115258Y0132892D03*
D201*
X0096866Y0138611D03*
X0095270Y0140359D03*
X0089570Y0152101D03*
X0089532Y0152101D03*
X0089494Y0152101D03*
X0089456Y0152101D03*
X0089418Y0152101D03*
X0089380Y0158561D03*
X0089342Y0158561D03*
X0089304Y0158561D03*
X0089266Y0158561D03*
X0089228Y0158561D03*
X0114308Y0158561D03*
X0114346Y0158561D03*
X0114384Y0158561D03*
X0114422Y0158561D03*
X0114460Y0158561D03*
X0114498Y0152101D03*
X0114536Y0152101D03*
X0114574Y0152101D03*
X0114612Y0152101D03*
X0114650Y0152101D03*
D202*
X0114612Y0132854D03*
X0098994Y0129282D03*
D203*
X0111648Y0132550D03*
X0111686Y0132550D03*
X0114346Y0132816D03*
D204*
X0112674Y0133785D03*
D205*
X0111382Y0132626D03*
X0111344Y0132626D03*
X0105606Y0132626D03*
X0105568Y0132626D03*
X0105530Y0132626D03*
D206*
X0105948Y0132683D03*
X0105986Y0132683D03*
X0106024Y0132683D03*
X0106062Y0132683D03*
X0106100Y0132683D03*
X0106138Y0132683D03*
X0106176Y0132683D03*
X0110888Y0132683D03*
X0110926Y0132683D03*
X0110964Y0132683D03*
X0111002Y0132683D03*
X0111040Y0132683D03*
X0098956Y0146401D03*
X0098918Y0146401D03*
X0098880Y0146401D03*
X0098842Y0146401D03*
X0098804Y0146401D03*
X0098766Y0146401D03*
D207*
X0099526Y0147465D03*
X0105302Y0138611D03*
D208*
X0104922Y0149422D03*
X0091926Y0139504D03*
D209*
X0104314Y0133804D03*
D210*
X0104238Y0133804D03*
D211*
X0103744Y0157649D03*
X0103706Y0157649D03*
X0103668Y0157649D03*
X0103630Y0157649D03*
X0103592Y0157649D03*
X0103554Y0157649D03*
X0103516Y0157649D03*
X0103478Y0157649D03*
X0103440Y0157649D03*
X0103402Y0157649D03*
X0103364Y0157649D03*
X0103326Y0157649D03*
X0103288Y0157649D03*
X0103250Y0157649D03*
X0103212Y0157649D03*
X0103174Y0157649D03*
X0103136Y0157649D03*
X0103098Y0157649D03*
X0103060Y0157649D03*
X0103022Y0157649D03*
X0102984Y0157649D03*
X0102946Y0157649D03*
X0102908Y0157649D03*
X0102870Y0157649D03*
X0102832Y0157649D03*
X0102794Y0157649D03*
X0102756Y0157649D03*
X0102718Y0157649D03*
X0102680Y0157649D03*
X0102642Y0157649D03*
X0102604Y0157649D03*
X0102566Y0157649D03*
X0102528Y0157649D03*
X0102490Y0157649D03*
X0102452Y0157649D03*
X0102414Y0157649D03*
X0102376Y0157649D03*
X0102338Y0157649D03*
X0102300Y0157649D03*
X0102262Y0157649D03*
X0102224Y0157649D03*
X0102186Y0157649D03*
X0102148Y0157649D03*
X0102110Y0157649D03*
X0102072Y0157649D03*
X0102034Y0157649D03*
X0101996Y0157649D03*
X0101958Y0157649D03*
X0101920Y0157649D03*
X0101882Y0157649D03*
X0101844Y0157649D03*
X0101806Y0157649D03*
X0101768Y0157649D03*
X0101730Y0157649D03*
X0101692Y0157649D03*
X0101654Y0157649D03*
X0101616Y0157649D03*
X0101578Y0157649D03*
D212*
X0091660Y0139523D03*
X0091660Y0129301D03*
X0100666Y0129301D03*
D213*
X0100628Y0139561D03*
D214*
X0100324Y0139561D03*
D215*
X0099944Y0139542D03*
X0092420Y0139504D03*
D216*
X0092496Y0129301D03*
X0099830Y0129301D03*
D217*
X0099602Y0129301D03*
X0099564Y0129301D03*
X0092762Y0129301D03*
D218*
X0092952Y0129301D03*
X0099374Y0129301D03*
X0099412Y0129301D03*
D219*
X0099146Y0129301D03*
X0093218Y0129301D03*
X0093180Y0139523D03*
D220*
X0096828Y0138649D03*
D221*
X0096334Y0139200D03*
X0092344Y0139504D03*
D222*
X0095422Y0140188D03*
D223*
X0094358Y0137642D03*
X0094320Y0137642D03*
X0094282Y0137642D03*
X0094244Y0137642D03*
X0094206Y0137642D03*
X0094168Y0137642D03*
X0094130Y0137642D03*
X0094092Y0137642D03*
D224*
X0092572Y0139504D03*
D225*
X0092458Y0139504D03*
D226*
X0171050Y0151050D03*
X0171050Y0101050D03*
X0171050Y0051050D03*
D227*
X0171050Y0031050D03*
X0171050Y0081050D03*
X0171050Y0131050D03*
M02*
