%
M48
M72
T01C0.0276
T02C0.0320
T03C0.0400
T04C0.0472
%
T01
X7605Y3613
X7605Y4597
X7605Y8613
X7605Y9597
X7605Y13613
X7605Y14597
T02
X5105Y15605
X4105Y15105
X3105Y14105
X4105Y13105
X5105Y12605
X5105Y10605
X4105Y10105
X3105Y9105
X4105Y8105
X5105Y7605
X5105Y5605
X4105Y5105
X3105Y4105
X4105Y3105
X5105Y2605
X10605Y6105
X10605Y7105
X10605Y8105
X10605Y9105
X10605Y10105
X10605Y11105
X10605Y12105
X13605Y12105
X13605Y11105
X13605Y10105
X13605Y9105
X13605Y8105
X13605Y7105
X13605Y6105
T03
X1355Y3035
X1355Y4105
X1355Y5175
X1355Y8035
X1355Y9105
X1355Y10175
X1355Y13035
X1355Y14105
X1355Y15175
T04
X17105Y15105
X17105Y13105
X17105Y10105
X17105Y8105
X17105Y5105
X17105Y3105
M30
