G75*
%MOIN*%
%OFA0B0*%
%FSLAX25Y25*%
%IPPOS*%
%LPD*%
%AMOC8*
5,1,8,0,0,1.08239X$1,22.5*
%
%ADD10C,0.06000*%
%ADD11OC8,0.06000*%
%ADD12R,0.05556X0.05556*%
%ADD13C,0.05556*%
%ADD14C,0.00500*%
%ADD15OC8,0.07400*%
%ADD16R,0.15800X0.15800*%
%ADD17C,0.15800*%
D10*
X0103450Y0061050D02*
X0108650Y0061050D01*
X0108650Y0071050D02*
X0103450Y0071050D01*
X0103450Y0081050D02*
X0108650Y0081050D01*
X0108650Y0091050D02*
X0103450Y0091050D01*
X0103450Y0101050D02*
X0108650Y0101050D01*
X0108650Y0111050D02*
X0103450Y0111050D01*
X0103450Y0121050D02*
X0108650Y0121050D01*
X0133450Y0121050D02*
X0138650Y0121050D01*
X0138650Y0111050D02*
X0133450Y0111050D01*
X0133450Y0101050D02*
X0138650Y0101050D01*
X0138650Y0091050D02*
X0133450Y0091050D01*
X0133450Y0081050D02*
X0138650Y0081050D01*
X0138650Y0071050D02*
X0133450Y0071050D01*
X0133450Y0061050D02*
X0138650Y0061050D01*
D11*
X0051050Y0056050D03*
X0051050Y0076050D03*
X0051050Y0106050D03*
X0051050Y0126050D03*
X0051050Y0156050D03*
X0051050Y0026050D03*
D12*
X0076050Y0036129D03*
X0076050Y0086129D03*
X0076050Y0136129D03*
D13*
X0076050Y0145971D03*
X0076050Y0095971D03*
X0076050Y0045971D03*
D14*
X0012814Y0028742D02*
X0012485Y0028938D01*
X0012208Y0029203D01*
X0011997Y0029522D01*
X0011862Y0029881D01*
X0011810Y0030260D01*
X0011845Y0030661D01*
X0011969Y0031043D01*
X0012174Y0031389D01*
X0012451Y0031680D01*
X0012786Y0031903D01*
X0013162Y0032045D01*
X0013560Y0032100D01*
X0013953Y0032049D01*
X0014325Y0031912D01*
X0014657Y0031695D01*
X0014933Y0031410D01*
X0015138Y0031071D01*
X0015262Y0030695D01*
X0015300Y0030300D01*
X0015254Y0029917D01*
X0015123Y0029553D01*
X0014915Y0029228D01*
X0014639Y0028957D01*
X0014310Y0028755D01*
X0013944Y0028630D01*
X0013560Y0028590D01*
X0013179Y0028624D01*
X0012814Y0028742D01*
X0012409Y0029011D02*
X0014694Y0029011D01*
X0015095Y0029510D02*
X0012005Y0029510D01*
X0011845Y0030008D02*
X0015265Y0030008D01*
X0015280Y0030507D02*
X0011832Y0030507D01*
X0011956Y0031005D02*
X0015160Y0031005D01*
X0014842Y0031504D02*
X0012283Y0031504D01*
X0013049Y0032002D02*
X0014080Y0032002D01*
X0013590Y0039290D02*
X0013209Y0039324D01*
X0012844Y0039442D01*
X0012515Y0039638D01*
X0012238Y0039902D01*
X0012027Y0040222D01*
X0011892Y0040580D01*
X0011840Y0040960D01*
X0011875Y0041360D01*
X0011998Y0041743D01*
X0012204Y0042089D01*
X0012481Y0042380D01*
X0012816Y0042602D01*
X0013192Y0042745D01*
X0013590Y0042800D01*
X0013983Y0042749D01*
X0014355Y0042611D01*
X0014687Y0042395D01*
X0014962Y0042110D01*
X0015168Y0041771D01*
X0015292Y0041395D01*
X0015330Y0041000D01*
X0015283Y0040617D01*
X0015153Y0040253D01*
X0014944Y0039928D01*
X0014669Y0039657D01*
X0014340Y0039454D01*
X0013974Y0039330D01*
X0013590Y0039290D01*
X0014382Y0039480D02*
X0012780Y0039480D01*
X0012188Y0039979D02*
X0014977Y0039979D01*
X0015233Y0040477D02*
X0011931Y0040477D01*
X0011842Y0040976D02*
X0015327Y0040976D01*
X0015266Y0041474D02*
X0011912Y0041474D01*
X0012135Y0041973D02*
X0015046Y0041973D01*
X0014570Y0042471D02*
X0012618Y0042471D01*
X0013168Y0050044D02*
X0012804Y0050162D01*
X0012475Y0050358D01*
X0012198Y0050622D01*
X0011987Y0050942D01*
X0011852Y0051300D01*
X0011800Y0051680D01*
X0011835Y0052080D01*
X0011958Y0052463D01*
X0012164Y0052809D01*
X0012441Y0053100D01*
X0012776Y0053322D01*
X0013152Y0053465D01*
X0013550Y0053520D01*
X0013943Y0053469D01*
X0014315Y0053331D01*
X0014647Y0053115D01*
X0014922Y0052830D01*
X0015127Y0052491D01*
X0015252Y0052115D01*
X0015290Y0051720D01*
X0015243Y0051337D01*
X0015113Y0050973D01*
X0014904Y0050648D01*
X0014629Y0050377D01*
X0014300Y0050174D01*
X0013934Y0050050D01*
X0013550Y0050010D01*
X0013168Y0050044D01*
X0012381Y0050447D02*
X0014700Y0050447D01*
X0015095Y0050946D02*
X0011985Y0050946D01*
X0011832Y0051444D02*
X0015256Y0051444D01*
X0015268Y0051943D02*
X0011823Y0051943D01*
X0011951Y0052441D02*
X0015144Y0052441D01*
X0014816Y0052940D02*
X0012288Y0052940D01*
X0013082Y0053438D02*
X0014025Y0053438D01*
X0013560Y0078590D02*
X0013179Y0078624D01*
X0012814Y0078742D01*
X0012485Y0078938D01*
X0012208Y0079203D01*
X0011997Y0079522D01*
X0011862Y0079881D01*
X0011810Y0080260D01*
X0011845Y0080661D01*
X0011969Y0081043D01*
X0012174Y0081389D01*
X0012451Y0081680D01*
X0012786Y0081903D01*
X0013162Y0082045D01*
X0013560Y0082100D01*
X0013953Y0082049D01*
X0014325Y0081912D01*
X0014657Y0081695D01*
X0014933Y0081410D01*
X0015138Y0081071D01*
X0015262Y0080695D01*
X0015300Y0080300D01*
X0015254Y0079917D01*
X0015123Y0079553D01*
X0014915Y0079228D01*
X0014639Y0078957D01*
X0014310Y0078755D01*
X0013944Y0078630D01*
X0013560Y0078590D01*
X0014485Y0078862D02*
X0012612Y0078862D01*
X0012104Y0079361D02*
X0015000Y0079361D01*
X0015233Y0079859D02*
X0011870Y0079859D01*
X0011819Y0080358D02*
X0015294Y0080358D01*
X0015209Y0080856D02*
X0011908Y0080856D01*
X0012154Y0081355D02*
X0014966Y0081355D01*
X0014414Y0081853D02*
X0012712Y0081853D01*
X0013209Y0089324D02*
X0012844Y0089442D01*
X0012515Y0089638D01*
X0012238Y0089902D01*
X0012027Y0090222D01*
X0011892Y0090580D01*
X0011840Y0090960D01*
X0011875Y0091360D01*
X0011998Y0091743D01*
X0012204Y0092089D01*
X0012481Y0092380D01*
X0012816Y0092602D01*
X0013192Y0092745D01*
X0013590Y0092800D01*
X0013983Y0092749D01*
X0014355Y0092611D01*
X0014687Y0092395D01*
X0014962Y0092110D01*
X0015168Y0091771D01*
X0015292Y0091395D01*
X0015330Y0091000D01*
X0015283Y0090617D01*
X0015153Y0090253D01*
X0014944Y0089928D01*
X0014669Y0089657D01*
X0014340Y0089454D01*
X0013974Y0089330D01*
X0013590Y0089290D01*
X0013209Y0089324D01*
X0013186Y0089331D02*
X0013979Y0089331D01*
X0014845Y0089830D02*
X0012314Y0089830D01*
X0011987Y0090328D02*
X0015180Y0090328D01*
X0015309Y0090827D02*
X0011858Y0090827D01*
X0011872Y0091325D02*
X0015299Y0091325D01*
X0015136Y0091824D02*
X0012046Y0091824D01*
X0012426Y0092322D02*
X0014757Y0092322D01*
X0013934Y0100050D02*
X0013550Y0100010D01*
X0013168Y0100044D01*
X0012804Y0100162D01*
X0012475Y0100358D01*
X0012198Y0100622D01*
X0011987Y0100942D01*
X0011852Y0101300D01*
X0011800Y0101680D01*
X0011835Y0102080D01*
X0011958Y0102463D01*
X0012164Y0102809D01*
X0012441Y0103100D01*
X0012776Y0103322D01*
X0013152Y0103465D01*
X0013550Y0103520D01*
X0013943Y0103469D01*
X0014315Y0103331D01*
X0014647Y0103115D01*
X0014922Y0102830D01*
X0015127Y0102491D01*
X0015252Y0102115D01*
X0015290Y0101720D01*
X0015243Y0101337D01*
X0015113Y0100973D01*
X0014904Y0100648D01*
X0014629Y0100377D01*
X0014300Y0100174D01*
X0013934Y0100050D01*
X0014501Y0100298D02*
X0012575Y0100298D01*
X0012083Y0100797D02*
X0015000Y0100797D01*
X0015228Y0101295D02*
X0011854Y0101295D01*
X0011810Y0101794D02*
X0015283Y0101794D01*
X0015193Y0102292D02*
X0011903Y0102292D01*
X0012153Y0102791D02*
X0014946Y0102791D01*
X0014379Y0103289D02*
X0012726Y0103289D01*
X0013560Y0128590D02*
X0013179Y0128624D01*
X0012814Y0128742D01*
X0012485Y0128938D01*
X0012208Y0129203D01*
X0011997Y0129522D01*
X0011862Y0129881D01*
X0011810Y0130260D01*
X0011845Y0130661D01*
X0011969Y0131043D01*
X0012174Y0131389D01*
X0012451Y0131680D01*
X0012786Y0131903D01*
X0013162Y0132045D01*
X0013560Y0132100D01*
X0013953Y0132049D01*
X0014325Y0131912D01*
X0014657Y0131695D01*
X0014933Y0131410D01*
X0015138Y0131071D01*
X0015262Y0130695D01*
X0015300Y0130300D01*
X0015254Y0129917D01*
X0015123Y0129553D01*
X0014915Y0129228D01*
X0014639Y0128957D01*
X0014310Y0128755D01*
X0013944Y0128630D01*
X0013560Y0128590D01*
X0014190Y0128714D02*
X0012902Y0128714D01*
X0012202Y0129212D02*
X0014898Y0129212D01*
X0015179Y0129711D02*
X0011926Y0129711D01*
X0011817Y0130209D02*
X0015289Y0130209D01*
X0015258Y0130708D02*
X0011860Y0130708D01*
X0012065Y0131206D02*
X0015056Y0131206D01*
X0014643Y0131705D02*
X0012487Y0131705D01*
X0013209Y0139324D02*
X0012844Y0139442D01*
X0012515Y0139638D01*
X0012238Y0139902D01*
X0012027Y0140222D01*
X0011892Y0140580D01*
X0011840Y0140960D01*
X0011875Y0141360D01*
X0011998Y0141743D01*
X0012204Y0142089D01*
X0012481Y0142380D01*
X0012816Y0142602D01*
X0013192Y0142745D01*
X0013590Y0142800D01*
X0013983Y0142749D01*
X0014355Y0142611D01*
X0014687Y0142395D01*
X0014962Y0142110D01*
X0015168Y0141771D01*
X0015292Y0141395D01*
X0015330Y0141000D01*
X0015283Y0140617D01*
X0015153Y0140253D01*
X0014944Y0139928D01*
X0014669Y0139657D01*
X0014340Y0139454D01*
X0013974Y0139330D01*
X0013590Y0139290D01*
X0013209Y0139324D01*
X0012470Y0139681D02*
X0014693Y0139681D01*
X0015106Y0140179D02*
X0012055Y0140179D01*
X0011879Y0140678D02*
X0015291Y0140678D01*
X0015313Y0141176D02*
X0011859Y0141176D01*
X0011976Y0141675D02*
X0015199Y0141675D01*
X0014901Y0142173D02*
X0012284Y0142173D01*
X0013000Y0142672D02*
X0014191Y0142672D01*
X0013550Y0150010D02*
X0013168Y0150044D01*
X0012804Y0150162D01*
X0012475Y0150358D01*
X0012198Y0150622D01*
X0011987Y0150942D01*
X0011852Y0151300D01*
X0011800Y0151680D01*
X0011835Y0152080D01*
X0011958Y0152463D01*
X0012164Y0152809D01*
X0012441Y0153100D01*
X0012776Y0153322D01*
X0013152Y0153465D01*
X0013550Y0153520D01*
X0013943Y0153469D01*
X0014315Y0153331D01*
X0014647Y0153115D01*
X0014922Y0152830D01*
X0015127Y0152491D01*
X0015252Y0152115D01*
X0015290Y0151720D01*
X0015243Y0151337D01*
X0015113Y0150973D01*
X0014904Y0150648D01*
X0014629Y0150377D01*
X0014300Y0150174D01*
X0013934Y0150050D01*
X0013550Y0150010D01*
X0014227Y0150150D02*
X0012842Y0150150D01*
X0012181Y0150648D02*
X0014905Y0150648D01*
X0015175Y0151147D02*
X0011910Y0151147D01*
X0011805Y0151645D02*
X0015281Y0151645D01*
X0015242Y0152144D02*
X0011855Y0152144D01*
X0012065Y0152642D02*
X0015036Y0152642D01*
X0014607Y0153141D02*
X0012502Y0153141D01*
D15*
X0031050Y0141050D03*
X0041050Y0131050D03*
X0041050Y0151050D03*
X0041050Y0101050D03*
X0031050Y0091050D03*
X0041050Y0081050D03*
X0041050Y0051050D03*
X0031050Y0041050D03*
X0041050Y0031050D03*
D16*
X0171050Y0051050D03*
X0171050Y0101050D03*
X0171050Y0151050D03*
D17*
X0171050Y0131050D03*
X0171050Y0081050D03*
X0171050Y0031050D03*
M02*
